<svg width="2560" height="490" viewBox="0 0 2560 490" fill="none" xmlns="http://www.w3.org/2000/svg"><path d="M815.406 91.079h51.502v288.01h-51.502V91.079ZM922.207 96.094h51.502v49.199h-51.502v-49.2Zm0 85.251h51.502v197.744h-51.502V181.345ZM1157.9 356.455h-.81c-18.03 21.821-36.06 27.242-58.01 27.242-61.81 0-84.03-49.877-84.03-104.09 0-54.485 22.22-102.87 84.03-102.87 29.14 0 47.98 12.333 60.31 32.663h.81v-28.055h49.2v278.386h-51.5V356.455Zm-89.05-76.848c0 27.242 9.63 64.107 43.37 64.107 34.16 0 45.27-36.052 45.27-64.107 0-27.649-13.01-63.023-46.08-63.023-33.34.135-42.56 36.594-42.56 63.023ZM1444.01 379.089h-48.79v-26.836h-.81c-15.72 19.246-37.95 31.444-64.92 31.444-46.9 0-67.23-33.071-67.23-77.526V181.345h51.5v105.581c0 24.125.41 56.788 33.35 56.788 37.27 0 45.26-40.253 45.26-65.598v-96.771h51.51v197.744h.13ZM1498.09 96.094h51.5v49.199h-51.5v-49.2Zm0 85.251h51.5v197.744h-51.5V181.345ZM1603.67 181.345h49.2V209.4h.81c11.52-19.246 31.04-32.663 61.4-32.663 60.72 0 82.95 48.385 82.95 102.87 0 54.078-22.23 104.09-84.03 104.09-21.82 0-39.99-5.421-58.01-27.242h-.81v103.276h-51.51V181.345Zm51.91 98.262c0 28.055 11.12 64.107 45.27 64.107 33.75 0 43.37-36.865 43.37-64.107 0-26.429-9.22-63.023-42.56-63.023-33.07.135-46.08 35.374-46.08 63.023ZM1996.86 367.975c-18.84 10.301-40.26 15.722-67.91 15.722-65.32 0-103.27-37.678-103.27-102.464 0-57.195 30.36-104.496 91.75-104.496 73.33 0 94.06 50.283 94.06 119.405h-136.62c2.31 31.85 24.54 49.877 56.39 49.877 24.94 0 46.48-9.217 65.6-19.924v41.88Zm-34.57-107.207c-1.49-24.939-13.01-46.489-41.88-46.489-28.73 0-43.37 19.924-45.67 46.489h87.55ZM2183.49 356.861h-.82c-15.31 19.246-36.46 26.836-60.72 26.836-60.72 0-82.94-49.877-82.94-104.09 0-54.485 22.22-102.871 82.94-102.871 25.75 0 43.78 8.81 59.1 27.649h.81V91.079h51.5v288.01h-49.87v-22.228Zm-47.17-13.147c34.15 0 45.27-36.052 45.27-64.107 0-27.649-13.01-63.024-46.08-63.024-33.34 0-42.56 36.459-42.56 63.024 0 27.242 9.49 64.107 43.37 64.107ZM2287.58 96.094h51.5v49.199h-51.5v-49.2Zm0 85.251h51.5v197.744h-51.5V181.345ZM2401.97 191.781c19.92-9.217 46.89-14.909 68.71-14.909 60.31 0 85.25 24.938 85.25 83.353v25.345c0 19.924.41 34.968.82 49.47.4 14.909 1.08 28.733 2.3 44.184h-45.27c-1.9-10.301-1.9-23.447-2.3-29.546h-.82c-11.92 21.821-37.67 34.154-60.99 34.154-34.96 0-69.12-21.143-69.12-58.686 0-29.546 14.23-46.895 33.75-56.382 19.52-9.623 44.86-11.521 66.41-11.521h28.46c0-31.85-14.23-42.557-44.59-42.557-21.82 0-43.77 8.403-60.99 21.55l-1.62-44.455Zm60.31 154.237c15.72 0 28.05-6.912 36.05-17.619 8.4-11.114 10.71-25.345 10.71-40.66h-22.23c-23.04 0-57.2 3.795-57.2 34.154 0 16.942 14.24 24.125 32.67 24.125ZM515.469 0h-1.084c-6.099.678-129.435 12.198-148.139 18.162-8.267 2.575-21.414 9.758-15.722 29.275 1.898 6.506 10.03 20.601 17.349 33.206 1.084 1.897 2.033 3.524 2.575 4.472 14.502 25.481 9.894 43.642 4.201 56.654-11.385 26.158-36.187 35.509-55.704 35.509-11.521 0-22.905-3.117-31.851-8.674-27.92-17.484-37.814-41.744-30.359-74.137 3.795-17.484 5.286-30.088 4.472-38.627-.677-6.506-3.795-11.52-8.945-14.638-3.93-2.304-8.945-3.524-15.18-3.524-12.333 0-25.48 4.744-26.971 5.286L113.882 74.95c-3.388 1.084-5.964 3.253-7.454 6.1-.949 2.032-1.898 5.285-.407 9.622l25.616 76.848c5.828 17.348 4.201 24.803 1.897 28.055-1.897 2.711-5.828 4.067-11.384 4.067-1.356 0-2.711-.136-4.338-.272l-15.857-1.626-30.766-3.117c-1.898-.136-3.795-.271-5.693-.271-16.941 0-33.748 7.861-46.217 21.55C5.455 231.356-1.593 252.771.305 274.592c2.846 30.766 19.11 48.25 32.121 57.466 15.45 10.978 32.935 15.044 43.1 15.18h1.22c14.637 0 29.953-4.337 48.25-13.689 18.703-9.623 26.293-11.114 29.14-11.114h.542c10.436 1.085 10.165 23.177 10.165 23.312v.271l1.626 131.062v.542c1.084 8.538 7.048 11.52 11.927 11.52h1.084c6.099-.542 129.435-12.198 148.003-18.026 8.268-2.575 21.415-9.758 15.722-29.275-1.897-6.506-10.029-20.601-17.348-33.206-1.084-1.898-2.033-3.524-2.575-4.473-14.502-25.48-9.894-43.642-4.202-56.653 11.385-26.158 36.188-35.51 55.705-35.51 11.52 0 22.905 3.117 31.85 8.674 27.92 17.484 37.814 41.745 30.36 74.137-3.795 17.484-5.286 30.089-4.473 38.628.678 6.505 3.795 11.52 8.946 14.637 3.93 2.304 8.945 3.524 15.179 3.524 12.334 0 25.481-4.744 26.972-5.286l96.229-31.986c3.388-1.084 5.963-3.253 7.454-6.099.949-2.033 1.898-5.286.407-9.623l-25.616-76.847c-5.828-17.349-4.202-24.803-1.898-28.056 1.898-2.711 5.828-4.066 11.385-4.066 1.355 0 2.711.136 4.337.271l15.858 1.627 30.766 3.117c1.897.135 3.795.271 5.692.271 16.942 0 33.748-7.861 46.217-21.55 14.231-15.586 21.279-37.136 19.246-58.957-2.846-30.766-19.11-48.25-32.121-57.467-15.451-10.978-32.935-15.044-43.1-15.179h-1.22c-14.638 0-29.953 4.337-48.25 13.688-18.704 9.623-26.294 11.114-29.14 11.114h-.542c-10.436-1.084-10.165-23.176-10.165-23.312v-.271l-1.762-130.79v-.542C526.312 2.982 520.348 0 515.469 0Z" fill="currentColor" class="logo--color-bg"/><path d="M442.688 396.301c-.542 2.847-1.22 5.557-1.762 8.403 11.791.136 29.817-4.201 29.817-4.201l-26.022-33.07c1.084 9.487.135 19.245-2.033 28.868Z" fill="#fff"/><path d="M337.92 443.739c-2.304-7.726-16.129-30.496-19.517-36.459-15.586-27.514-10.436-47.979-4.473-61.804 2.169-5.014 4.744-9.351 7.726-13.417-10.978-35.51-6.235-74.002-6.235-74.002 1.898 27.784 14.502 48.521 22.363 59.093 22.092-14.096 51.503-13.689 71.833-.949 21.686 13.689 31.851 30.495 34.561 48.386l51.91 22.227 30.631-45.404-84.574-127.673c-6.234-15.993-3.794-35.781-3.794-35.781-3.253-1.084-33.206-17.212-59.635-31.579-18.298 38.221-65.734 45.133-94.739 26.971-21.278-13.282-31.308-29.682-34.425-47.166-9.759 5.557-20.195 12.741-31.038 21.415-16.399-20.601-37.407-50.012-55.84-83.083l-46.759 15.587c-3.659 1.22-5.692 4.201-4.201 8.539 0 0 1.22 3.794 3.253 9.758 26.158 30.766 54.891 57.195 76.441 74.95-7.997 8.539-15.858 18.026-23.177 28.462a759.954 759.954 0 0 1-26.564-14.637c0 11.52-5.828 19.652-24.125 17.89-13.012-1.355-42.016-4.337-46.624-4.743-4.066-.407-7.997-.272-11.927.271 33.07 14.908 65.734 25.887 90.13 32.663-5.557 10.707-10.572 22.092-14.773 34.155-32.393-2.033-79.965-7.726-125.505-20.872a72.287 72.287 0 0 0-2.71 27.784c1.355 15.451 6.37 27.513 13.146 37.001 39.576.949 77.797-2.711 104.904-6.777-1.627 8.132-2.846 16.535-3.795 25.209.678-.406 1.355-.677 2.168-1.084 13.012-6.641 26.023-12.198 32.8-11.656 16.264 1.627 15.315 29.276 15.315 29.276l1.626 131.061c.949 7.319 6.777 6.506 6.777 6.506s128.757-12.063 146.919-17.891c16.264-5.015 13.418-17.077 11.927-22.227ZM487.414 341.41l17.619 4.744-22.769 4.202-10.301-18.84 15.451 9.894Zm-82.54-136.482 12.469 11.927s-14.773 6.099-21.144 2.033c-6.37-4.202-16.67-26.972-16.67-26.972l25.345 13.012Z" fill="#fff"/><path d="M249.144 121.439c-.948-9.352 0-18.84 2.169-28.327 2.982-13.824 5.15-27.649 4.337-36.865-1.897-17.89-25.887-13.282-37.407-10.03 9.758 28.869 21.143 55.163 30.901 75.222Z" fill="#fff"/></svg>
