<svg xmlns="http://www.w3.org/2000/svg" viewBox="0 0 1893 362"><style>.st1{fill:#fff}</style><path class="st1" d="M0 67.2h38v212.5H0V67.2zM78.8 70.9h38v36.3h-38V70.9zm0 62.9h38v145.9h-38V133.8zM252.7 263h-.6c-13.3 16.1-26.6 20.1-42.8 20.1-45.6 0-62-36.8-62-76.8 0-40.2 16.4-75.9 62-75.9 21.5 0 35.4 9.1 44.5 24.1h.6v-20.7h36.3v205.4h-38V263zM187 206.3c0 20.1 7.1 47.3 32 47.3 25.2 0 33.4-26.6 33.4-47.3 0-20.4-9.6-46.5-34-46.5-24.6.1-31.4 27-31.4 46.5zM463.8 279.7h-36v-19.8h-.6c-11.6 14.2-28 23.2-47.9 23.2-34.6 0-49.6-24.4-49.6-57.2v-92.1h38v77.9c0 17.8.3 41.9 24.6 41.9 27.5 0 33.4-29.7 33.4-48.4v-71.4h38l.1 145.9zM503.7 70.9h38v36.3h-38V70.9zm0 62.9h38v145.9h-38V133.8zM581.6 133.8h36.3v20.7h.6c8.5-14.2 22.9-24.1 45.3-24.1 44.8 0 61.2 35.7 61.2 75.9 0 39.9-16.4 76.8-62 76.8-16.1 0-29.5-4-42.8-20.1h-.6v76.2h-38V133.8zm38.3 72.5c0 20.7 8.2 47.3 33.4 47.3 24.9 0 32-27.2 32-47.3 0-19.5-6.8-46.5-31.4-46.5-24.4.1-34 26.1-34 46.5zM871.7 271.5c-13.9 7.6-29.7 11.6-50.1 11.6-48.2 0-76.2-27.8-76.2-75.6 0-42.2 22.4-77.1 67.7-77.1 54.1 0 69.4 37.1 69.4 88.1H781.7c1.7 23.5 18.1 36.8 41.6 36.8 18.4 0 34.3-6.8 48.4-14.7v30.9zm-25.5-79.1c-1.1-18.4-9.6-34.3-30.9-34.3-21.2 0-32 14.7-33.7 34.3h64.6zM1009.4 263.3h-.6c-11.3 14.2-26.9 19.8-44.8 19.8-44.8 0-61.2-36.8-61.2-76.8 0-40.2 16.4-75.9 61.2-75.9 19 0 32.3 6.5 43.6 20.4h.6V67.2h38v212.5h-36.8v-16.4zm-34.8-9.7c25.2 0 33.4-26.6 33.4-47.3 0-20.4-9.6-46.5-34-46.5-24.6 0-31.4 26.9-31.4 46.5 0 20.1 7 47.3 32 47.3zM1086.2 70.9h38v36.3h-38V70.9zm0 62.9h38v145.9h-38V133.8zM1170.6 141.5c14.7-6.8 34.6-11 50.7-11 44.5 0 62.9 18.4 62.9 61.5v18.7c0 14.7.3 25.8.6 36.5.3 11 .8 21.2 1.7 32.6h-33.4c-1.4-7.6-1.4-17.3-1.7-21.8h-.6c-8.8 16.1-27.8 25.2-45 25.2-25.8 0-51-15.6-51-43.3 0-21.8 10.5-34.6 24.9-41.6 14.4-7.1 33.1-8.5 49-8.5h21c0-23.5-10.5-31.4-32.9-31.4-16.1 0-32.3 6.2-45 15.9l-1.2-32.8zm44.5 113.8c11.6 0 20.7-5.1 26.6-13 6.2-8.2 7.9-18.7 7.9-30h-16.4c-17 0-42.2 2.8-42.2 25.2 0 12.5 10.5 17.8 24.1 17.8z"/><g><path d="M1756.3 0h-.8c-4.5.5-95.5 9-109.3 13.4-6.1 1.9-15.8 7.2-11.6 21.6 1.4 4.8 7.4 15.2 12.8 24.5.8 1.4 1.5 2.6 1.9 3.3 10.7 18.8 7.3 32.2 3.1 41.8-8.4 19.3-26.7 26.2-41.1 26.2-8.5 0-16.9-2.3-23.5-6.4-20.6-12.9-27.9-30.8-22.4-54.7 2.8-12.9 3.9-22.2 3.3-28.5-.5-4.8-2.8-8.5-6.6-10.8-2.9-1.7-6.6-2.6-11.2-2.6-9.1 0-18.8 3.5-19.9 3.9l-71 23.6c-2.5.8-4.4 2.4-5.5 4.5-.7 1.5-1.4 3.9-.3 7.1l18.9 56.7c4.3 12.8 3.1 18.3 1.4 20.7-1.4 2-4.3 3-8.4 3-1 0-2-.1-3.2-.2l-11.7-1.2-22.7-2.3c-1.4-.1-2.8-.2-4.2-.2-12.5 0-24.9 5.8-34.1 15.9-10.2 11.4-15.4 27.2-14 43.3 2.1 22.7 14.1 35.6 23.7 42.4 11.4 8.1 24.3 11.1 31.8 11.2h.9c10.8 0 22.1-3.2 35.6-10.1 13.8-7.1 19.4-8.2 21.5-8.2h.4c7.7.8 7.5 17.1 7.5 17.2v.2l1.2 96.7v.4c.8 6.3 5.2 8.5 8.8 8.5h.8c4.5-.4 95.5-9 109.2-13.3 6.1-1.9 15.8-7.2 11.6-21.6-1.4-4.8-7.4-15.2-12.8-24.5-.8-1.4-1.5-2.6-1.9-3.3-10.7-18.8-7.3-32.2-3.1-41.8 8.4-19.3 26.7-26.2 41.1-26.2 8.5 0 16.9 2.3 23.5 6.4 20.6 12.9 27.9 30.8 22.4 54.7-2.8 12.9-3.9 22.2-3.3 28.5.5 4.8 2.8 8.5 6.6 10.8 2.9 1.7 6.6 2.6 11.2 2.6 9.1 0 18.8-3.5 19.9-3.9l71-23.6c2.5-.8 4.4-2.4 5.5-4.5.7-1.5 1.4-3.9.3-7.1l-18.9-56.7c-4.3-12.8-3.1-18.3-1.4-20.7 1.4-2 4.3-3 8.4-3 1 0 2 .1 3.2.2l11.7 1.2 22.7 2.3c1.4.1 2.8.2 4.2.2 12.5 0 24.9-5.8 34.1-15.9 10.5-11.5 15.7-27.4 14.2-43.5-2.1-22.7-14.1-35.6-23.7-42.4-11.4-8.1-24.3-11.1-31.8-11.2h-.9c-10.8 0-22.1 3.2-35.6 10.1-13.8 7.1-19.4 8.2-21.5 8.2h-.4c-7.7-.8-7.5-17.1-7.5-17.2v-.2L1765.1 9v-.4c-.8-6.4-5.2-8.6-8.8-8.6z" fill="#042b4c" stroke="#0c3c6a" stroke-width="7"/><path class="st1" d="M1702.6 292.4c-.4 2.1-.9 4.1-1.3 6.2 8.7.1 22-3.1 22-3.1l-19.2-24.4c.8 7 .1 14.2-1.5 21.3z"/><path class="st1" d="M1625.3 327.4c-1.7-5.7-11.9-22.5-14.4-26.9-11.5-20.3-7.7-35.4-3.3-45.6 1.6-3.7 3.5-6.9 5.7-9.9-8.1-26.2-4.6-54.6-4.6-54.6 1.4 20.5 10.7 35.8 16.5 43.6 16.3-10.4 38-10.1 53-.7 16 10.1 23.5 22.5 25.5 35.7l38.3 16.4 22.6-33.5-62.4-94.2c-4.6-11.8-2.8-26.4-2.8-26.4-2.4-.8-24.5-12.7-44-23.3-13.5 28.2-48.5 33.3-69.9 19.9-15.7-9.8-23.1-21.9-25.4-34.8-7.2 4.1-14.9 9.4-22.9 15.8-12.1-15.2-27.6-36.9-41.2-61.3l-34.5 11.5c-2.7.9-4.2 3.1-3.1 6.3 0 0 .9 2.8 2.4 7.2 19.3 22.7 40.5 42.2 56.4 55.3-5.9 6.3-11.7 13.3-17.1 21-5.9-3.1-12.5-6.7-19.6-10.8 0 8.5-4.3 14.5-17.8 13.2-9.6-1-31-3.2-34.4-3.5-3-.3-5.9-.2-8.8.2 24.4 11 48.5 19.1 66.5 24.1-4.1 7.9-7.8 16.3-10.9 25.2-23.9-1.5-59-5.7-92.6-15.4-1.9 6.3-2.7 13.3-2 20.5 1 11.4 4.7 20.3 9.7 27.3 29.2.7 57.4-2 77.4-5-1.2 6-2.1 12.2-2.8 18.6.5-.3 1-.5 1.6-.8 9.6-4.9 19.2-9 24.2-8.6 12 1.2 11.3 21.6 11.3 21.6l1.2 96.7c.7 5.4 5 4.8 5 4.8s95-8.9 108.4-13.2c12-3.7 9.9-12.6 8.8-16.4zm110.3-75.5l13 3.5-16.8 3.1-7.6-13.9 11.4 7.3zm-60.9-100.7l9.2 8.8s-10.9 4.5-15.6 1.5c-4.7-3.1-12.3-19.9-12.3-19.9l18.7 9.6z"/><path class="st1" d="M1559.8 89.6c-.7-6.9 0-13.9 1.6-20.9 2.2-10.2 3.8-20.4 3.2-27.2-1.4-13.2-19.1-9.8-27.6-7.4 7.2 21.3 15.6 40.7 22.8 55.5z"/></g></svg>