<svg width="1000" height="1000" viewBox="0 0 1000 1000" fill="none" xmlns="http://www.w3.org/2000/svg">
<path id="ageofempires" d="M1000 965H550.25V949.45C590.9 945.7 619.15 938.95 635.05 928.95C663.3 911.25 677.55 886.6 677.55 855.35C677.55 836.75 671.25 811.6 658.4 780.2L646.75 751.55L581.05 590.65H279.9L244.15 684.75L227.1 727.1C206.55 777.1 196.25 816.5 196.25 845.1C196.25 861.9 200 877.5 207.7 892.15C215.2 906.6 225.2 918.45 238.1 927.55C255.85 939.9 278.75 947.1 306.55 949.45V965.05H0V949.45C24.05 948.05 45.3 942.2 63.5 931.75C81.75 921.25 99.75 904.5 117 881.25C131.5 862.6 145.8 838.6 159.8 809.25C173.6 779.95 192.05 735.95 214.95 677.25L465.45 34H504.45L802.1 750.85C824.55 805.1 842.3 843.75 855.6 866.8C868.7 890.05 883.15 907.55 898.6 919.4C909.6 927.55 922.2 933.85 936.2 938.25C950.45 942.45 971.7 946.2 1000 949.45V965.05V965ZM570.1 562.75L426.4 209.3L290.9 562.75H570.1V562.75Z" fill="currentColor"/>
</svg>
