<svg width="1000" height="1000" viewBox="0 0 1000 1000" fill="none" xmlns="http://www.w3.org/2000/svg">
<g id="ageofempires">
<path fill-rule="evenodd" clip-rule="evenodd" d="M216.668 255.544c-6.504 7.434-26.483 46.461-44.138 87.347C118.171 467.405 63.812 588.668 56.379 600.748c-13.474 21.372-25.554 32.522-36.24 32.522C10.847 633.27 0 647.922 0 656.75c33.11.185 61.567.063 91.822-.067 20.723-.089 42.289-.182 66.77-.182l-6.504-10.222c-4.182-6.039-13.009-11.15-19.978-12.079-11.151-1.394-12.08-2.788-9.757-16.262 1.394-8.363 9.757-33.916 18.584-56.682l15.332-41.814H262.2l42.744 111.505-11.616 13.009-12.079 12.545H445.72l-7.434-11.615c-4.646-6.969-12.08-11.616-19.049-11.616-18.12 0-28.341-7.898-40.421-31.593-9.757-19.513-93.386-221.153-132.878-320.579C237.575 260.19 230.606 243 230.142 243c-.465 0-6.505 5.575-13.474 12.544Zm29.27 219.76c0 1.394-16.725 2.323-37.168 2.323-20.443 0-37.169-.465-37.169-.929 0-.465 6.505-17.191 14.403-37.169 1.796-4.543 3.617-9.159 5.39-13.655l.013-.033c6.019-15.262 11.494-29.145 13.646-34.167 3.717-10.221 6.04-6.969 22.766 34.846l1.273 3.335c9.2 24.092 16.846 44.116 16.846 45.449Z" fill="currentColor"/>
<path d="m841.568 261.584-127.302 2.323 11.15 9.756c6.04 5.576 17.191 11.616 25.554 13.474l1.226.257c5.298 1.107 9.461 1.976 12.709 4.19 11.929 8.133 11.492 34.406 9.45 157.191l-.155 9.338c-1.394 85.023-3.717 157.966-5.575 162.612-1.859 4.646-9.292 9.757-16.726 11.151-6.969 1.394-17.655 7.434-23.231 13.473L718.447 656.5h269.937l2.788-26.947c1.858-14.403 4.646-36.704 6.04-49.249l2.787-23.23-14.403 10.686c-8.362 5.575-14.867 14.403-14.867 19.049 0 4.646-5.575 13.009-12.08 18.12-10.221 7.898-19.049 9.756-47.854 9.756-21.837 0-39.027-2.323-43.209-6.04-6.04-4.646-7.898-18.119-9.292-74.801l-1.394-68.762 19.514 2.323c23.695 2.323 33.916 9.757 33.916 24.624 0 10.221 16.261 24.16 21.837 18.584 1.393-1.394 4.646-21.836 6.504-45.531 2.788-34.381 2.323-44.603-2.788-49.713-6.039-6.04-7.898-5.576-15.332.929-6.039 5.575-16.725 7.898-37.168 7.898h-28.806V302.004l42.279 2.788c44.603 2.788 55.289 7.434 55.289 24.16 0 6.04 4.646 13.938 11.15 18.119 11.151 6.969 11.616 6.969 13.939-5.575 1.393-6.969 3.716-26.947 5.575-44.602 2.323-24.624 1.394-32.523-3.252-35.775-3.717-2.323-7.434-3.717-8.828-3.252-1.394.929-59.47 2.323-129.161 3.717Z" fill="currentColor"/>
<path fill-rule="evenodd" clip-rule="evenodd" d="M398.332 510.612c-28.341-92.457 26.018-187.701 118.939-207.215 10.222-2.323 34.846-3.252 54.359-2.323 90.134 5.111 146.352 56.683 151.927 140.776 6.969 105.002-62.257 177.481-168.188 177.481-33.452 0-66.927-4.998-75.274-12.541-10.19-4.87-27.313-15.005-41.561-28.161-10.725-4.802-30.445-35.959-40.202-68.017Zm247.511-104.273c-.682-7.107-1.696-17.68-7.309-26.746-2.057-3.183-3.848-6.366-5.602-9.483-8.816-15.668-16.676-29.635-52.474-33.261-6.366-1.854-60.864.929-72.014 6.969-22.778 13.455-40.853 35.988-44.405 56.397-2.561 3.414-2.544 21.964-2.524 43.686.002 1.927.003 3.879.003 5.848.465 34.381 2.788 46.461 12.545 67.368 21.836 45.996 49.713 65.045 97.103 65.045 33.916 0 52.965-12.08 69.226-44.138 10.686-19.978 12.08-28.341 11.616-67.368 0-24.159-3.54-49.963-5.181-57.611-.475-1.399-.701-3.753-.984-6.706Z" fill="currentColor"/>
</g>
</svg>
