<svg width="1000" height="1000" viewBox="0 0 1000 1000" fill="none" xmlns="http://www.w3.org/2000/svg">
<path fill-rule="evenodd" clip-rule="evenodd" d="M500 0C486.739 0 474.021 5.26784 464.645 14.6447C455.268 24.0215 450 36.7392 450 50V103.1C361.88 114.229 279.967 154.357 217.162 217.162C154.357 279.967 114.229 361.88 103.1 450H50C36.7392 450 24.0215 455.268 14.6447 464.645C5.26784 474.021 0 486.739 0 500C0 513.261 5.26784 525.979 14.6447 535.355C24.0215 544.732 36.7392 550 50 550H103.1C114.229 638.12 154.357 720.033 217.162 782.838C279.967 845.643 361.88 885.771 450 896.9V950C450 963.261 455.268 975.979 464.645 985.355C474.021 994.732 486.739 1000 500 1000C513.261 1000 525.979 994.732 535.355 985.355C544.732 975.979 550 963.261 550 950V896.9C638.12 885.771 720.033 845.643 782.838 782.838C845.643 720.033 885.771 638.12 896.9 550H950C963.261 550 975.979 544.732 985.355 535.355C994.732 525.979 1000 513.261 1000 500C1000 486.739 994.732 474.021 985.355 464.645C975.979 455.268 963.261 450 950 450H896.9C885.771 361.88 845.643 279.967 782.838 217.162C720.033 154.357 638.12 114.229 550 103.1V50C550 36.7392 544.732 24.0215 535.355 14.6447C525.979 5.26784 513.261 0 500 0V0ZM178.8 450C189.431 381.889 221.428 318.917 270.173 270.173C318.917 221.428 381.889 189.431 450 178.8V225C450 238.261 455.268 250.979 464.645 260.355C474.021 269.732 486.739 275 500 275C513.261 275 525.979 269.732 535.355 260.355C544.732 250.979 550 238.261 550 225V178.8C618.102 189.441 681.062 221.442 729.797 270.186C778.532 318.93 810.522 381.896 821.15 450H775C761.739 450 749.021 455.268 739.645 464.645C730.268 474.021 725 486.739 725 500C725 513.261 730.268 525.979 739.645 535.355C749.021 544.732 761.739 550 775 550H821.15C810.522 618.104 778.532 681.07 729.797 729.814C681.062 778.558 618.102 810.559 550 821.2V775C550 761.739 544.732 749.021 535.355 739.645C525.979 730.268 513.261 725 500 725C486.739 725 474.021 730.268 464.645 739.645C455.268 749.021 450 761.739 450 775V821.2C381.889 810.569 318.917 778.572 270.173 729.827C221.428 681.083 189.431 618.111 178.8 550H225C238.261 550 250.979 544.732 260.355 535.355C269.732 525.979 275 513.261 275 500C275 486.739 269.732 474.021 260.355 464.645C250.979 455.268 238.261 450 225 450H178.8ZM650 500C650 539.782 634.196 577.936 606.066 606.066C577.936 634.196 539.782 650 500 650C460.218 650 422.064 634.196 393.934 606.066C365.804 577.936 350 539.782 350 500C350 460.218 365.804 422.064 393.934 393.934C422.064 365.804 460.218 350 500 350C539.782 350 577.936 365.804 606.066 393.934C634.196 422.064 650 460.218 650 500V500ZM575 500C575 519.891 567.098 538.968 553.033 553.033C538.968 567.098 519.891 575 500 575C480.109 575 461.032 567.098 446.967 553.033C432.902 538.968 425 519.891 425 500C425 480.109 432.902 461.032 446.967 446.967C461.032 432.902 480.109 425 500 425C519.891 425 538.968 432.902 553.033 446.967C567.098 461.032 575 480.109 575 500Z" fill="#fff"/>
</svg>
