<svg width="1000" height="1000" viewBox="0 0 1000 1000" fill="none" xmlns="http://www.w3.org/2000/svg">
<path id="autochess" d="M448.383 27.279C479.184 11.5788 501.084 4.7787 534.634 0.578636C547.635 -1.12139 574.835 1.17864 577.835 4.17869C578.835 5.0787 576.235 8.37875 566.135 18.9789C559.035 26.479 553.535 32.8791 553.835 33.2791C554.235 33.5791 560.835 33.8791 568.535 33.8791C601.485 33.9791 650.086 39.3792 680.736 46.5793C695.837 50.0793 714.337 55.2794 726.587 59.3795C740.887 64.2795 741.287 64.4795 741.187 66.2296C741.187 66.9296 722.287 76.8297 699.037 88.4299C675.936 99.93 656.836 110.03 656.536 110.63C656.236 111.33 660.436 117.43 665.936 124.13C698.547 164.892 727.794 208.235 753.387 253.732C775.388 293.083 784.488 314.283 802.338 367.134C816.838 410.234 838.339 483.886 838.339 490.486C838.339 494.486 837.039 496.336 814.838 524.236C801.838 540.436 790.488 554.237 789.488 554.837C788.288 555.537 777.088 555.437 750.787 554.436C730.487 553.736 712.787 552.937 711.637 552.637C710.137 552.436 707.937 549.536 704.737 543.836C697.232 530.29 686.03 519.156 672.436 511.736C662.636 506.836 656.336 505.336 639.286 503.736C618.675 502.04 598.504 496.85 579.635 488.386C557.668 479.007 536.412 468.045 516.034 455.585C512.335 453.306 508.549 451.171 504.684 449.185C503.084 449.185 504.584 451.785 509.884 458.485C513.234 462.385 521.034 472.185 527.334 480.185C549.235 507.936 561.435 522.136 589.785 553.236C612.185 577.887 630.386 596.387 653.686 618.287C674.836 638.088 675.686 638.888 698.337 657.788C738.837 691.638 779.688 719.589 803.838 730.089C808.238 731.989 808.938 732.689 809.638 736.089C810.938 741.989 809.738 803.94 807.938 822.94C804.05 866.651 798.63 910.211 791.688 953.542C788.388 974.742 785.388 994.543 785.088 997.543C784.788 999.893 784.488 1000.04 779.288 999.993C776.288 999.993 651.586 999.793 502.284 999.693L230.78 999.593L199.48 874.191C198.977 869.029 198.074 863.913 196.78 858.891C192.748 840.304 189.114 821.632 185.879 802.89L181.979 780.39C180.666 772.746 179.499 765.078 178.479 757.389C175.879 738.589 174.779 732.989 173.079 730.389C165.929 690.388 162.279 604.637 161.379 566.737L161.079 549.236C160.479 517.636 163.379 456.285 166.879 425.235C167.279 420.485 167.179 418.985 167.479 415.435C169.679 388.434 217.58 314.133 241.23 280.383C241.33 280.883 251.83 267.632 264.431 250.932L302.431 200.481L363.482 119.48L415.333 50.5793C422.233 41.3792 426.433 38.4792 448.333 27.279H448.383Z" fill="currentColor"/>
</svg>
