<svg width="1000" height="1000" viewBox="0 0 1000 1000" fill="none" xmlns="http://www.w3.org/2000/svg">
<path d="M321.268 0H425.618C426.635 141.866 426.718 283.731 426.718 425.6C404.978 426.273 327.971 440.055 315.768 421.75C313.018 417.9 311.368 369.6 311.368 314.65V214.15C325.538 223.597 351.407 237.184 324.568 211.95C302.211 190.702 310.818 149.287 310.818 120.8H294.318C255.494 120.8 312.53 20.335 321.268 0Z" fill="#fff"/>
<path fill-rule="evenodd" clip-rule="evenodd" d="M465.675 114.8C467.325 18.6997 470.075 8.79967 493.675 3.29967C534.964 -3.58189 580.024 3.10648 621.925 4.09967C653.075 4.89967 677.875 5.49967 683.175 5.49967C690.825 5.49967 694.175 7.69967 691.925 11.4997C686.491 22.5316 727.282 9.73798 719.925 21.9997C715.175 29.1793 693.07 18.2354 696.325 27.9997C700.487 40.6141 734.107 35.6997 744.675 35.6997L743.575 221.85C743.025 395.35 742.475 408.55 733.125 417.9C723.775 427.25 712.275 428.35 610.625 428.35C505.775 428.35 498.125 427.8 484.375 416.85C455.5 393.75 470.075 325.674 470.075 291.05H585.425C585.425 303.479 591.998 340.5 574.425 340.5C560.571 340.5 561.381 353.571 576.075 349.25C593.321 344.938 611.686 345.95 629.325 345.95V258.1C586.197 258.1 538.538 263.115 496.475 252.6C467.375 244.4 462.975 226.25 465.725 114.8H465.675ZM632.075 170.8C628.775 167.5 627.675 149.35 629.325 126.85L632.075 88.9497C622.316 88.0607 586.313 80.0941 581.575 91.1497C580.475 94.4497 579.925 114.25 581.025 135.1L582.675 173L610.125 174.65C628.775 175.75 635.875 174.65 632.075 170.8Z" fill="#fff"/>
<path d="M206.481 538.149C213.178 538.305 254.656 537.802 242.181 543.699C224.347 550.995 641.401 556.86 647.481 541.999C651.813 531.167 785.102 562.625 810.581 541.999C818.231 535.999 819.331 522.249 816.581 456.899C814.444 435.743 279.634 450.299 206.481 450.299V538.149Z" fill="#fff"/>
<path fill-rule="evenodd" clip-rule="evenodd" d="M202.131 897.3C205.931 851.2 302.631 586.5 318.531 578.3C336.081 569.45 433.281 569.45 430.531 577.7C371.231 752.9 351.481 802.3 339.931 805.05C326.231 808.9 323.431 816.05 334.431 819.9C341.015 822.369 318.185 836.959 326.781 847.9C341.851 865.985 426.096 860.486 365.731 844.6V780.9C390.407 779.709 453.224 764.783 470.531 783.1C486.654 799.991 462.657 864.489 501.781 858.9C511.231 857.8 518.281 836.55 563.981 708.95C580.588 662.979 597.005 616.936 613.981 571.1H677.131C735.331 571.1 740.281 571.65 736.431 580.45C701.264 668.368 674.664 759.425 637.581 846.8C634.281 855.55 637.081 856.7 660.081 856.7C683.731 856.1 685.931 855.55 677.681 849C660.564 836.773 667.781 798.562 667.781 779.8H783.081C783.081 792.01 790.369 837.376 772.081 821C750.401 801.126 777.939 835.308 780.381 839.65C784.781 848.45 794.081 856.65 800.681 858.3C812.002 860.042 750.17 864.215 771.031 871.5C772.937 872.453 788.631 903.622 788.631 881.4C788.631 877 792.431 873.15 796.831 873.15C803.981 873.15 804.531 875.35 799.581 884.15C796.281 890.15 788.581 895.15 782.581 895.15C776.531 895.15 773.231 897.85 774.881 900.65C777.081 903.9 782.531 905 787.481 903.9C800.681 899.5 808.931 906.65 813.331 924.2C817.131 937.95 816.031 939.05 800.131 939.05C793.231 939.05 789.131 939.05 786.681 941.05C776.595 949.454 783.081 986.823 783.081 999.45H738.081C678.122 999.45 667.781 993.719 667.781 939.05H481.631L478.331 996.7L365.731 1000V939C343.983 939 211.981 946.292 211.981 930.25C211.981 922.425 200.666 917.762 202.131 897.35V897.3Z" fill="#fff"/>
</svg>
