<svg width="1000" height="1000" viewBox="0 0 1000 1000" fill="none" xmlns="http://www.w3.org/2000/svg">
<g id="battlerite">
<path d="M253.844 540.132C239.439 618.787 292.878 685.286 373.135 665.123C413.07 654.883 439.729 628.931 428.381 586.479C420.132 552.181 374.385 496.985 344.587 484.286C293.961 462.419 263.421 490.868 253.844 540.132ZM574.971 604.877C579.421 575.029 626.367 522.983 667.614 502.034C722.811 473.536 749.459 490.635 753.258 556.631C757.058 616.276 742.509 650.574 705.662 667.073C660.774 686.992 563.812 670.072 574.971 604.877Z" fill="currentColor"/>
<path fill-rule="evenodd" clip-rule="evenodd" d="M551.466 0.0695705C606.062 -1.8303 738.653 35.6171 760.251 59.0654C766.601 66.0649 795.149 102.912 822.447 140.96C878.359 217.642 929.062 329.635 934.539 426.09C939.713 520.726 881.493 608.66 881.493 701.32C881.493 702.57 867.494 712.769 850.345 722.919C790.935 759.603 777.688 823.938 751.352 882.807C739.324 911.506 663.56 977.952 628.91 957.052C597.575 936.984 543.314 1023.56 514.019 986.9C506.419 978.001 503.869 978.001 486.72 990.05C433.099 1029.65 411.765 937.619 365.529 946.903C304.308 962.792 253.527 861.843 240.538 816.812C224.039 760.316 199.891 732.418 140.895 701.32C104.697 681.672 104.097 681.022 95.8479 643.574C83.6664 578.708 66 507.25 66 441.139C66 380.193 67.8999 373.243 96.4979 297.699C135.195 194.906 175.142 132.11 231.638 85.7136C285.585 41.3667 325.482 21.718 381.378 11.5188C427.832 2.98386 503.044 0.0695705 551.466 0.0695705ZM725.367 103.512C685.445 86.6813 645.726 69.2935 605.412 53.4158C517.216 25.4305 445.687 190.485 425.455 252.672C418.083 275.33 472.81 306.116 493.07 313.598C521.877 325.738 609.352 289.758 592.113 248.202C584.696 230.543 518.36 207.115 538.767 193.656C617.441 140.63 788.639 282.41 721.554 359.294C689.125 403.884 591.486 443.493 544.466 471.586C525.88 482.283 503.145 482.858 484.042 473.115C429.154 445.12 376.278 413.784 322.826 383.19C293.548 366.433 275.485 335.282 275.485 301.548C276.027 274.616 284.985 248.625 284.985 222.854C284.985 208.855 337.681 112.412 359.879 86.3635C379.824 63.553 259.22 122.885 222.139 183.507C175.502 258.94 117.086 381.002 137.145 473.486C144.108 505.89 149.899 653.074 173.292 653.074C190.441 653.074 239.288 691.171 258.286 719.719C274.323 744.026 343.179 803.976 372.578 778.115C395.532 755.162 438.926 763.701 460.772 780.665C523.076 825.699 546.655 750.716 607.962 783.165C625.111 792.064 628.96 790.814 675.907 771.165C728.029 748.094 745.642 699.609 793.899 674.672C860.913 640.119 853.78 544.531 867.05 478.677C881.868 405.145 830.746 362.758 830.746 304.698C830.746 233.297 762.76 161.931 725.423 103.543L725.367 103.512ZM482.921 870.758C481.021 840.91 477.871 835.861 453.123 814.912C433.884 799.711 409.44 794.385 390.927 810.463C372.843 827.226 385.3 864.692 394.077 884.057C402.326 899.306 451.223 951.353 457.572 951.353C470.222 951.353 485.471 902.506 482.921 870.758ZM644.144 888.487C652.439 902.403 709.46 840.893 719.604 806.663C727.628 778.738 670.737 814.947 655.201 822.716C634.35 833.141 630.239 870.318 644.144 888.487ZM303.983 828.261C303.983 840.91 322.982 864.409 350.98 887.257C395.735 920.497 303.983 736.025 303.983 828.261ZM613.012 858.059C616.211 826.961 615.561 826.361 594.613 813.012C566.212 796.017 560.192 798.734 536.867 823.162C511.316 849.308 520.271 951.111 554.016 920.255C561.615 913.255 574.314 906.956 581.314 906.956C599.713 906.956 608.562 893.607 613.012 858.059Z" fill="currentColor"/>
</g>
</svg>
