<svg width="1000" height="1000" viewBox="0 0 1000 1000" fill="none" xmlns="http://www.w3.org/2000/svg"><path fill-rule="evenodd" clip-rule="evenodd" d="M474 29 97 992c-2 5 4 10 9 7 226-100 326-132 460-205 113-62 170-101 214-249 42-144 0-154-51-169 51-10 95-45 131-127 26-61 60-166 34-207C863-5 770 0 691 0L491 16c-8 1-14 6-17 13Zm54 299c53-12 171-43 177-105 7-67-24-67-51-66h-12c-29 0-52 0-69 44-17 47-38 103-45 127ZM395 693c57-25 179-68 200-148 16-59-17-59-45-59h-11c-29 0-63 0-76 34-5 15-18 39-26 61-19 48-37 95-42 112Z" fill="#fff"/></svg>
