<svg width="1000" height="1000" viewBox="0 0 1000 1000" fill="none" xmlns="http://www.w3.org/2000/svg">
<g id="brawlstars">
<path d="M535.696 195.8C549.696 248.15 496.746 307.8 417.446 329.05C338.096 350.3 262.396 325.15 248.346 272.8C234.346 220.45 287.346 160.8 366.646 139.55C445.996 118.3 521.646 143.45 535.696 195.8ZM456.696 372.35C454.671 368.65 451.928 365.392 448.626 362.767C445.324 360.143 441.531 358.205 437.47 357.067C433.409 355.929 429.161 355.614 424.976 356.141C420.792 356.669 416.754 358.027 413.102 360.136C409.45 362.245 406.256 365.064 403.708 368.425C401.16 371.786 399.31 375.623 398.266 379.709C397.222 383.796 397.006 388.05 397.629 392.221C398.252 396.392 399.703 400.397 401.896 404L437.646 465.9C439.671 469.6 442.415 472.858 445.716 475.482C449.018 478.107 452.811 480.045 456.872 481.183C460.934 482.321 465.181 482.635 469.366 482.108C473.551 481.581 477.588 480.223 481.24 478.114C484.892 476.004 488.086 473.186 490.634 469.825C493.182 466.464 495.032 462.627 496.076 458.541C497.12 454.454 497.337 450.2 496.713 446.029C496.09 441.857 494.639 437.853 492.446 434.25L456.696 372.35ZM303.796 645.55C320.63 645.885 337.361 642.858 353.011 636.647C368.661 630.436 382.914 621.166 394.938 609.38C406.961 597.593 416.512 583.526 423.033 568.003C429.553 552.48 432.912 535.812 432.912 518.975C432.912 502.138 429.553 485.47 423.033 469.947C416.512 454.423 406.961 440.357 394.938 428.57C382.914 416.783 368.661 407.513 353.011 401.303C337.361 395.092 320.63 392.065 303.796 392.4C270.662 393.058 239.107 406.683 215.907 430.349C192.707 454.015 179.712 485.834 179.712 518.975C179.712 552.116 192.707 583.935 215.907 607.601C239.107 631.266 270.662 644.891 303.796 645.55ZM794.296 623.4C794.631 640.234 791.604 656.965 785.393 672.615C779.183 688.264 769.913 702.518 758.126 714.541C746.339 726.565 732.273 736.116 716.749 742.637C701.226 749.157 684.558 752.516 667.721 752.516C650.884 752.516 634.216 749.157 618.693 742.637C603.17 736.116 589.103 726.565 577.316 714.541C565.53 702.518 556.26 688.264 550.049 672.615C543.838 656.965 540.811 640.234 541.146 623.4C541.805 590.266 555.43 558.711 579.095 535.511C602.761 512.311 634.58 499.316 667.721 499.316C700.862 499.316 732.681 512.311 756.347 535.511C780.013 558.711 793.637 590.266 794.296 623.4ZM501.596 729.45L381.346 694.6L471.496 612.35L501.596 729.45Z" fill="currentColor"/>
<path d="M534.788 495.75C530.603 488.482 529.474 479.85 531.649 471.75C533.824 463.65 539.125 456.745 546.388 452.55L608.288 416.8C615.541 412.831 624.059 411.858 632.02 414.089C639.981 416.319 646.754 421.576 650.889 428.736C655.024 435.895 656.193 444.389 654.147 452.399C652.1 460.41 647 467.301 639.938 471.6L578.038 507.35C574.437 509.43 570.461 510.78 566.338 511.323C562.215 511.865 558.026 511.59 554.009 510.513C549.992 509.436 546.228 507.577 542.93 505.044C539.631 502.511 536.865 499.353 534.788 495.75Z" fill="currentColor"/>
<path fill-rule="evenodd" clip-rule="evenodd" d="M1000 500C1000 776.15 776.15 1000 500 1000C223.85 1000 0 776.15 0 500C0 223.85 223.85 0 500 0C776.15 0 1000 223.85 1000 500ZM631.6 826.65C790 810.65 876.25 707.25 914.05 566.15C966.35 371 831.55 161.25 609.05 101.65C386.5 42 160.5 155 108.2 350.25C71.7 486.7 100.6 617.5 216.55 709.4L204.55 754.05C200.64 768.65 202.69 784.205 210.247 797.295C217.804 810.384 230.251 819.936 244.85 823.85L551.35 905.95C565.943 909.845 581.485 907.788 594.563 900.232C607.641 892.676 617.186 880.238 621.1 865.65L631.55 826.65H631.6Z" fill="currentColor"/>
</g>
</svg>
