<svg width="1000" height="1000" viewBox="0 0 1000 1000" fill="none" xmlns="http://www.w3.org/2000/svg">
<path id="callofduty" d="M495.978 0C554.101 4.88884e-06 638.956 12.1549 703.971 42.5088H704.871C753.181 63.3319 792.182 101.141 814.494 148.781C834.548 212.794 842.9 279.808 839.099 346.822V437.841H552.44V271.206C554.702 240.552 551.623 209.737 543.338 180.137C538.916 173.634 532.753 168.506 525.554 165.34C518.356 162.174 510.411 161.098 502.629 162.234C478.975 162.234 464.071 169.485 457.67 184.088C449.379 214.935 446.202 246.933 448.268 278.808V725.2C446.268 755.856 449.468 786.713 457.67 816.319C461.824 823.782 468.145 829.809 475.798 833.604C483.45 837.399 492.074 838.783 500.529 837.573C508.883 838.726 517.389 837.274 524.889 833.417C532.388 829.56 538.516 823.485 542.438 816.019C551.39 783.412 554.79 749.505 552.44 715.798V594.323H838.799V631.681C842.441 702.889 834.228 774.208 814.494 842.724C792.902 890.763 755.207 929.75 707.922 952.947C645.161 985.848 574.956 1001.96 504.13 999.707C432.808 1002.21 361.838 988.624 296.487 959.949C247.419 938.984 208.515 899.631 188.114 850.326C167.33 781.486 158.385 709.617 161.659 637.782V357.974C160.659 306.113 163.409 254.253 169.861 202.792C176.472 165.632 193.304 131.049 218.471 102.921C248.863 68.6676 287.513 42.7578 330.744 27.6557C383.654 8.29425 442.072 3.99454e-06 496.028 0H495.978Z" fill="currentColor"/>
</svg>
