<svg width="1000" height="1000" viewBox="0 0 1000 1000" fill="none" xmlns="http://www.w3.org/2000/svg">
	<path id="chess"  d="M452.8,5.8c-7.9,2.9-20,5.8-26.3,5.8c-12.1,0.4-12.1,0.4-9.2,22.1c1.7,12.1,10.4,41.7,19.2,65.8
		c16.3,43.8,16.3,43.8,7.1,50.8c-5.4,4.2-11.3,6.7-13.8,5.8c-7.9-2.1-58.8-68.8-70.4-91.7c-6.7-12.9-12.1-23.3-12.5-23.3
		c0,0-10.8,3.8-23.3,8.3c-12.5,5-25.4,9.6-28.3,10.4c-7.9,2.9,34.2,62.5,70.4,98.8c30.4,30.4,31.7,32.5,24.6,38.8
		c-5.8,5-11.7,6.3-21.7,4.2c-20.8-4.6-133.8-70-152.9-88.8c-9.2-8.8-10.8-1.3-9.6,40c1.3,38.3,1.3,38.3,39.6,56.7
		c21.3,10,51.7,22.5,67.5,27.5c16.3,5.4,30.8,11.3,32.9,12.9c2.1,1.7,0.8,9.6-3.3,17.9c-6.7,14.6-7.5,14.6-26.7,12.5
		c-10.8-1.3-37.5-6.3-59.2-10.8c-49.2-10.4-49.6-10.4-49.6-6.7c-0.4,2.1-0.4,12.5-0.4,23.8c0,20.4,0,20.4,28.3,27.1
		c15.4,3.8,40,7.5,55,8.3c26.7,2.1,27.1,2.1,25.8,13.8c-0.8,6.3-3.8,13.8-6.3,16.7c-5,5-48.3,13.3-80,15.4
		c-18.3,1.7-18.3,0.8-12.9,36.7c2.5,16.7,5.4,24.2,9.6,24.2c9.2,0,60.8-12.5,68.3-16.7c8.8-4.6,12.1-1.3,12.1,10.4
		c0,7.1-7.5,14.2-30,28.8c-16.7,10.4-33.8,19.2-37.5,19.2c-4.2,0-7.5,2.9-7.5,6.3c0,9.2,25,56.3,30,56.3c2.1,0,11.7-5.4,21.7-12.1
		c25.4-17.5,33.3-17.9,35-2.1c0.8,10.4-1.7,15.4-16.3,28.8c-16.7,15-17.1,16.3-9.6,21.7c4.2,2.9,17.1,14.2,29.2,24.2
		c20.8,18.3,21.3,19.6,31.3,62.1c9.6,42.9,9.6,42.9,28.8,46.7c20.8,4.2,25.4,14.2,8.3,18.3c-9.6,2.1-10.8,4.6-8.8,16.3
		c0,2.1,4.6,4.6,10,5.4c8.8,1.3,9.2,3.3,10.4,37.9c1.3,37.1,1.3,37.1-15.8,55.4c-18.3,19.6-20,26.7-10.4,45c7.9,15,7.9,14.6-4.2,19.2
		c-9.6,3.8-10,5.4-11.3,46.7c-1.3,42.5-1.3,42.9-11.7,42.9c-5.8,0-10.4,2.5-10.4,5.4c0,4.6,37.5,5.4,193.8,5.4s193.8-0.8,193.8-5.4
		c0-3.3-5-5.4-12.5-5.4c-12.5,0-12.5,0-14.6-39.2c-2.1-36.7-2.9-39.2-14.6-48.3c-10.8-9.2-11.7-10.8-7.1-20.8
		c7.9-17.1,5.8-25.4-9.6-42.1c-14.6-15.4-14.6-15.4-14.6-54.6c0-37.9,0.4-39.2,10.4-42.9c12.5-4.6,13.8-16.7,2.1-19.6
		c-13.8-3.8-9.6-13.3,7.5-15.8c57.1-9.2,72.1-12.1,91.7-17.9c15.8-4.6,21.7-8.8,21.7-14.2c0-4.2-1.7-7.5-3.8-7.5
		s-15.8-15.4-30.4-34.6c-116.3-150-142.1-180.4-160-189.6c-33.3-17.1-51.7-54.2-51.7-105c0-25.4,5.4-29.6,11.7-9.2
		c9.6,30.8,19.2,40.8,50.8,53.3c28.3,10.8,30.4,12.9,41.7,34.6c6.3,12.9,13.8,31.3,16.7,40.8c5,16.3,6.3,17.1,23.8,18.8
		c25,2.1,28.3-1.3,15.8-15.8c-10.4-12.1-17.1-25.8-13.8-29.2c0.8-0.8,11.7,5,23.8,12.9c12.1,7.9,24.2,14.6,26.7,14.2
		c2.9,0,13.3-10.4,23.8-23.3c18.3-23.8,18.3-23.8-22.1-102.9c-32.9-64.6-40.8-83.3-41.7-100c-0.8-20.4-0.8-20.4-50.8-55.4
		c-27.5-19.2-50.4-36.7-51.3-38.3c-0.8-2.1,3.3-10.4,9.2-19.2c5.8-8.3,11.7-22.1,13.3-30c3.3-17.1-4.6-47.1-12.1-46.7
		c-2.9,0-19.6,16.7-37.1,37.1c-25.4,29.2-35,37.1-45.8,38.8c-7.5,0.8-15.8,0-18.8-2.1c-7.9-6.3-18.8-48.3-20.8-83.8
		C480.8-3.8,479.9-4.6,452.8,5.8z" fill="currentColor"/>
</svg>