<svg width="1000" height="1000" viewBox="0 0 1000 1000" fill="none" xmlns="http://www.w3.org/2000/svg">
<path fill-rule="evenodd" clip-rule="evenodd" d="M367.306 93.5721C365.705 95.1716 366.678 97.632 374.288 111.227C378.562 118.866 388.223 136.381 395.755 150.15C403.287 163.921 409.972 175.826 410.61 176.607C411.249 177.387 427.876 186.546 447.557 196.959C467.24 207.373 485.647 217.201 488.461 218.8C493.094 221.433 495.653 225.15 515.445 258.013C527.47 277.98 537.305 295.26 537.299 296.41C537.283 299.366 530.605 310.657 528.118 311.933C525.909 313.065 520.612 313.549 480.378 316.296C394.871 322.134 403.41 321.231 395.721 325.241C391.888 327.24 387.988 328.583 387.054 328.225C386.121 327.867 374.846 320.274 362 311.353C338.473 295.014 329.918 289.087 295.673 265.408C285.385 258.294 266.662 245.307 254.067 236.549L231.169 220.626L233.256 217.471C247.987 195.217 257.178 180.15 256.73 178.989C256.426 178.203 249.265 173.929 240.816 169.492C224.069 160.696 224.773 160.774 216.477 166.81C214.52 168.234 210.816 170.674 208.247 172.232L203.575 175.066L209.217 164.718C212.32 159.027 214.689 153.652 214.482 152.773C213.956 150.546 174.21 118.946 171.879 118.902C170.717 118.881 164.839 126.66 156.711 138.982C149.413 150.046 143.004 159.368 142.469 159.698C141.934 160.029 137.285 157.389 132.137 153.834C126.989 150.279 121.915 147.359 120.861 147.346C114.97 147.276 108.486 157.469 109.838 164.674L110.623 168.856L105.432 168.147C102.577 167.757 95.7048 166.939 90.1599 166.331C84.615 165.721 71.0048 164.15 59.915 162.839C48.8252 161.527 34.6813 159.897 28.484 159.216C22.2868 158.535 15.761 157.675 13.9807 157.305C9.21153 156.314 5.94034 157.722 6.00083 160.742C6.03878 162.594 8.65407 165.163 15.1929 169.769C20.2195 173.311 40.6793 187.808 60.6587 201.986L96.9858 227.763L106.323 228.443C111.458 228.817 134.341 229.989 157.173 231.046C185.65 232.366 199.244 233.426 200.465 234.425C202.399 236.007 236.486 259.047 292.386 296.556C368.014 347.301 372.472 350.472 371.807 353.044C369.642 361.428 367.57 385.938 365.892 423.001C364.831 446.478 363.482 474.757 362.895 485.843C361.192 518.054 361.514 567.044 363.516 580.322C370.524 626.799 395.519 685.504 424.579 723.735C441.31 745.746 484.216 789.941 515.381 817.265C551.863 849.25 587.837 874.72 620.335 891.576C633.103 898.199 650.613 906.03 656.901 907.932C661.048 909.185 701.116 892.882 733.012 876.961C798.603 844.222 847.855 808.57 896.34 758.737C918.413 736.051 924.461 728.875 934.972 712.906C943.811 699.478 962.362 662.73 969.99 643.542C984.992 605.8 989.791 583.327 991.51 542.757C994.111 481.343 995.31 433.975 994.932 407.586C994.558 381.45 994.421 380.068 991.634 374.387C987.147 365.238 975.507 354.277 965.247 349.542C954.952 344.791 945.325 342.946 887.384 334.618C864.327 331.304 844.235 328.125 842.735 327.555C840.992 326.893 838.139 322.991 834.841 316.761C822.626 293.684 809.674 287.014 766.018 281.319C699.213 272.603 638.418 269.787 597.784 273.526C587.665 274.456 575.777 275.883 571.367 276.695C566.452 277.6 562.941 277.746 562.296 277.072C560.842 275.554 530.224 224.571 529.879 223.093C529.726 222.436 538.935 216.453 550.342 209.797C562.213 202.872 571.248 196.846 571.468 195.709C571.693 194.535 567.658 189.082 561.603 182.38C550.661 170.268 551.16 170.505 539.979 172.098C536.554 172.585 533.752 172.856 533.752 172.698C533.752 172.541 537.221 169.866 541.461 166.754C545.701 163.641 549.166 160.265 549.159 159.248C549.143 156.719 520.095 119.556 517.752 119.067C516.717 118.853 507.682 123.521 497.674 129.442C487.667 135.365 479.203 140.209 478.866 140.209C478.529 140.209 476.578 137.599 474.53 134.408C468.114 124.414 456.768 124.606 451.276 134.801C450.012 137.146 448.373 138.829 447.631 138.545C446.89 138.26 429.657 127.847 409.337 115.405C375.012 94.3843 369.406 91.4722 367.306 93.5721ZM679.151 334.962C678.753 342.951 677.894 372.163 677.244 399.879C676.594 427.595 675.745 453.358 675.357 457.131L674.653 463.989L671.444 458.91C667.536 452.721 591.424 326.169 590.912 325.007C590.046 323.045 622.247 320.818 654.555 320.604L679.877 320.437L679.151 334.962ZM581.836 368.162C590.168 382.02 611.578 417.537 629.416 447.089C647.253 476.642 661.848 501.026 661.848 501.279C661.848 501.53 659.435 501.011 656.487 500.124C651.851 498.729 650.887 498.748 649.37 500.265C647.066 502.569 647.032 502.403 651.341 510.054C657.533 521.049 664.239 530.592 669.911 536.474L675.285 542.049L673.251 566.116C663.801 677.924 658.916 753.815 657.488 811.023C657.077 827.49 656.54 840.962 656.296 840.962C656.05 840.962 652.749 839.397 648.96 837.484C625.881 825.84 536.348 759.511 515.299 738.468C490.36 713.538 452.972 661.443 436.533 628.721C421.634 599.066 418.348 583.556 416.4 533.724C414.946 496.516 418.271 388.14 420.952 385.338C421.703 384.553 438.436 395.478 482.532 425.545C490.99 431.311 492.902 433.079 490.683 433.079C487.05 433.079 484.696 435.795 485.669 438.864C486.981 442.993 501.352 455.307 509.266 459.083L516.893 462.722H544.329H571.765L573.025 459.461C575.289 453.604 573.751 443.147 569.796 437.519L566.261 432.486L551.241 432.154L536.222 431.823L487.663 398.245L439.103 364.668L476.049 363.924C496.37 363.515 519.608 362.641 527.688 361.982C544.349 360.624 547.409 359.346 558.659 349.046C562.247 345.761 565.522 343.048 565.936 343.019C566.35 342.989 573.505 354.304 581.836 368.162Z" fill="white"/>
</svg>
