<svg width="1000" height="1000" viewBox="0 0 1000 1000" fill="none" xmlns="http://www.w3.org/2000/svg">
<path d="M318.013 310.594H264.937L277.555 492.394L295.23 510.094L282.612 522.744L295.23 676.744C295.23 686.044 305.895 700.994 348.356 686.844C339.944 675.094 362.025 651.494 517.797 651.494C575.98 652.344 686.738 659.594 664.506 681.794C677.925 688.544 706.967 696.444 715.078 674.244L725.143 515.144L715.028 505.044L727.696 492.394L737.811 320.694C726.845 310.594 698.855 296.444 674.571 320.694L664.456 391.394H641.724L588.598 275.244H429.271L391.417 386.344L350.96 396.444L318.013 310.594Z" fill="#fff"/>
<path fill-rule="evenodd" clip-rule="evenodd" d="M677.125 138.9L497.569 0L320.517 146.5H98L118.229 798L512.741 1000L902.196 798V138.9H677.125ZM661.953 227.25L497.569 101L338.242 222.2H181.469L194.087 747.5L512.741 914.15L816.173 747.45V227.3L661.953 227.25Z" fill="#fff"/>
</svg>
