<svg width="1000" height="1000" viewBox="0 0 1000 1000" fill="none" xmlns="http://www.w3.org/2000/svg">
<path id="counterstrike" d="M341.724 577.05C340.528 579.639 339.526 582.313 338.724 585.05C335.529 601.226 319.934 609.195 315.258 624.782C308.013 644.478 299.151 663.475 296.492 684.479C296.244 693.281 291.219 701.489 283.493 705.712C278.829 705.712 274.212 718.847 272.76 722.211C270.54 727.305 266.789 731.581 262.027 734.444C252.36 739.841 244.643 759.05 247.794 769.176C250.027 778.576 248.861 788.508 244.528 797.175C242.128 803.841 239.294 810.308 236.061 816.641C227.274 833.031 225.206 859.683 212.056 872.833C208.245 876.643 201.278 876.875 198.829 881.838C193.897 893.906 182.191 912.088 184.597 925.57V957.535C184.199 966.58 190.888 973.591 191.512 982.591C191.81 986.886 191.238 991.198 189.83 995.267C182.491 1003.29 154.699 1000 144.365 1000C136.007 999.343 119.751 1000.11 117.633 990C115.159 976.589 115.499 962.809 118.633 949.535C125.132 926.303 131.132 902.804 137.365 879.571C139.476 871.682 132.617 869.226 132.365 862.572C130.365 849.573 132.699 836.24 138.865 824.607C145.041 814.211 153.671 802.236 153.598 789.642C151.294 754.408 186.545 721.127 200.063 690.712C203.771 676.606 197.301 661.698 200.063 647.014C203.185 630.637 220.046 579.287 208.562 569.05C200.752 563.614 204.083 535.191 201.686 526.202C197.488 510.457 217.553 508.073 218.295 500.12C218.295 481.581 217.931 463.286 215.295 444.889C213.556 421.933 211.399 392.191 242.294 392.191C233.284 387.581 211.543 389.371 205.541 381.649C194.697 367.697 210.41 314.331 211.062 296.761C211.062 272.399 258.404 284.657 253.061 268.262C249.985 255.687 248.883 242.711 249.794 229.797C249.661 202.798 256.46 176.233 269.527 152.6C280.894 131.392 314.283 103.319 340.998 114.018C349.246 117.322 361.754 125.557 356.956 106.369C347.064 77.0902 354.803 40.4382 377.856 19.1111C400.551 -1.88463 436.776 -6.19756 463.152 10.4059C471.469 15.7831 487.81 19.7101 493.133 28.3249C496.172 33.2436 494.128 39.5881 496.851 44.9046C501.322 56.4214 511.808 96.1015 492.618 100.869C483.926 100.869 476.62 107.657 476.885 115.835C477.385 121.968 478.218 128.035 479.385 134.068C493.017 136.116 507.786 131.006 521.083 128.335C529.051 128.335 528.854 112.086 530.35 106.102C533.509 102.381 534.849 103.392 534.849 108.835C534.849 118.94 548.055 128.835 558.315 128.835H752.174C757.112 128.835 766.788 145.855 765.174 133.834V108.835C764.503 99.1845 773.048 99.7754 771.673 108.369V125.101C771.445 130.357 774.16 139.921 780.906 137.834C784.173 136.834 786.406 137.834 786.173 142.334C786.173 150.834 786.173 151.834 794.639 151.834C808.263 151.834 838.785 157.958 849.637 147.567C850.459 147.031 851.548 147.031 852.37 147.567C860.236 148.7 868.236 148.7 876.103 147.567C882.836 147.567 885.336 150.834 884.102 157.567C882.171 162.387 873.29 160.3 869.336 160.3C863.533 159.507 857.625 160.112 852.103 162.067C848.269 164.119 839.799 159.3 834.871 159.3H802.639C790.266 158.48 779.363 164.972 766.907 161.8C754.946 161.8 763.531 172.3 753.174 172.3H678.244C674.487 172.3 659.244 175.015 659.244 180.533C657.67 186.277 650.042 195.908 644.745 198.532C634.512 203.265 636.745 212.265 637.512 219.764C639.412 229.997 642.012 240.097 645.245 249.996C647.507 259.343 630.323 258.258 628.246 270.996C626.248 283.521 624.98 299.076 617.244 309.631C611.961 316.839 603.454 319.549 597.78 326.193C592.318 331.698 582.963 338.956 574.681 338.956C569.931 338.956 566.65 335.252 562.082 335.193C533.824 334.284 507.406 314.217 483.385 301.228C475.897 297.484 477.315 312.844 473.885 317.96C473.885 327.61 487.656 329.043 492.293 336.9C494.964 341.426 496.04 346.716 495.351 351.926C495.811 362.519 495.398 373.132 494.118 383.658C492.351 397.391 492.351 411.123 491.618 425.123C490.516 433.916 484.347 461.3 471.885 461.121C461.761 458.915 449.571 454.089 448.886 469.088C449.802 478.038 449.859 493.123 457.652 499.32C475.385 517.686 490.218 538.652 501.617 561.517C504.609 567.665 535.624 651.138 540.582 649.981C547.582 648.714 547.582 654.447 547.582 657.714C548.249 664.647 549.882 671.446 552.315 677.946C555.591 705.136 549.638 733.143 547.082 760.41C546.849 764.643 546.082 768.809 544.816 772.876C541.815 783.331 541.815 794.419 544.816 804.874C547.549 816.207 545.949 828.107 540.316 838.34C539.259 839.986 538.661 841.885 538.583 843.84C538.583 855.839 536.849 868.839 536.583 879.538C536.888 888.345 536.903 899.991 543.082 907.037L563.582 932.036C569.648 940.036 578.581 945.302 588.581 946.769C598.803 949.483 613.509 954.96 614.912 967.144C615.55 972.683 613.462 980.111 607.047 980.734C593.614 982.234 580.081 982.967 566.581 982.967C545.318 982.933 519.577 969.467 499.351 974.468C489.858 975.037 476.847 977.242 468.152 972.234C465.267 971.406 463.402 968.464 463.886 965.501C463.886 950.027 467.337 927.175 476.118 914.537C479.807 909.529 477.457 901.638 477.885 895.804C477.885 881.805 476.618 868.072 475.885 854.306C475.885 848.949 470.386 845.8 469.119 839.573C464.46 818.759 460.947 798.062 458.652 776.876C457.598 767.137 454.606 753.373 457.672 743.801C459.501 738.09 465.13 734.555 466.152 728.644C466.152 721.411 467.385 713.911 468.385 706.645C468.582 699.03 464.424 685.946 455.153 685.946C444.769 685.946 432.963 687.489 426.42 677.446C412.921 656.447 398.188 635.714 384.689 614.749C378.775 603.926 367.569 607.767 358.702 602.031C350.958 597.023 345.887 584.839 341.724 577.017V577.05Z" fill="currentColor"/>
</svg>
