<svg width="1000" height="1000" viewBox="0 0 1000 1000" fill="none" xmlns="http://www.w3.org/2000/svg">
<g id="criticalops">
<path d="M680.158 292.413C689.209 275.513 688.009 120.81 678.959 111.76C673.458 106.31 613.007 104.51 439.005 105.11C310.353 105.71 193.751 108.11 178.651 110.01C145.4 114.86 101.899 139.011 78.349 166.211C55.3487 192.212 30.5983 242.912 18.5481 288.863C-3.20226 371.014 -6.85232 584.318 13.098 679.169C35.4483 788.521 78.949 855.622 147.85 885.172C172 895.473 191.351 896.073 428.805 894.873L683.159 893.073L684.959 811.471C685.559 766.771 684.959 723.87 683.159 716.62L680.158 702.72H459.005C324.853 702.72 233.651 700.319 227.001 696.719C220.951 693.719 211.301 677.369 205.851 661.069C198.001 636.869 196.801 609.068 198.601 496.716C201.001 357.714 203.401 332.964 219.751 314.213C228.201 304.563 246.902 303.963 451.155 303.963C665.058 303.963 674.108 303.363 680.158 292.463V292.413Z" fill="currentColor"/>
<path d="M999.162 503.916C1000.96 422.315 1000.96 419.915 987.662 410.265C975.612 401.764 950.811 400.564 815.459 400.564C675.957 400.564 656.557 401.764 649.306 410.865C637.256 424.765 637.256 575.817 649.306 590.317C656.557 598.767 676.507 599.967 818.509 599.967C909.161 599.967 983.462 597.567 988.312 593.967C995.562 589.717 997.962 570.967 999.162 503.916Z" fill="currentColor"/>
</g>
</svg>
