<svg width="1000" height="1000" viewBox="0 0 1000 1000" fill="none" xmlns="http://www.w3.org/2000/svg">
<path id="crossfire" d="M562.15 556.2L466.1 827.35C346.5 708.75 102.85 467.5 84.75 451.65C66.65 435.85 56.5 445.05 53.65 451.65L0 511V389.5C0 337.5 45.2 313.25 67.8 307.6H466.1L420.9 420.6H313.55L288.15 471.45L395.5 575.95C419 508.15 471.2 359.55 491.5 307.6C511.85 255.6 554.6 240.75 573.45 239.8H830.5C878 239.8 901.15 226.6 906.8 220L1000 172L895.5 372.55H621.5L596 437.55H819.2L771.2 556.2H562.15V556.2Z" fill="currentColor"/>
</svg>
