<svg version="1.1" id="Layer_1" xmlns="http://www.w3.org/2000/svg" xmlns:xlink="http://www.w3.org/1999/xlink" x="0px" y="0px"
	 viewBox="0 0 1000 1000" xml:space="preserve">
<g id="deadlock">
	<path d="M380.2,368.2l9.8-6.3c0,0,40.9-25.2,101.5-27.4V80.8c-97.1,1.9-186.2,37.1-256.5,94.5c-0.3,10.3,0.8,34.6,14.8,62.4
		L380.2,368.2z"/>
	<path d="M172.1,760.9c8.7,0.9,36.1,2,68-13.1l128.6-128.6L197.4,508.5H80.8C82.7,603.8,116.6,691.4,172.1,760.9z"/>
	<path d="M235,824.7c70.2,57.4,159.3,92.5,256.5,94.5V660.5C430.9,658.2,390,633,390,633l-6.7-4.3L249.6,762.4
		C235.8,790.2,234.7,814.5,235,824.7C235,824.7,235,824.7,235,824.7z"/>
	<path d="M508.5,617.4c26.1-1.9,49.9-12.2,68.5-28.4c4.3-3.7,8.3-7.7,12-12c16.1-18.6,26.5-42.4,28.4-68.5c0.2-2.8,0.3-5.6,0.3-8.5
		s-0.1-5.7-0.3-8.5c-1.9-26.1-12.2-49.9-28.4-68.5c-3.7-4.3-7.7-8.3-12-12c-18.6-16.1-42.4-26.5-68.5-28.4c-2.8-0.2-5.6-0.3-8.5-0.3
		s-5.7,0.1-8.5,0.3c-26.1,1.9-49.9,12.2-68.5,28.4c-4.3,3.7-8.3,7.7-12,12c-16.1,18.6-26.5,42.4-28.4,68.5c-0.2,2.8-0.3,5.6-0.3,8.5
		s0.1,5.7,0.3,8.5c1.9,26.1,12.2,49.9,28.4,68.5c3.7,4.3,7.7,8.3,12,12c18.6,16.1,42.4,26.5,68.5,28.4c2.8,0.2,5.6,0.3,8.5,0.3
		S505.7,617.6,508.5,617.4z M458.1,553.9c-4.5-3.5-8.5-7.5-12-12c-7.4-9.5-12.3-20.9-13.8-33.4c-0.4-2.8-0.5-5.6-0.5-8.5
		s0.2-5.7,0.5-8.5c1.5-12.5,6.5-24,13.8-33.4c3.5-4.5,7.5-8.5,12-12c9.5-7.4,20.9-12.3,33.4-13.9c2.8-0.3,5.6-0.5,8.5-0.5
		s5.7,0.2,8.5,0.5c12.5,1.6,24,6.5,33.4,13.8c4.5,3.5,8.5,7.5,12,12c7.4,9.5,12.3,20.9,13.8,33.4c0.4,2.8,0.5,5.6,0.5,8.5
		s-0.2,5.7-0.5,8.5c-1.5,12.5-6.5,24-13.8,33.4c-3.5,4.5-7.5,8.5-12,12c-9.5,7.4-20.9,12.3-33.4,13.8c-2.8,0.4-5.6,0.5-8.5,0.5
		s-5.7-0.2-8.5-0.5C479,566.2,467.5,561.3,458.1,553.9z"/>
	<path d="M172.2,238.9c-55.6,69.6-89.5,157.3-91.4,252.6h108.7l176-113.8L239.9,251.9C208.2,237,181.1,238,172.2,238.9z"/>
	<path d="M508.5,63.8c55.9,1.1,110.1,12.6,161.3,34.2c52,22,98.6,53.4,138.7,93.5c40.1,40.1,71.5,86.7,93.5,138.7
		c21.6,51.2,33.1,105.4,34.2,161.3h63.8C995.4,222.1,777.9,4.6,508.5,0.1V63.8z"/>
	<path d="M491.5,936.2c-55.9-1-110.1-12.5-161.3-34.2c-52-22-98.6-53.4-138.7-93.5C151.5,768.4,120,721.8,98,669.8
		c-21.6-51.2-33.1-105.4-34.2-161.3H0.1c4.5,269.4,222,486.9,491.4,491.4V936.2z"/>
	<path d="M827.8,238.9c-8.8-0.9-35.9-1.9-67.7,13l0,0L634.4,377.7l176,113.8h108.7C917.3,396.2,883.4,308.5,827.8,238.9z"/>
	<path d="M936.2,508.5c-1,55.9-12.5,110.1-34.2,161.3c-22,52-53.4,98.6-93.5,138.7c-40.1,40.1-86.7,71.5-138.7,93.5
		c-51.2,21.7-105.4,33.2-161.3,34.2v63.8c269.4-4.5,486.9-222,491.4-491.4H936.2z"/>
	<path d="M827.9,760.9c55.5-69.6,89.3-157.2,91.2-252.4H802.6L631.3,619.3l128.6,128.6C791.8,763,819.2,761.8,827.9,760.9z"/>
	<path d="M63.8,491.5c1-55.9,12.5-110.1,34.2-161.3c22-52,53.4-98.6,93.5-138.7c40.1-40.1,86.7-71.5,138.7-93.5
		c51.2-21.6,105.4-33.1,161.3-34.2V0.1C222.1,4.6,4.6,222.1,0.1,491.5H63.8z"/>
	<path d="M619.8,368.2l130.5-130.5c13.9-27.8,15-52.1,14.7-62.4c0,0,0,0,0,0c-70.2-57.4-159.4-92.5-256.5-94.5v253.6
		c60.6,2.2,101.5,27.4,101.5,27.4L619.8,368.2z"/>
	<path d="M765,824.7c0.3-10.1-0.7-34.4-14.6-62.3L616.7,628.7L610,633c0,0-40.9,25.2-101.5,27.4v258.7
		C605.6,917.2,694.7,882.1,765,824.7C765,824.7,765,824.7,765,824.7z"/>
</g>
</svg>