<svg width="1000" height="1000" viewBox="0 0 400 400" fill="none" xmlns="http://www.w3.org/2000/svg">
<path fill-rule="evenodd" clip-rule="evenodd" d="M296.987 224.461C298.955 216.633 300 208.439 300 200C300 144.772 255.228 100 200 100C144.772 100 100 144.772 100 200C100 208.299 101.011 216.362 102.916 224.072C125.215 226.748 142.499 245.73 142.499 268.749C142.499 272.879 141.943 276.878 140.901 280.676C157.457 292.825 177.891 300 200 300C223.052 300 244.282 292.2 261.195 279.095C260.414 275.774 260 272.31 260 268.749C260 246.632 275.957 228.241 296.987 224.461ZM168.842 145.022C168.842 157.523 178.707 162.523 195.352 162.523C211.998 162.523 237.892 171.273 237.892 197.523C237.892 197.523 223.712 202.524 224.328 215.024C224.615 220.845 228.779 225.311 233.209 230.062C238.293 235.514 243.727 241.342 244.057 250.025C269.951 233.149 269.951 197.523 269.951 197.523C271.8 145.022 221.247 126.897 201.517 126.897C181.788 126.897 168.843 132.522 168.842 145.022ZM231.158 248.772C231.158 236.271 221.293 231.271 204.648 231.271C188.002 231.271 162.108 222.521 162.108 196.271C162.108 196.271 176.288 191.271 175.672 178.77C175.385 172.949 171.221 168.483 166.791 163.732C161.707 158.28 156.273 152.453 155.943 143.77C130.049 160.645 130.049 196.271 130.049 196.271C128.2 248.772 178.753 266.897 198.483 266.897C218.212 266.897 231.157 261.272 231.158 248.772ZM216.667 197.357C216.667 206.562 209.205 214.023 200 214.023C190.795 214.023 183.333 206.562 183.333 197.357C183.333 188.152 190.795 180.69 200 180.69C209.205 180.69 216.667 188.152 216.667 197.357Z" fill="#D72D1D"/>
</svg>
