<svg width="1000" height="1000" viewBox="0 0 1000 1000" fill="none" xmlns="http://www.w3.org/2000/svg"><path id="dota2game" d="m85 45-45-1c-4-2-16-2-16 14 0 15-4 25 0 37 6 22 8 45 5 68-2 28-7 57-12 84a337 337 0 0 0 7 99c6 20 11 41 12 63-6 14-7 30-4 46 7 24 17 27 17 39 0 11-15 30-20 36s-7 7-6 39v70l18 16c5 20 7 41 6 62-2 14-6 28-12 41 0 0-17 11-15 47 2 35 2 57 2 81 1 16-1 33-4 50-2 15 21 19 25 21 4 1 12-5 21 0 9 4 10 11 22 7 10-3 20-5 31-6 8 0 13 4 22 3l11-3h12s-6-2 19 0c26 3 19 6 19 6s-5-5 23-5c29 0-2 6 29 6 16 3 31 2 46-4 10-4 14-7 20-5l24 3c6 3 12 6 18 7l17 2h14l9-4s18 34 32 36c13 1 8-13 23-16 10-3 21-2 30 2 7 4 13 6 17 3l10-5s-3 4 11 8 14-2 27-6c32-6 64-8 96-7h54c13 1 25-1 37-6l15-8s0 5 20 8l29 3 16 2c19 2 38 3 57 2l19-6s-18-3-7-11c9-4 19-7 29-6 17 0 33 3 48 10 7 5 15 9 23 12V580h-27c-3-3 0-9 7-14 8-4 6-50 6-50l3-40c-2-10-6-21-12-30l-27-35v-5l12-14c5-4 9-12 5-16a10 10 0 0 1 5-17l25-9a1530 1530 0 0 0-6-240l4-9s6-34-2-38-16-2-22-12c-7-9-29-9-34-8-11 2-23 2-35 1-5-3-14-11-20-8-6 2-17 28-25 23-9-5-4-25-15-25h-55a427 427 0 0 1-112-9c-4 1-9 9-15 25s-21 13-34 13-12-16-12-16-61-11-47-14c15-3 18-21 13-23-29-6-58-10-88-10h-61c-10 0 7 28-21 31-28 4-34 7-36 12-18 8-38 12-58 11-10 0-20 0-30-2a17 17 0 0 0-18-11L85 45Zm34 164c14-2 27-7 40-13a63 63 0 0 1 48-10c15 9 29 19 43 30l50 37 7 16c9 1 19 4 27 10 20 11 136 89 136 89l264 178 32 25-7 4 18 4 95 65c-5 36-15 73-28 107-20 54-16 63-37 71-21 9-107-4-107-4L581 695l-12-15-8-13-26-18-11-13-30-26-9-13-5-10-17-15-13-13-86-95-56-53-36-42-7-3v-8L120 209h-1Zm471 25 30-15 32-2 45-13 43-13 57 38 4 36-5 17-6 13-2 25-7 19 3 30-21-1-173-133v-1ZM198 607l193 184-57 23-24 5-18 13-75 4-46-36-36-29 17-54 46-110Z" fill="currentColor"/></svg>
