<svg width="1000" height="1000" viewBox="0 0 1000 1000" fill="none" xmlns="http://www.w3.org/2000/svg">
<path id="dota2" style="fill-rule:evenodd;clip-rule:evenodd;" d="M984.9,622.3c9.8-39.1,15.1-80.1,15.1-122.3
	C1000,223.9,776.1,0,500,0S0,223.9,0,500c0,41.5,5.1,81.8,14.6,120.4c111.5,13.4,197.9,108.3,197.9,223.4c0,20.7-2.8,40.6-8,59.6
	c82.8,60.7,185,96.6,295.5,96.6c115.3,0,221.4-39,306-104.5c-3.9-16.6-6-33.9-6-51.7C800,733.2,879.8,641.2,984.9,622.3z
	 M344.2,225.1c0,62.5,49.3,87.5,132.6,87.5c83.2,0,212.7,43.8,212.7,175c0,0-70.9,25-67.8,87.5c1.4,29.1,22.3,51.4,44.4,75.2
	c25.4,27.3,52.6,56.4,54.2,99.8c129.5-84.4,129.5-262.5,129.5-262.5c9.2-262.5-243.5-353.1-342.2-353.1
	C408.9,134.5,344.2,162.6,344.2,225.1z M655.8,743.9c0-62.5-49.3-87.5-132.6-87.5c-83.2,0-212.7-43.8-212.7-175
	c0,0,70.9-25,67.8-87.5c-1.4-29.1-22.3-51.4-44.4-75.2c-25.4-27.3-52.6-56.4-54.2-99.8c-129.5,84.4-129.5,262.5-129.5,262.5
	C141,743.9,393.8,834.5,492.4,834.5C591.1,834.5,655.8,806.4,655.8,743.9z M583.3,486.8c0,46-37.3,83.3-83.3,83.3
	s-83.3-37.3-83.3-83.3s37.3-83.3,83.3-83.3S583.3,440.8,583.3,486.8z" fill="currentColor"/>
</svg>
