<svg width="1000" height="1000" viewBox="0 0 1000 1000" fill="none" xmlns="http://www.w3.org/2000/svg"><path id="easportsfc" d="M0,108l117.5,184.8L235,108H0z M638.9,442.6L500,660.5l-21.4-33.1L735,226.7h42.7L660.3,409.5h147.4 L1000,108c0,0-245.7,0-286.3,0c-51.3,0-83.3,44.7-83.3,44.7s-271.4,426-273.5,426c-15,25.3-15,68.1,0,91.4l141,221.8l286.3-451.3 L638.9,442.6L638.9,442.6z M254.3,376.5h192.3l74.8-118.7H329.1l21.4-33.1h192.3L617.5,108c0,0-232.9,0-282.1,0 c-53.4,0-85.5,44.7-85.5,44.7L138.9,325.9l74.8,116.7L254.3,376.5z" fill="currentColor"/></svg>