<svg width="1000" height="1000" viewBox="0 0 1000 1000" fill="none" xmlns="http://www.w3.org/2000/svg">
<path id="esports" d="M979.769 136.474C979.054 136.167 961.479 129.832 940.636 125.847C907.224 119.512 883.212 122.476 867.069 134.941C859.201 140.969 846.429 155.07 848.881 180.818C850.618 199.312 814.754 216.376 789.721 223.732C790.436 214.639 791.152 205.443 791.969 196.349C793.91 172.849 796.976 96.8293 799.428 59.2284C799.428 30.2103 656.279 69.1395 500.869 69.1395C347.195 69.2417 200.266 28.882 200.266 59.4328C200.777 88.8596 204.353 157.216 205.783 172.542C207.52 189.605 209.053 206.771 210.585 223.937C185.552 216.682 149.28 199.414 151.119 180.92C153.571 155.172 140.799 141.174 132.931 135.043C116.89 122.578 92.7761 119.512 59.3645 125.95C38.5205 129.934 20.9462 136.269 20.2309 136.576L0 143.83L3.16747 165.185C3.67835 168.864 17.0635 256.531 52.6208 343.177C74.0779 395.593 99.4176 436.77 127.72 465.788C161.541 500.324 199.755 517.796 241.238 517.796C246.858 517.796 252.478 517.489 258.2 516.876C260.652 516.57 263.002 515.957 265.148 515.139C266.578 518.409 268.009 521.781 269.541 525.05C302.238 596.37 349.852 647.764 418.719 669.834C416.471 689.861 414.734 709.479 411.669 728.79C408.297 749.736 407.684 749.634 386.533 749.941C340.86 750.451 309.288 787.644 316.031 833.214C295.801 833.214 275.57 833.214 255.441 833.214C235.312 833.214 223.46 844.965 223.255 864.991C223.051 881.135 223.971 897.279 223.051 913.321C221.927 931.61 228.364 944.484 245.53 951.637H756.207C773.373 944.484 779.81 931.61 778.686 913.321C777.664 897.279 778.686 881.033 778.482 864.991C778.277 844.965 766.425 833.214 746.296 833.214C726.065 833.214 705.936 833.214 685.706 833.214C688.771 812.473 684.071 792.957 672.627 777.733C653.316 752.188 626.035 747.795 593.951 750.349C590.273 723.068 586.697 696.605 583.12 669.732C626.443 655.427 664.146 628.453 695.106 586.765C711.76 564.388 724.839 540.377 735.261 515.241C737.305 516.059 739.552 516.57 741.8 516.774C747.522 517.387 753.142 517.694 758.762 517.694C800.347 517.694 838.459 500.222 872.28 465.686C900.685 436.77 925.922 395.491 947.379 343.074C982.937 256.327 996.322 168.761 996.833 165.083L1000 143.728L979.769 136.474ZM165.73 429.107C142.229 405.198 120.67 369.742 101.768 323.967C78.778 268.281 65.495 210.654 59.4666 179.899C62.1232 179.286 64.9842 178.57 67.8451 178.06C84.602 174.79 94.2066 175.301 98.498 176.22C96.761 195.225 102.892 213.515 116.379 229.148C125.677 239.978 138.551 249.787 154.593 258.166C179.933 271.347 205.681 277.273 206.805 277.477C209.768 278.192 212.731 278.295 215.592 277.988C218.147 304.452 220.803 330.813 224.073 357.175C228.569 393.754 235.823 429.822 246.654 464.971C217.431 466.401 190.865 454.651 165.73 429.107ZM657.914 354.518C649.433 360.751 639.931 361.568 629.917 360.138C623.787 359.218 617.554 358.912 611.423 358.299C608.358 357.992 607.132 359.525 607.643 362.284C608.154 365.144 608.869 368.005 609.788 370.764C613.671 382.412 617.554 394.06 621.437 405.708C623.889 413.065 622.05 417.254 614.795 419.707C597.221 425.428 579.646 430.946 561.97 436.464C559.824 437.179 557.576 437.485 555.328 437.587C544.396 438.098 538.265 431.559 539.491 420.728C540.206 414.7 541.33 408.672 542.352 402.745C545.417 384.456 531.726 368.618 513.232 369.231C495.555 369.742 483.396 387.317 489.629 403.971C491.366 408.672 494.227 412.963 496.577 417.459C498.416 421.137 500.766 424.713 501.992 428.698C504.956 437.587 501.073 444.944 491.979 447.09C484.418 448.929 476.653 450.053 468.989 450.87C452.743 452.71 436.497 454.242 420.149 455.979C413.406 456.694 408.91 451.79 408.91 445.659C409.012 425.02 408.501 404.278 408.195 383.638C408.092 377.508 403.494 374.647 397.977 377.303C390.62 380.777 383.366 384.354 375.192 385.58C349.034 389.462 326.658 369.742 327.475 343.177C327.475 341.644 327.68 340.009 327.884 338.579C329.927 322.435 340.247 309.663 355.063 306.291C360.478 305.065 366.507 305.678 372.126 305.984C377.746 306.189 383.366 307.108 388.985 307.619C392.562 307.926 394.605 305.371 393.583 301.897C390.007 290.147 386.022 278.499 382.242 266.749C381.424 264.092 380.403 261.435 379.585 258.677C377.848 252.955 379.994 248.561 385.716 246.62C402.473 241 419.23 235.38 436.089 229.863C441.402 228.126 446.919 227.513 452.437 228.943C458.261 230.476 461.837 234.257 461.837 240.285C461.837 246.211 460.713 252.137 460.202 258.064C459.794 262.968 458.772 267.975 459.181 272.777C460.202 285.038 470.522 294.336 484.52 296.584C495.044 298.219 507.203 291.271 511.699 280.849C515.275 272.573 513.947 264.501 509.758 256.837C506.897 251.524 503.729 246.211 500.971 240.796C495.249 229.148 500.051 219.85 512.823 218.215C535.711 215.252 558.7 212.595 581.69 210.041C588.74 209.223 592.623 213.004 592.623 220.054C592.623 234.972 592.623 249.889 592.623 264.705L593.338 282.279C593.338 288.717 597.936 291.475 603.556 288.41C613.16 283.097 623.378 279.725 634.515 279.827C651.885 280.032 667.109 291.577 672.218 308.13C677.634 325.807 671.912 344.403 657.914 354.518ZM898.539 323.15C879.636 369.231 858.077 404.789 834.576 428.8C809.237 454.651 782.467 466.503 753.04 464.766C756.412 453.323 759.477 441.777 762.236 430.026C774.19 379.858 780.525 328.974 785.225 277.886C787.882 278.09 790.538 277.988 793.297 277.375C794.421 277.171 820.17 271.244 845.509 258.064C861.653 249.685 874.527 239.876 883.723 229.046C897.108 213.413 903.239 195.123 901.604 176.118C905.896 175.199 915.602 174.688 932.257 177.957C935.118 178.57 937.979 179.183 940.636 179.797C934.505 210.449 921.324 267.566 898.539 323.15Z" fill="currentColor"/>
</svg>
