<svg width="1000" height="1000" viewBox="0 0 1000 1000" fill="none" xmlns="http://www.w3.org/2000/svg">
<g id="fifa">
<path d="M 0,68.812745 117.24969,271.31233 235.25234,68.812745 Z" fill="currentColor"/>
<path d="m 639.00137,435.9372 -139.12651,238.87602 -20.99978,-36.2496 256.5024,-440.12698 h 42.12578 l -117.3759,201.37503 h 147.9996 L 1000,68.812745 c 0,0 -245.37254,0 -285.6223,0 -52.12619,0 -82.75203,48.499745 -82.75203,48.499745 0,0 -273.12768,469.00087 -273.37582,469.00087 -14.00057,28.24928 -14.00057,74.249 0.24814,100.74848 0.25028,0.50055 141.50094,244.12542 141.50094,244.12542 L 787.25339,435.68691 H 639.00137 Z" fill="currentColor"/>
<path d="M 253.74935,364.06261 H 445.62667 L 521.37734,233.93755 H 329.37595 l 21.12386,-36.2496 H 542.50333 L 617.62724,68.812745 c 0,0 -233.12605,0 -283.00188,0 -54.00005,0 -85.62487,48.750015 -85.62487,48.750015 l -110.75102,189.99917 74.00087,127.62658 z" fill="currentColor"/>
</g>
</svg>
