<svg width="1000" height="1000" viewBox="0 0 1000 1000" fill="none" xmlns="http://www.w3.org/2000/svg">
<g clip-path="url(#clip0)">
<path d="M515.898 129.371L488.747 176.374C465.745 216.176 477.996 267.63 517.348 291.381C534.836 301.963 555.59 305.781 575.698 302.115C595.806 298.449 613.878 287.552 626.506 271.48C630.872 266.083 638.741 264.617 644.757 268.08L668.958 282.081C676.052 286.129 678.158 295.738 673.409 302.382C661.886 318.006 647.238 331.062 630.397 340.72C613.556 350.378 594.891 356.427 575.586 358.482C556.281 360.537 536.76 358.553 518.264 352.657C499.767 346.761 482.699 337.081 468.145 324.233L352.388 524.697C326.073 570.564 283.94 605.266 233.88 622.303C226.353 624.85 217.934 620.289 215.879 612.703L208.628 585.701C206.784 578.715 210.752 571.267 217.579 568.9C254.081 555.899 284.583 530.697 304.134 496.845L433.093 275.23C400.291 198.925 442.393 145.572 467.795 101.569L419.092 73.4669C380.571 51.2322 334.796 45.205 291.832 56.7102C248.868 68.2154 212.232 96.3112 189.977 134.821L22.3157 425.29C0.207706 463.809 -5.76478 509.509 5.70196 552.416C17.1687 595.323 45.1435 631.951 83.5198 654.305C180.243 710.119 281.41 757.851 385.99 797.015L547.35 857.519L582.253 797.015C586.056 790.416 594.748 788.072 601.354 791.864L625.556 805.865C632.137 809.686 634.457 818.374 630.656 824.966L595.754 885.47L692.56 941.374C719.312 956.825 753.464 947.675 768.915 920.873L992.53 533.597C999.898 520.846 1001.93 505.391 998.113 491.168C994.294 476.945 984.793 464.588 972.029 457.242L875.222 401.339L840.27 461.843C836.467 468.412 827.813 470.752 821.219 466.993L797.017 452.992C790.447 449.19 788.107 440.535 791.867 433.941L826.869 373.437L789.416 233.827C763.515 137.571 689.51 100.469 668.608 88.4179C642.92 73.6275 612.414 69.6329 583.784 77.3107C555.153 84.9885 530.739 103.711 515.898 129.371ZM834.319 561.699L845.32 587.401C848.322 594.403 844.87 602.82 837.92 605.752L741.513 646.905L754.064 750.912C755.01 758.405 749.439 765.616 741.863 766.513L714.111 769.863C706.597 770.65 699.61 765.151 698.61 757.662L687.96 669.806L606.604 704.559C599.602 707.56 591.185 704.109 588.253 697.158L577.252 671.456C574.284 664.468 577.729 656.087 584.653 653.155L681.009 611.952L668.508 507.946C667.553 500.373 673.129 493.242 680.709 492.345L708.411 488.994C715.943 488.178 722.962 493.685 723.962 501.195L734.613 589.051L815.968 554.299C822.969 551.298 831.269 554.699 834.319 561.699Z" fill="#fff"/>
</g>
<defs>
<clipPath id="clip0">
<rect width="1000" height="1000" fill="white"/>
</clipPath>
</defs>
</svg>
