<svg width="1000" height="1000" viewBox="0 0 1000 1000" fill="none" xmlns="http://www.w3.org/2000/svg">
<path id="formula1" fill-rule="evenodd" clip-rule="evenodd" d="M141.432 625L252.318 517.422H252.292C295.99 475.052 313.725 468.62 397.056 468.62H729.4L825.025 375H384.453C272.917 375 241.38 385.625 175.963 450.365L0 625H141.432ZM399.062 483.568H715.131L627.475 571.224H400.703C359.141 571.224 349.947 573.177 329.322 593.802L298.125 625H166.979L263.932 528.047C302.005 490 315.131 483.568 399.062 483.568ZM1000 375L749.322 625H594.297L844.297 375H1000ZM834.947 617.083C840.156 622.37 846.719 625 854.609 625C862.5 625 868.984 622.37 874.116 617.135C879.244 611.901 881.797 605.417 881.797 597.708C881.797 590 879.219 583.516 874.063 578.229C868.906 572.943 862.397 570.312 854.506 570.312C846.616 570.312 840.078 572.943 834.897 578.177C829.712 583.412 827.109 589.896 827.109 597.604C827.109 605.312 829.713 611.797 834.947 617.083ZM838.203 581.328C842.578 576.849 847.994 574.609 854.453 574.609C860.937 574.609 866.353 576.849 870.703 581.328C875.053 585.807 877.241 591.25 877.241 597.656C877.241 604.062 875.053 609.479 870.703 613.932C866.328 618.385 860.937 620.599 854.453 620.599C847.969 620.599 842.553 618.359 838.203 613.88C833.853 609.401 831.666 603.984 831.666 597.604C831.666 591.224 833.853 585.807 838.203 581.328ZM849.116 612.891V602.162L849.141 602.187H855.259L860.444 612.917H866.772L861.069 601.406C862.994 600.521 864.35 599.375 865.156 597.943C865.963 596.51 866.353 594.323 866.353 591.38C866.353 588.437 865.366 586.224 863.384 584.766C861.406 583.281 858.437 582.552 854.506 582.552H843.1V612.891H849.116ZM849.009 597.448V587.24H853.984C858.281 587.24 860.416 588.932 860.416 592.344C860.416 594.141 860 595.443 859.166 596.25C858.359 597.057 857.006 597.448 855.131 597.448H849.009Z" fill="currentColor"/>
</svg>
