<svg width="1000" height="1000" viewBox="0 0 1000 1000" fill="none" xmlns="http://www.w3.org/2000/svg">
<g id="freefire">
<path d="M488.723 376.711C494.068 356.73 514.625 340.519 534.628 340.519C534.939 340.519 775.487 340.541 853.859 340.541C869.36 340.541 883.975 333.689 893.954 321.802L997.94 197.947C1002.71 192.247 998.672 183.576 991.243 183.576H397.622C373.849 183.576 353.047 199.543 346.904 222.518L162.019 914.269C160.378 920.457 165.7 926.245 171.998 925.136L318.629 899.278C328.467 897.543 337.606 893.036 344.971 886.287C352.336 879.538 357.623 870.828 360.21 861.179L438.227 570.024L779.59 569.891C795.114 569.891 809.817 563.038 819.796 551.152L923.759 427.296C928.527 421.596 924.491 412.925 917.062 412.925L514.936 412.837C495.132 412.659 483.401 396.581 488.723 376.711Z" fill="currentColor"/>
<path d="M245.935 75C222.184 75 201.382 90.9671 195.239 113.898L138.401 326.038C136.693 333.778 139.887 340.586 147.715 340.586H214.333C219.101 340.586 219.9 346.396 215.575 349.7L115.981 425.5C112.721 427.983 110.326 431.443 109.372 435.035L106.955 444.061C106.179 446.989 107.908 449.361 110.836 449.361H183.397C188.187 449.361 188.963 455.194 184.595 458.498L87.5281 531.481C84.2238 533.987 81.8066 537.469 80.8308 541.106L77.7039 552.837C76.9278 555.764 78.6575 558.115 81.5848 558.115H155.765C160.533 558.115 161.309 563.903 157.007 567.207L56.4145 644.67C53.6868 646.777 51.8683 650.258 50.693 653.208L0.307971 841.242C-1.35527 847.43 3.9671 853.24 10.2874 852.131L117.555 833.214C137.691 829.666 153.925 814.764 159.18 795.004L320.825 186.393C326.923 163.396 347.747 147.384 371.565 147.384H793.051C808.575 147.384 823.278 140.509 833.257 128.645L866.211 89.3704C870.979 83.671 866.943 75 859.514 75H245.935Z" fill="currentColor"/>
</g>
</svg>
