<svg width="1000" height="1000" viewBox="0 0 1000 1000" fill="none" xmlns="http://www.w3.org/2000/svg">
<g clip-path="url(#clip0)">
<path d="M247.05 32.9997C251.65 21.9998 257.1 9.99991 257.1 7.24993C257.1 -0.949992 241.6 -0.949992 233.3 7.24993C229.65 10.0499 226.9 185.798 226 397.296V782.693L254.4 796.393C269.9 804.643 285.499 812.892 301.999 819.292C313.899 822.942 319.349 836.692 319.349 861.392C319.349 893.392 323.049 897.092 343.149 893.392C355.999 890.692 374.299 897.092 386.149 908.992C397.148 920.892 401.748 926.391 395.348 923.641C378.849 914.492 371.549 937.391 377.949 971.241C383.449 997.791 401.748 1011.54 401.748 987.741C401.748 983.141 406.348 980.391 412.748 984.991C420.998 990.491 423.748 984.041 418.248 965.741C412.748 941.941 413.648 940.141 436.548 943.741C451.198 945.641 465.848 942.891 469.498 936.491C472.248 930.991 476.798 858.642 477.748 776.243L478.648 627.044H609.546L740.445 628.894V400.946H473.148V226.098H773.395V0L528.997 0.899992C341.349 1.84998 281.849 5.49995 271.75 15.5499C263.55 24.6998 262.6 32.0497 269 35.6997C273.6 39.3496 279.1 37.5497 279.1 32.0497C279.1 26.5498 283.649 21.0498 290.099 21.0498C298.299 21.0498 297.399 26.5498 289.149 36.5997C277.25 49.4495 280.899 57.6495 309.299 87.8992C329.449 107.099 339.499 123.599 332.199 123.599C325.799 123.599 315.699 115.349 310.199 105.299C300.149 91.5492 297.399 89.6992 289.199 103.449C283.699 111.699 280.899 121.749 283.699 125.449C284.648 128.248 284.512 131.301 283.317 134.005C282.123 136.708 279.958 138.865 277.25 140.049C270.85 144.649 267.2 143.699 268.1 138.249C271.75 118.099 266.3 109.849 258.05 123.599C251.65 132.749 246.15 133.649 242.5 125.399C237.9 119.899 239.75 114.399 246.15 114.399C252.55 114.399 255.3 110.749 251.65 105.299C248.9 99.7991 251.65 91.5492 258.05 87.8992C266.3 83.2992 268.1 84.1992 263.55 91.5492C258.95 97.9491 259.85 103.449 266.3 103.449C269.648 103.172 272.884 102.114 275.75 100.36C278.615 98.6058 281.03 96.2047 282.799 93.3491C290.099 82.3492 264.45 52.1995 247.05 52.1995C239.75 52.1995 238.8 46.6996 247.05 32.9497V32.9997Z" fill="#fff"/>
</g>
<defs>
<clipPath id="clip0">
<rect width="1000" height="1000" fill="white"/>
</clipPath>
</defs>
</svg>
