<svg width="1000" height="1000" viewBox="0 0 1000 1000" fill="none" xmlns="http://www.w3.org/2000/svg">
<path fill-rule="evenodd" clip-rule="evenodd" d="M770.978 616.212C772.309 673.316 822.907 719.794 880.163 718.467C905.461 717.14 929.429 707.843 946.741 691.906C954.729 683.939 966.714 679.954 978.696 679.954H1000V966.8C1000 985.391 985.354 1000 966.712 1000H680.337V978.745C680.337 966.76 685.65 954.778 693.617 945.456C709.554 926.816 720.177 902.849 720.177 876.218C718.85 817.631 671.043 769.696 611.282 771.027C554.179 772.358 507.701 822.956 509.028 880.212C510.355 905.51 519.651 929.477 535.588 946.789C543.555 954.778 547.541 966.762 547.541 978.745V1000H262.337C243.697 1000 229.049 985.393 229.049 966.8V678.626H207.745C195.76 678.626 185.108 682.61 175.789 690.579C158.479 706.516 134.512 717.139 109.212 717.139C51.956 719.796 1.35774 673.316 0.027053 614.885C-1.30364 555.124 46.6311 507.317 105.218 507.317C131.849 507.317 155.816 516.614 174.456 533.877C183.777 541.844 194.429 547.157 207.745 547.157H229.049V261.64C229.049 243.049 243.695 228.44 262.337 228.44H548.615V207.193C548.615 195.24 544.621 184.616 536.63 175.322C520.651 158.058 509.999 134.155 509.999 108.922C507.336 51.8179 553.94 1.35414 611.195 0.0269811C671.115 -1.30017 719.05 46.5072 719.05 104.938C719.05 131.498 709.728 155.402 692.419 173.993C684.43 183.289 679.103 193.913 679.103 207.193V228.44H966.712C985.352 228.44 1000 243.047 1000 261.64V547.157H978.696C966.711 547.157 954.729 541.844 945.408 533.877C926.767 517.941 902.8 507.317 876.169 507.317C817.583 508.644 769.648 556.452 770.978 616.212ZM535.609 439.262C532.183 425.922 529.001 413.993 526.065 403.475H477.239L468.062 438.492C464.88 451.575 461.331 465.172 457.416 479.281C453.5 493.39 449.462 507.5 445.301 521.609C441.141 535.718 436.858 549.058 432.452 561.628C429.026 548.545 425.6 534.307 422.173 518.915C418.992 503.523 415.81 487.618 412.629 471.2C409.447 454.782 406.388 438.492 403.451 422.33C400.514 405.912 397.822 390.135 395.374 375H333.333C341.899 419.637 351.689 464.915 362.702 510.835C373.96 556.754 386.074 600.365 399.046 641.667H451.542C460.108 617.039 468.306 591.258 476.138 564.322L499.633 482.744C507.465 509.937 515.419 537.129 523.495 564.322C531.571 591.258 539.892 617.039 548.458 641.667H600.955C613.926 600.365 625.918 556.754 636.931 510.835C648.189 464.915 658.101 419.637 666.667 375H607.195C604.748 390.135 602.056 405.912 599.119 422.33C596.427 438.492 593.612 454.782 590.675 471.2C587.739 487.618 584.557 503.523 581.131 518.915C577.949 534.307 574.768 548.545 571.586 561.628C567.67 549.571 563.632 536.488 559.471 522.378L546.99 480.05C543.074 465.941 539.281 452.345 535.609 439.262Z" fill="#fff"/>
</svg>
