<svg width="1000" height="1000" xmlns="http://www.w3.org/2000/svg" viewBox="0 0 1000 1000"><g id="geoguessr"><path d="M578.4 341.1c0 41.4-35.3 75.1-78.8 75.1s-78.7-33.7-78.7-75.1c0-41.7 35.2-75.2 78.7-75.2 43.6 0 78.8 33.5 78.8 75.2z" fill="currentColor"/><path d="M927.5 414.8C926.6 190.1 735 7.6 499.6 7.6 264.3 7.6 72.7 190.1 71.9 414.8c-.9 47.8 18.7 238.8 337.3 542.7 25 23.8 57.7 35.7 90.5 35.7 32.7 0 65.4-11.9 90.4-35.7 318.6-303.9 338.2-494.9 337.4-542.7zM499.7 871.3c-310-295.7-299.9-455-299.9-455 0-158.3 134-286.7 299.9-286.7 166 0 299.9 128.4 299.9 286.7 0-.1 10 159.3-299.9 455z" fill="currentColor"/></g></svg>
