<svg width="1000" height="1000" viewBox="0 0 1000 1000" fill="none" xmlns="http://www.w3.org/2000/svg">
<g clip-path="url(#clip0_3268_3787)">
<path fill-rule="evenodd" clip-rule="evenodd" d="M391.073 12.3996C247.578 51.2747 129.417 169.821 92.8413 311.585C77.1833 372.296 78.5857 449.562 96.4035 507.931C132.116 624.886 233.974 779.033 363.481 912.116C423.006 973.276 441.231 987.854 466.229 994.291C527.15 1009.99 557.057 994.929 643.081 905.188C767.021 775.913 860.338 636.421 898.708 523.07C967.49 319.916 853.347 100.829 637.381 21.4522C570.317 -3.19537 463.172 -7.13618 391.073 12.3996ZM552.338 124.79C633.3 139.901 717.094 198.655 758.536 269.379C779.341 304.875 796.962 369.281 796.962 409.804C796.962 500.779 696.801 671.369 560.163 813.112L499.978 875.541L469.027 845.494C344.772 724.858 231.078 551.392 208.057 447.312C179.497 318.149 282.484 167.746 424.963 130.547C479.307 116.354 501.71 115.344 552.338 124.79ZM476.6 266.231C426.534 279.561 408.681 342.319 443.271 383.424C488.009 436.59 572.575 406.676 572.575 337.691C572.575 286.201 527.55 252.676 476.6 266.231Z" fill="white"/>
</g>
<defs>
<clipPath id="clip0_3268_3787">
<rect width="1000" height="1000" fill="white"/>
</clipPath>
</defs>
</svg>
