<svg width="1000" height="1000" viewBox="0 0 1000 1000" fill="none" xmlns="http://www.w3.org/2000/svg">
<path d="M378.125 542.625C334.375 542.625 300 520.75 300 495.75C300 470.75 334.375 448.875 378.125 448.875C421.875 448.875 456.25 470.75 456.25 495.75C456.25 523.875 421.875 542.625 378.125 542.625ZM1000 464.5H903.125C871.875 330.125 665.625 227 415.625 227C240.625 227 87.5 277 0 352L25 383.25C96.875 320.75 218.75 280.125 362.5 280.125C584.375 280.125 762.5 380.125 762.5 505.125C762.5 630.125 584.375 730.125 362.5 730.125C353.125 730.125 346.875 730.125 340.625 730.125V770.75C365.625 773.875 390.625 773.875 415.625 773.875C675 773.875 890.625 661.375 906.25 520.75H1000V464.5Z" fill="#fff000"/>
</svg>
