<svg width="1000" height="1000" viewBox="0 0 1000 1000" fill="none" xmlns="http://www.w3.org/2000/svg">
<g id="hearthstone">
<path d="M680.257 493.048C681.057 486.198 678.057 479.298 674.907 472.198C672.014 466.48 670.056 460.335 669.107 453.998C669.107 447.048 666.407 440.148 663.457 432.998C661.757 428.648 661.107 424.348 660.507 420.348C657.632 400.634 653.79 387.995 637.757 371.348C631.43 364.752 625.269 358.01 619.707 350.748C611.662 340.355 603.798 330.195 589.507 325.448C586.555 324.161 583.631 322.76 580.649 321.33C573.467 317.887 566.369 314.239 558.857 311.548C553.014 309.063 546.747 307.129 540.875 305.317C533.562 303.06 526.955 300.802 520.457 296.698L520.347 296.63C514.487 293.004 508.91 289.554 501.457 290.548C497.67 291.145 493.974 292.221 490.457 293.748C485.057 295.898 479.857 297.898 472.057 296.198C447.957 288.198 430.357 300.698 411.757 313.948C407.592 316.947 403.347 319.831 399.057 322.648C392.807 326.798 386.807 330.798 381.307 335.298C378.557 338.048 375.657 342.248 372.907 346.448C371.757 348.198 370.057 349.748 368.257 351.298C365.595 353.421 363.384 356.057 361.757 359.048C354.716 369.515 342.8 373.98 334.674 383.123L334.607 383.198C331.581 387.046 327.524 389.589 323.207 391.748L323.069 391.821C319.433 393.76 318.457 394.28 318.457 400.848C318.666 406.169 319.677 411.429 321.457 416.448C322.857 420.998 324.157 425.448 324.157 430.248C324.157 441.869 325.332 451.197 328.357 462.398C329.555 466.741 329.707 471.284 329.856 475.777C330.043 481.158 330.094 486.873 332.557 491.798L337.004 498.554C341.192 505.058 345.488 511.73 350.657 516.998C356.753 524.407 362.849 532.827 369.109 541.475C369.951 542.638 370.801 543.795 371.657 544.948C373.048 546.886 375.724 549.071 378.702 551.503L378.757 551.548C384.507 556.248 391.157 561.698 391.157 567.248C396.557 568.548 399.957 572.148 403.157 575.548C406.607 579.198 409.807 582.548 414.907 582.548C419.916 581.063 425.248 581.063 430.257 582.548C433.266 583.332 436.266 584.149 439.257 584.998L445.607 586.748C455.397 586.748 463.101 578.568 472.107 575.648C482.104 572.742 493.027 575.682 502.757 571.448C520.807 560.248 532.157 540.748 533.407 519.748C533.407 508.598 530.657 497.498 523.557 489.098C521.257 485.048 520.557 480.898 519.907 476.898C519.007 471.098 518.157 465.848 512.407 462.598C502.507 458.398 491.407 454.198 478.807 454.198C467.657 449.998 456.507 451.448 445.207 455.648C436.273 461.887 441.539 472.112 446.68 482.096L446.707 482.148C452.007 492.348 457.157 502.348 446.657 507.348C422.907 517.248 410.307 490.498 404.857 472.498C402.122 461.025 402.122 449.07 404.857 437.598C404.95 433.584 405.572 429.599 406.707 425.748C408.499 419.177 413.815 416.113 420.157 413.848C424.357 411.048 428.207 407.598 432.057 404.098C435.774 400.575 439.734 397.317 443.907 394.348C452.307 388.698 463.457 384.448 473.307 381.698C485.957 378.998 498.557 378.998 510.957 378.998C513.77 379.063 516.577 379.314 519.357 379.748C522.139 380.166 524.945 380.399 527.757 380.448C530.388 380.448 532.754 379.83 535.104 379.216C535.255 379.177 535.406 379.137 535.557 379.098C537.957 378.398 540.357 377.748 543.057 377.748C549.557 377.748 549.407 379.398 549.007 383.398C548.991 383.592 548.973 383.792 548.955 383.996C548.862 385.056 548.757 386.257 548.757 387.598C548.757 391.798 551.457 395.998 554.407 400.198C557.907 404.398 561.057 408.598 564.207 412.797C567.358 417.073 570.609 421.275 573.957 425.398C586.852 441.032 585.37 465.044 584.123 485.242L584.107 485.498L583.857 489.698C582.673 500.969 583.589 512.361 586.557 523.298C589.598 532.419 585.284 534.932 579.561 538.267L579.507 538.298C577.108 539.607 574.832 541.13 572.707 542.848C567.007 551.248 561.557 559.648 557.357 568.048C550.407 576.448 543.507 583.398 535.107 589.048C530.057 594.098 524.307 598.448 518.807 602.548C508.084 610.769 495.836 617.225 483.407 622.498C475.495 625.494 466.795 627.701 458.455 629.817C449.508 632.087 439.95 633.768 431.707 638.048C427.11 641.409 424.262 646.344 419.157 649.148C411.557 653.748 403.457 655.398 395.157 657.048C388.307 658.448 381.357 659.898 374.357 663.048C371.687 664.383 367.062 665.4 361.912 666.532L361.157 666.698C350.318 669.096 337.606 671.907 336.807 678.348C332.739 678.348 342.706 688.076 344.44 689.386C348.304 692.303 352.795 694.276 357.557 695.148C367.049 696.694 376.397 699.019 385.507 702.098C394.412 705.784 403.814 708.126 413.407 709.048C423.291 709.535 431.722 714.847 441.407 715.948C448.007 716.848 453.657 714.248 459.207 711.648C462.859 709.737 466.765 708.356 470.807 707.548C476.82 706.831 482.858 706.331 488.907 706.048C494.083 705.78 499.251 705.379 504.407 704.848C520.468 702.689 535.515 697.071 551.257 693.698C556.157 692.648 561.057 691.598 565.957 689.498C575.857 685.298 584.057 681.098 592.457 675.648C600.114 669.89 602.96 660.45 610.507 654.598C618.502 649.35 625.955 643.321 632.757 636.598C638.407 628.148 642.657 618.498 643.907 608.598C652.974 590.463 666.052 576.399 669.107 555.448C673.357 545.598 673.357 535.948 673.357 524.798C671.97 519.25 666.661 515.736 669.107 509.448C677.232 501.522 678.73 497.326 680.216 493.164L680.257 493.048Z" fill="currentColor"/>
<path fill-rule="evenodd" clip-rule="evenodd" d="M803.15 617.25L1000 500L803.15 382.75C793.3 357.55 780.9 335.3 765.55 313.05L810.3 188.7L687.2 233.2C666.15 217.85 642.45 205.25 617.45 195.6L500 0L382.75 196.85C358.126 206.613 334.732 219.233 313.05 234.45L190.15 189.7L234.85 312.6C219.55 333.6 206.95 357.35 197.25 382.35L0 500L196.85 617.2C206.61 641.842 219.23 665.252 234.45 686.95L189.7 811.35L312.6 766.6C334.115 782.114 357.563 794.755 382.35 804.2L500 1000L617.2 803.15C642.45 793.3 664.7 780.9 687 765.55L811.3 810.3L766.8 687.2C782.435 665.887 794.695 642.294 803.15 617.25ZM309.493 690.507C258.964 639.977 230.553 571.46 230.5 500C230.553 428.54 258.964 360.023 309.493 309.493C360.023 258.964 428.54 230.553 500 230.5C648.1 230.5 769.5 351.9 769.5 500C769.5 648.1 648.1 769.5 500 769.5C428.54 769.447 360.023 741.036 309.493 690.507Z" fill="currentColor"/>
</g>
</svg>
