<svg width="1000" height="1000" viewBox="0 0 1000 1000" fill="none" xmlns="http://www.w3.org/2000/svg">
<path fill-rule="evenodd" clip-rule="evenodd" d="M56 249L499.55 0L943.05 249V749.05L499.6 1000L56 749.05V249.05V249ZM853.45 567.85C735 179.75 401.35 364.5 401.35 364.5L472.45 139C472.45 139.05 614.65 120.5 743.3 230.5C900.8 367.85 853.45 567.85 853.45 567.85ZM374.2 159.3C374.2 159.3 167.8 223.5 139 460.95C128.3 602.8 191.55 693.95 203.1 710.55C204.35 712.35 205 713.25 204.9 713.35L428.4 664.3C428.4 664.3 98.35 454.3 374.2 159.3V159.3ZM266 772.85C266 772.85 404.65 923.85 641.75 837.35C787.3 771.2 829.65 649.05 829.65 649.05L680.75 477.85C680.75 477.85 653.65 871.2 266 772.85V772.85Z" fill="#fff"/>
</svg>
