<svg width="1000" height="1000" viewBox="0 0 1000 1000" fill="none" xmlns="http://www.w3.org/2000/svg">
	<path id="honorofkings" d="M696.89,475.07c0.93,7.97,0.56,16.08,0.56,24.31
	c0,104.33-82.13,189.75-184.96,196.99V568.59c33.42-6.54,56.5-35.04,56.5-69.2c0-34.17-23.08-62.66-56.5-69.2V238
	c0,0,2.17,45.74,51.65,63.66l0.37-0.03c75.88,24.32,132.84,90.91,143.15,172.06L696.89,475.07z M293.93,525.85
	c10.31,81.16,67.27,147.74,143.15,172.06l-0.79-0.03c49.48,17.93,50.5,63.66,50.5,63.66V569.37c-33.42-6.54-56.5-35.04-56.5-69.2
	c0-34.17,23.08-62.66,56.5-69.2V303.18c-102.83,7.24-183.81,92.66-183.81,196.99c0,8.23,0.21,16.34,1.14,24.31L293.93,525.85z
	 M938.8,378.06c0,0-0.03-0.08-0.07-0.19c-0.99-3.55-5.83-21.63-7.34-29.19c-11.23-56.4-22.54-185.07,68.61-306.06l-44.98,44.9
	c0.18-0.32,0.34-0.63,0.52-0.95L759.45,282.74l-23.79,23.75l0.04,0.01l-0.09,0.09c0.04,0.05,0.93,1.15,1.15,1.42
	c42.57,52.43,68.09,119.26,68.09,192.06c0,168.4-136.52,304.92-304.92,304.92c-73.45,0-140.84-25.98-193.48-69.24L199.7,842.51
	c80.16,70.34,185.21,113,300.23,113c82.47,0,161.1-22.45,227.82-60.79c0,0,25.81-16.07,39.67-26.6l-11.59-15.84
	c71.92-55.7,94.88-96.06,94.88-96.06l17.45,10.96c6.56-8.7,18.29-24.99,25.62-39.4c39.15-67.23,61.59-144.29,61.59-227.7
	c0-42.27-5.79-83.18-16.57-122.02L938.8,378.06z M61.69,621.4c0,0,0.03,0.08,0.07,0.19c0.99,3.55,5.83,21.63,7.34,29.19
	c11.23,56.4,22.54,185.07-68.61,306.06l44.98-44.9c-0.18,0.32-0.34,0.63-0.52,0.95l196.09-196.18l23.79-23.75l-0.04-0.01l0.09-0.09
	c-0.04-0.05-0.93-1.15-1.15-1.42c-42.57-52.43-68.09-119.26-68.09-192.06c0-168.4,136.52-304.92,304.92-304.92
	c73.45,0,140.84,25.98,193.48,69.24l106.75-106.75c-80.16-70.34-185.21-113-300.23-113c-82.47,0-161.1,22.45-227.82,60.79
	c0,0-25.81,16.07-39.67,26.6l11.59,15.84c-71.92,55.7-94.88,96.06-94.88,96.06l-17.45-10.96c-6.56,8.7-18.29,24.99-25.62,39.4
	c-39.15,67.23-61.59,144.29-61.59,227.7c0,42.27,5.79,83.18,16.57,122.02L61.69,621.4z" fill="currentColor"/>
</svg>