<svg width="1000" height="1000" viewBox="0 0 1000 1000" fill="none" xmlns="http://www.w3.org/2000/svg">
<path d="M79.4375 0H346.904V804.9H748.938L693.271 1000H79.4375L129.938 897V103.067L79.4375 0Z" fill="#fff"/>
<path d="M87.4669 304.7C50.3536 371.841 30.9226 447.317 31.0002 524.033C31.0002 603.433 51.4669 678.167 87.4669 743.367V304.7Z" fill="#fff"/>
<path d="M499.767 63.1999C462.601 63.2237 425.564 67.5639 389.4 76.1332V148.667C425.299 138.51 462.426 133.351 499.734 133.333C719.167 133.333 897.1 307.667 897.1 522.833C897.1 619.7 860.9 708.3 801.2 776.433L764.8 904.167C887.8 821.133 968.567 681.833 968.567 524.067C968.5 269.5 758.634 63.1999 499.767 63.1999Z" fill="#fff"/>
<path d="M389.398 763.167H756.798C817.632 700.667 855.132 616.033 855.132 522.833C855.132 330.467 696.032 174.567 499.732 174.567C461.232 174.567 424.165 180.667 389.398 191.733V763.167Z" fill="#fff"/>
</svg>
