<svg width="1000" height="1000" viewBox="0 0 1000 1000" fill="none" xmlns="http://www.w3.org/2000/svg">
<path d="M744 383.85C739.8 272.9 730.3 230.8 724 230.8C717.5 230.8 715.5 292.25 707.1 346.55C698.6 400.75 683.8 462.2 683.8 462.2L645.8 447.7C645.8 447.7 635.15 369.3 630.95 275.35C626.8 181.35 623.6 99.35 611.85 99.35C600.35 99.2 598.2 176.5 593.95 276.6C589.75 376.6 574.95 432.05 574.95 432.05L540.15 427.2C540.15 427.2 523.25 340.4 516.9 75.35C515.5 12.6 500.15 0 500.15 0C500.15 0 484.8 12.6 483.35 75.35C477 340.4 460 427.2 460 427.2L425.25 432.05C425.25 432.05 410.4 376.65 406.15 276.55C401.95 176.5 399.8 99.2 388.25 99.3C376.6 99.3 373.4 181.4 369.1 275.35C364.95 369.35 354.4 447.7 354.4 447.7L316.4 462.2C316.4 462.2 301.7 400.7 293.25 346.5C284.75 292.25 282.65 230.8 276.3 230.8C270 230.8 260.45 272.9 256.25 383.85C252 494.7 251 516.35 251 516.35C251 516.35 375.65 569.45 424.2 706.95C472.8 844.3 485.1 963.6 485.45 976.85C486.1 997.35 500.15 1000 500.15 1000C500.15 1000 512.35 997.4 514.8 976.85C516.35 963.7 527.45 844.3 576.1 706.95C624.6 569.45 749.25 516.35 749.25 516.35C749.25 516.35 748.25 494.7 744.05 383.85H744Z" fill="#fff"/>
</svg>
