<svg width="1000" height="1000" viewBox="0 0 1000 1000" fill="none" xmlns="http://www.w3.org/2000/svg">
	<path id="mobilelegends" d="M407.5,4.8c-32.7,14.3-106.1,33.3-170.6,44.3c-13.9,2.4-21.2,6.3-47.1,25.1
		C125.6,120.9,79.3,179.9,50.7,251l-5.4,13.2v233.6c0,136.6-0.5,238.7-1.3,246.2c-0.7,7.1-2.5,17.7-3.9,23.6
		c-5.4,21.1-16.4,50.9-21.3,57.9l-2.9,4.1l2.9-2c1.6-1,21.9-18.2,45.2-38.1c44.7-38.4,105-89.8,112.1-95.7l4.2-3.5l2-28.5
		c3.9-60.8,3.7-165.9-0.7-225c-2.6-35.8-5.8-69.9-8.6-95.3l-2-16.8l6.4-7.5c3.7-4.1,13-13.8,20.8-21.3
		c48.5-47.1,99.5-83.8,159.5-114.5c24-12.2,49.9-23.3,51.7-22.3c2.9,1.7,0.9,5.6-6,12.4c-35.8,35.1-62.9,88.4-71.9,141.4
		c-0.4,2.5-1.6,9.3-2.6,15.1c-7.7,43.1-11.1,109.6-8.6,173.8c1.7,47.1,2.1,52.8,4.7,83.6c1,11.9,2.5,31.3,3.3,43.2
		c0.7,11.9,1.6,25.4,2,30.1c0.4,4.7,0.9,23.8,1.4,42.6l0.8,34L311.9,753c-11.4,9.7-25.5,21.7-31.4,26.8c-5.9,5-21.2,18.3-34.2,29.5
		c-12.8,11.1-28.2,24.2-33.9,29.2c-5.8,5-24.9,21.5-42.6,36.8c-17.7,15.2-39.2,33.7-47.8,41.1c-21.1,18.3-86.4,74.5-93,80
		c-2.9,2.4-4.1,3.9-2.6,3.5c5.8-2.1,56.4-14,77.9-18.3c32.2-6.4,71.8-12.7,100.8-15.7c87-9.3,137.8-11.8,240.3-11.9
		c92.3,0,153.6,2.5,238.1,9.4c22.5,1.8,28.3,2,34,0.5c61.8-14.9,108.2-40.3,150.3-82.5c34.4-34.6,56.7-70.8,72-117.1l5.1-15.5V520
		c0-157.5,0.4-232.3,1.4-239.9c3.8-29.6,19.1-72.3,34.7-96.9c5-7.9,3.8-7.6-5,0.9c-4.6,4.5-12.7,11.8-18.2,16.4
		c-5.4,4.6-18.1,15.5-28,24.1c-10.1,8.6-31.3,26.8-47.1,40.6c-16,13.6-38.6,33.3-50.5,43.5l-21.6,18.6l-1.7,26.6
		c-2.5,43.7-4.6,94.8-4.6,114.3c0,36,4.3,116.3,9.3,169.6c1.7,19.8,3.5,40.3,3.9,45.6l0.8,9.6L791,720.1
		c-36.4,36.1-65.9,59.8-104.6,84.1c-29.5,18.6-71.1,40.1-94.7,49c-8.8,3.3-9.8,3.4-11.7,1.6c-2-1.8-1.4-2.8,4.3-9.7
		c25.8-30.1,47.7-68.8,60-105.4c11.9-35.6,19.3-75.3,25.3-136.6c2.5-25.9,3.4-119.6,1.3-143.7l-1.2-12.7L629,481.7
		c-22.5,19.3-57.4,49-77.5,66.3c-20.2,17.2-41.4,35.2-47,40.2c-5.8,4.8-11,8.9-11.8,8.9c-0.8,0-32.3-30.9-70.2-68.8l-68.8-68.8
		l-0.4-26.6c-0.7-39.7,3.4-72.4,14.3-114.6c5.2-20.6,6.9-25.1,9-25.1c0.7,0,11,10.7,23,23.8c12,13.2,27.6,30.1,34.6,37.7
		c28.7,31.2,53.3,58.3,56.4,62.1l3.4,4.1l6.4-5.2c3.5-2.9,13.5-11.4,22.1-18.7c8.6-7.5,20.7-17.9,26.8-23.2
		c6.2-5.2,29.7-25.4,52.4-44.8c22.7-19.5,61.3-52.6,85.8-73.7c86.8-74.8,107.4-92.5,122.6-105.4c57.5-49,163.3-140.3,162.9-140.5
		c-0.3-0.3-2.6,1-5.5,2.9c-10.6,6.9-63.1,26.5-95.5,35.4C812.9,64,754.9,70.9,679.8,70.8c-62.7-0.1-119.6-5.4-194.5-17.8l-27-4.5
		l-17.5,3.8c-44.3,9.4-85.4,21.7-126.4,37.7L304,94.2l-2.9-3.7c-1.6-2-2.9-3.9-3-4.5c0-1.6,27.9-25.1,44.9-37.8
		c18.5-13.8,40.9-28.2,61.3-39.3c8.3-4.5,15.2-8.3,15.5-8.5C421.2-0.8,416.9,0.6,407.5,4.8z" fill="currentColor"/>
</svg>
