<svg width="1000" height="1000" viewBox="0 0 1000 1000" fill="none" xmlns="http://www.w3.org/2000/svg"><path d="M264.942.834c-3.239 1.126-11.056 7.746-15.915 13.38-22.042 25.563-28.943 60.703-19.929 101.196 2.676 11.901 8.662 29.577 13.591 39.788 4.014 8.45 11.901 21.408 15.07 24.859 2.043 2.323 1.127 2.676-3.169 1.267-31.549-10.422-55.421-34.154-63.027-62.675-1.62-6.268-1.831-8.31-1.831-18.31-.07-11.971.704-16.76 4.085-26.83 1.83-5.493 5.915-14.085 8.168-17.324 2.606-3.592 1.127-7.535-2.535-6.62-2.042.493-6.619 6.902-9.507 13.38-9.718 21.479-9.154 50.493 1.409 71.619 13.239 26.267 36.126 43.662 65.844 50 4.084.845 4.577 1.197 13.028 9.366 4.859 4.718 11.267 10.352 14.225 12.605 15.211 11.338 33.873 20.493 53.168 26.126 8.803 2.536 23.38 5.705 23.873 5.141.212-.141-2.394-.986-5.774-1.831-14.296-3.591-35.986-12.816-50.845-21.69-8.802-5.211-21.478-14.859-28.661-21.689l-5.634-5.352 3.521.422c1.972.211 7.817.493 13.028.704l9.507.282-7.605-.634c-10.916-.915-19.507-2.605-21.127-4.014-2.817-2.605-10.774-13.31-15-20.352-7.676-12.746-12.676-26.267-16.126-43.591-7.465-37.394-1.338-69.999 17.887-95.773 4.225-5.634 11.619-13.31 15.774-16.338 4.437-3.31 5.141-4.718 3.31-6.549-1.549-1.55-5.282-1.831-8.803-.563ZM726.556 1.397c-1.831 1.83-1.127 3.24 3.31 6.55 1.901 1.337 5.422 4.647 7.957 7.323 16.268 16.972 25.352 37.112 28.099 62.323 3.098 27.958-4.367 62.394-18.521 86.055-4.226 7.042-12.183 17.747-15 20.352-1.62 1.409-10.211 3.099-21.127 4.014l-7.605.634 9.507-.282c5.211-.211 11.126-.493 13.028-.704l3.521-.422-5.634 5.352c-7.183 6.83-19.859 16.478-28.661 21.689-14.859 8.874-36.549 18.099-50.845 21.69-3.38.845-5.986 1.69-5.774 1.831.493.564 15.07-2.605 23.872-5.141 19.296-5.633 37.958-14.788 53.169-26.126 2.958-2.253 9.366-7.887 14.225-12.605 8.451-8.169 8.943-8.521 13.028-9.366 29.718-6.338 52.605-23.733 65.844-50 10.563-21.126 11.127-50.14 1.409-71.618-2.888-6.48-7.465-12.888-9.507-13.38-3.662-.916-5.141 3.027-2.536 6.619 2.254 3.24 6.338 11.83 8.169 17.324 3.381 10.07 4.155 14.859 4.085 26.83 0 10-.211 12.042-1.831 18.31-7.606 28.521-31.479 52.253-63.027 62.675-4.296 1.409-5.212 1.056-3.169-1.267 3.169-3.451 11.056-16.409 15.07-24.859 4.929-10.211 10.915-27.887 13.591-39.788 7.817-35 3.592-66.83-12.112-90.844-6.972-10.704-18.24-21.831-24.014-23.803-3.662-1.197-6.901-.986-8.521.634Z" fill="#ffffff"/><path d="M326.984 27.171c-20.704 4.578-41.69 23.24-51.267 45.493-4.578 10.633-6.268 18.802-6.69 32.394-.493 14.929.915 25.14 5.563 40.351 2.183 7.183 2.606 6.972 1.197-.493-4.859-25.422-2.464-51.9 6.268-69.224 3.38-6.831 5.915-10.352 12.042-16.831 9.014-9.436 19.718-16.69 31.197-20.986 5.493-2.112 6.408-2.253 15.352-2.253h9.506l8.24 3.31c4.577 1.83 9.014 3.31 9.929 3.31 3.31 0 5.071-3.874 2.958-6.62-1.268-1.62-9.084-5.423-15.563-7.465-6.479-2.113-21.549-2.605-28.732-.986ZM649.867 26.749c-7.465 1.549-19.084 6.549-20.845 8.873-2.113 2.817-.352 6.62 3.099 6.62.845 0 5.211-1.48 9.788-3.31l8.239-3.31h9.507c8.944 0 9.859.14 15.352 2.253 11.479 4.296 22.183 11.55 31.197 20.986 6.127 6.479 8.662 10 12.042 16.83 8.732 17.324 11.127 43.803 6.268 69.225-1.409 7.465-.986 7.676 1.197.493 4.648-15.211 6.056-25.422 5.563-40.351-.422-13.592-2.113-21.76-6.69-32.394-8.943-20.845-29.154-39.507-48.38-44.859-4.929-1.408-21.619-2.042-26.337-1.056ZM454.236 74.565c-14.085 4.014-25.775 17.676-26.761 31.408-.422 5.141-.633 5.915-3.028 8.803-3.591 4.366-5.422 7.605-7.112 12.394-5.916 17.253 2.535 40.422 20.563 56.267 2.183 1.901 3.873 3.732 3.732 3.943-.141.282-1.76.705-3.591.916-1.902.282-7.958 1.76-13.592 3.239-18.239 4.93-22.464 5.775-29.577 5.775-10.281 0-17.887-3.521-21.69-9.93-1.69-2.957-1.901-3.873-1.901-10.281 0-6.056.211-7.465 1.69-10.211 2.183-4.226 3.38-5.493 6.69-7.183 4.225-2.183 9.437-2.465 12.887-.705 3.31 1.691 5.423 5.423 4.719 8.24-.634 2.535.845 2.253 2.253-.493 3.38-6.479-4.155-20.704-13.38-25.141-2.465-1.197-5.07-1.76-9.648-2.042-7.183-.352-11.126.704-15.07 4.225-2.254 1.972-4.93 7.183-4.437 8.803.141.493-1.197 1.549-2.887 2.465-4.296 2.253-6.831 5.704-8.169 10.915-2.394 9.366 2.183 21.408 9.718 25.352 1.057.563 1.268 1.69 1.409 5.915.422 12.183 9.155 21.972 23.028 25.634 4.859 1.338 15.845 1.338 21.83.07 7.254-1.549 19.859-6.126 31.831-11.549 19.718-8.943 31.197-11.408 43.168-9.084 9.578 1.831 10.775 1.972 9.226.986-6.057-3.803-16.831-12.606-23.028-18.733-12.042-12.112-18.873-23.168-22.254-35.915-2.535-9.366-2.676-24.154-.352-33.45 3.451-13.732 13.803-30.704 23.451-38.38 2.605-2.112 3.169-2.816 2.324-3.168-2.043-.775-7.606-.353-12.042.915ZM533.742 73.72c-.493.211.493 1.408 2.605 3.099 9.648 7.675 20 24.647 23.451 38.379 2.323 9.296 2.183 24.084-.353 33.45-3.38 12.747-10.211 23.803-22.253 35.915-6.197 6.127-16.971 14.93-23.028 18.733-1.549.986-.352.845 9.226-.986 11.971-2.324 23.45.141 43.168 9.084 11.972 5.423 24.577 10 31.831 11.549 5.985 1.268 16.971 1.268 21.83-.07 13.873-3.662 22.606-13.451 23.028-25.634.141-4.225.352-5.352 1.409-5.915 7.535-3.944 12.112-15.986 9.718-25.352-1.338-5.211-3.873-8.662-8.169-10.915-1.69-.916-3.028-1.972-2.887-2.465.493-1.62-2.183-6.831-4.437-8.803-3.944-3.521-7.887-4.577-15.07-4.225-4.578.282-7.183.845-9.648 2.042-9.225 4.437-16.76 18.662-13.38 25.141 1.408 2.746 2.887 3.028 2.253.493-.704-2.817 1.409-6.549 4.719-8.24 3.45-1.76 8.662-1.478 12.887.705 3.31 1.69 4.507 2.957 6.69 7.183 1.479 2.746 1.69 4.155 1.69 10.211 0 6.408-.211 7.324-1.901 10.281-3.803 6.409-11.409 9.93-21.69 9.93-7.113 0-11.338-.845-29.577-5.775-5.634-1.479-11.69-2.957-13.592-3.239-1.831-.211-3.45-.634-3.591-.916-.141-.211 1.549-2.042 3.732-3.943 8.239-7.254 14.225-15.563 18.38-25.493 6.831-16.267 5.141-30.915-4.929-43.168-2.395-2.888-2.606-3.662-3.028-8.803-1.057-13.873-12.747-27.464-27.113-31.408-4.436-1.268-10-1.69-11.971-.845Z" fill="#ffffff"/><path d="M335.223 89.494c-7.465 1.409-15.352 6.69-20.07 13.31-1.972 2.817-3.451 4.225-4.366 4.225-2.324.071-6.902 2.465-9.014 4.648-1.057 1.127-2.606 3.592-3.521 5.563-2.324 5.071-2.324 20 .07 30.634 4.648 21.056 10.775 32.957 24.014 46.76 9.155 9.577 20.986 18.309 32.746 24.154 7.042 3.522 7.324 3.31 2.324-1.901-22.253-23.169-34.859-49.013-33.45-68.591 1.478-20.14 17.112-39.647 29.858-37.323 4.014.704 8.944 3.451 12.535 6.831l3.169 3.098v-2.887c-.07-7.605-3.662-16.619-8.732-21.69-6.056-5.986-16.126-8.732-25.563-6.83ZM651.768 89.776c-7.887 1.972-13.239 6.056-16.971 12.817-2.113 3.943-4.015 11.126-4.015 15.422v2.887l3.169-3.098c3.592-3.38 8.521-6.127 12.535-6.831 12.747-2.324 28.38 17.183 29.859 37.323 1.409 19.578-11.197 45.422-33.45 68.591-5 5.211-4.718 5.423 2.324 1.901 11.76-5.845 23.591-14.577 32.746-24.154 13.239-13.803 19.366-25.704 24.014-46.76 2.394-10.634 2.394-25.563.07-30.633-.915-1.972-2.465-4.437-3.521-5.564-2.113-2.183-6.69-4.577-9.014-4.648-.915 0-2.394-1.408-4.436-4.295-3.522-4.93-9.719-9.789-15.282-11.902-5.211-1.901-12.887-2.394-18.028-1.056ZM470.573 100.128c-8.943 3.239-15.704 13.028-18.028 26.267-1.69 9.93 1.057 24.437 6.761 35.493 3.028 5.845 8.591 13.239 9.366 12.464.141-.211 0-.774-.352-1.267-1.197-1.549-3.592-8.451-4.507-12.887-1.338-6.127-1.127-20.775.282-26.62 2.112-8.591 4.154-11.478 14.013-20.211 5.493-4.859 5.916-9.718 1.127-12.676-2.535-1.549-5.352-1.69-8.662-.563ZM521.066 100.621c-4.789 3.099-4.366 7.887 1.126 12.746 9.859 8.733 11.902 11.62 14.014 20.211 1.409 5.845 1.62 20.493.282 26.62-.915 4.436-3.31 11.338-4.507 12.887-.352.493-.493 1.056-.352 1.267.775.775 6.338-6.619 9.366-12.464 5.704-11.056 8.451-25.563 6.76-35.493-.492-2.676-1.83-7.394-3.028-10.493-1.76-4.577-3.028-6.478-6.126-9.577-6.409-6.408-12.958-8.52-17.535-5.704ZM494.658 121.395c-6.479 1.831-12.395 8.592-13.944 15.845-1.056 5.282-.352 12.324 1.69 16.268 2.042 3.943 4.014 4.647 4.014 1.408 0-2.465 2.042-6.831 3.944-8.521 5.986-5.211 15.352-4.155 18.521 2.042 3.45 6.761 2.535 14.437-3.24 27.465-5.422 12.323-6.478 15.633-7.324 23.38-.704 6.056-.352 14.929.634 16.478.212.352 1.057-2.887 1.972-7.253 1.972-9.648 5.141-17.535 11.479-28.591 9.718-16.972 10.915-20.352 10.915-31.69-.07-9.789-1.338-14.507-5.422-19.507-4.507-5.563-8.31-7.605-14.648-8.028-3.169-.141-6.549.071-8.591.704ZM464.306 213.507c-4.718.845-11.408 4.014-15.634 7.394-9.014 7.253-17.746 23.873-19.999 38.239-2.747 17.535 4.154 33.802 19.084 45.281 4.929 3.732 15.985 10.07 16.549 9.437.141-.141-1.127-2.747-2.887-5.775-6.761-11.901-9.93-24.366-9.296-36.619.634-12.676 4.296-21.831 12.817-32.605 7.605-9.437 14.577-13.521 23.168-13.521 2.465 0 5.775.493 7.395 1.056 2.887.986 2.887.986 2.112-.493-1.69-3.169-7.253-8.38-10.774-10-6.197-2.887-15.07-3.873-22.535-2.394ZM520.573 213.648c-2.324.422-5.704 1.549-7.535 2.394-3.169 1.549-8.733 6.831-10.352 9.859-.775 1.479-.775 1.479 2.112.493 1.62-.563 4.93-1.056 7.395-1.056 8.591 0 15.563 4.084 23.168 13.521 8.521 10.774 12.183 19.929 12.817 32.605.634 12.253-2.535 24.718-9.296 36.619-1.76 3.028-3.028 5.634-2.887 5.775.563.633 11.62-5.705 16.549-9.437 14.929-11.479 21.831-27.746 19.084-45.281-1.619-10.141-6.901-22.676-13.098-30.915-9.225-12.253-22.957-17.535-37.957-14.577ZM168.394 220.972c-1.338.915-2.394 3.521-2.394 6.056 0 7.676 12.113 24.788 22.957 32.535 5.634 4.014 14.648 8.239 21.761 10.14 7.957 2.183 25.14 2.676 36.337 1.127 26.408-3.662 44.788-15 54.084-33.38 2.042-4.014 1.549-4.436-.986-.915-4.296 6.338-14.155 14.154-24.084 19.295-11.62 5.986-24.155 9.225-39.366 10.07-11.056.634-16.408-.281-24.718-4.295-10.563-5.141-22.253-17.254-29.436-30.634-3.873-7.183-7.324-10.563-10.704-10.563-1.479 0-3.028.282-3.451.564ZM823.245 223.084c-1.479 1.479-3.944 5-5.493 7.887-7.183 13.38-18.873 25.493-29.436 30.634-8.31 4.014-13.662 4.929-24.718 4.295-15.212-.845-27.747-4.084-39.366-10.07-9.93-5.141-19.789-12.957-24.084-19.295-2.535-3.521-3.028-3.099-.986.915 11.69 22.958 38.239 35.281 73.52 34.155 12.958-.423 18.943-1.761 28.38-6.198 10.915-5.07 20.07-13.028 26.69-23.309 5.915-9.155 7.746-15.282 5.774-19.084-1.127-2.183-1.972-2.606-5-2.606-2.183 0-3.169.493-5.281 2.676ZM418.954 229.845c-11.338 6.76-19.718 13.591-33.239 27.253-18.45 18.591-25.07 23.661-36.619 27.887-4.648 1.69-6.338 1.971-13.45 1.971h-8.169l-6.902-3.45c-5.845-2.887-7.957-4.437-14.014-10.352-3.943-3.803-7.253-6.972-7.394-6.972-.141 0 0 2.324.211 5.07 1.831 19.155 11.127 30.916 27.324 34.718 2.606.634 7.887 1.057 12.958 1.057 26.549 0 36.478-7.395 58.168-43.591 8.521-14.155 15.281-23.521 23.098-31.972 2.747-2.957 4.93-5.422 4.789-5.422-.141 0-3.169 1.69-6.761 3.803ZM579.304 231.394c7.887 8.521 14.578 17.817 23.169 32.042 21.69 36.196 31.619 43.591 58.168 43.591 5.071 0 10.352-.423 12.958-1.057 16.197-3.802 25.492-15.563 27.323-34.718.212-2.746.352-5.07.212-5.07-.141 0-3.451 3.169-7.395 6.972-6.056 5.915-8.169 7.465-14.014 10.352l-6.901 3.45h-8.169c-7.112 0-8.802-.281-13.45-1.971-11.549-4.226-18.169-9.296-36.62-27.887-12.675-12.817-21.196-19.93-31.055-25.986-9.507-5.774-9.859-5.774-4.226.282Z" fill="#ffffff"/><path d="M417.405 255.408c-7.605 8.38-15 20.281-18.732 30.21-5.775 15.352-7.183 35.211-3.38 47.324 1.69 5.211 6.408 10.281 10.845 11.479 2.887.774 3.309 1.197 5.14 4.999 2.395 4.86 8.099 10.986 12.183 13.099 8.381 4.296 24.507 3.521 31.549-1.479 2.113-1.479 5-7.042 4.296-8.239-.211-.423-.845-.705-1.409-.705-2.042 0-13.309-4.225-17.746-6.69-9.577-5.281-17.394-12.957-20.774-20.563-3.24-7.324-4.296-13.38-4.296-25.563 0-6.408.352-14.154.845-17.253 1.479-9.577 3.521-19.648 5.211-25.633.916-3.099 1.479-5.705 1.127-5.705-.282 0-2.465 2.113-4.859 4.719ZM579.163 256.394c1.691 5.985 3.733 16.056 5.212 25.633.493 3.099.845 10.845.845 17.253 0 12.183-1.057 18.239-4.296 25.563-3.38 7.606-11.197 15.282-20.774 20.563-4.437 2.465-15.704 6.69-17.747 6.69-.563 0-1.197.282-1.408.705-.704 1.197 2.183 6.76 4.296 8.239 7.042 5 23.168 5.775 31.549 1.479 4.084-2.113 9.788-8.239 12.182-13.099 1.831-3.802 2.254-4.225 5.141-4.999 4.437-1.198 9.155-6.268 10.845-11.479 2.887-9.225 2.747-25.422-.352-37.464-2.817-10.916-6.408-18.944-13.239-29.014-4.085-6.127-12.324-15.775-13.38-15.775-.352 0 .211 2.606 1.126 5.705ZM492.545 278.013l-7.535 7.535 11.971 11.972v86.83l-5.915 9.295-5.915 9.225-.493 30.775c-.634 38.098 0 206.124.986 246.264 2.112 85.281 5.352 179.293 8.873 259.151.563 12.747 1.338 30.845 1.76 40.141.423 9.295.845 18.661.916 20.774.141 2.115.281-130.843.352-295.559l.141-299.362-3.662-.493c-8.028-1.127-6.127-1.691 5.774-1.691 11.972 0 14.437.634 6.55 1.691l-3.733.493.141 299.362c.07 164.716.211 297.674.352 295.559.071-2.113.493-11.479.916-20.774.422-9.296 1.197-27.394 1.76-40.141 3.521-79.858 6.761-173.87 8.873-259.151.986-40.14 1.62-208.166.986-246.264l-.493-30.775-5.915-9.225-5.916-9.295v-86.478l5.986-5.986c3.31-3.239 5.986-6.197 5.986-6.479 0-.634-14.225-15-14.788-15-.212 0-3.803 3.381-7.958 7.606ZM269.661 305.125c-3.451 3.662-1.409 11.056 5 17.887 9.647 10.282 22.182 15.704 36.337 15.704 6.69 0 19.929-1.901 23.943-3.45 3.451-1.268 9.578-4.93 9.085-5.352-.141-.141-1.69.211-3.38.774-1.691.564-6.902 1.409-11.479 1.761-13.099 1.127-22.113-.564-33.098-6.268-5.564-2.887-10.423-7.816-14.718-15.07-3.099-5.211-4.648-6.62-8.028-7.324-1.62-.281-2.395 0-3.662 1.338ZM724.443 304.773c-1.62.845-3.38 2.817-5.493 6.268-4.436 7.464-9.155 12.253-14.718 15.14-10.986 5.704-20 7.395-33.098 6.268-4.577-.352-9.789-1.197-11.479-1.761-1.69-.563-3.239-.915-3.38-.774-.493.422 5.634 4.084 9.084 5.352 4.014 1.549 17.254 3.45 23.944 3.45 14.155 0 26.69-5.422 36.337-15.704 6.338-6.831 8.451-14.225 5.071-17.816-1.902-2.043-3.028-2.113-6.268-.423Z" fill="#ffffff"/><path d="M491.7 373.223c-5.634 5.845-12.113 10.704-18.38 13.732l-5.845 2.887 7.676 3.31c4.225 1.831 7.957 3.31 8.31 3.31 1.197 0 6.478-6.408 8.309-10 2.042-3.943 3.944-11.901 3.662-14.788l-.211-2.043-3.521 3.592ZM504.728 371.815c0 3.661 1.901 10.844 3.803 14.647 1.831 3.592 7.112 10 8.309 10 .352 0 4.085-1.479 8.31-3.31l7.676-3.31-5.915-2.887c-6.55-3.239-10.352-6.056-17.395-12.957l-4.788-4.578v2.395Z" fill="#ffffff"/></svg>
