<svg width="1000" height="1000" fill="none" xmlns="http://www.w3.org/2000/svg">
  <g id="osu" fill="#000">
    <path d="M250.333 604.667c-15.667 0-29.334-2.666-41-7.666-11.667-5-21.334-12.334-28.667-21.334-7.667-9-13.333-19.666-17.333-32-4-12.333-5.667-25.333-5.667-39.666 0-14.334 2-27.667 5.667-40 4-12.334 9.666-23.334 17.333-32.334 7.667-9 17.333-16.333 28.667-21.666 11.333-5.334 25.333-8 41-8 15.666 0 29.333 2.666 41 8 11.666 5.333 21.333 12.333 29.333 21.666 7.667 9 13.333 20 17.333 32.334 3.667 12.333 5.667 25.666 5.667 40 0 14.333-2 27.333-5.667 39.666-3.666 12.334-9.333 23-17.333 32-7.667 9-17.333 16.334-29.333 21.334-11.334 5.333-25.334 7.666-41 7.666Zm0-40.333c14 0 24-5.333 30-15.667 6-10.333 9-25.333 9-44.666 0-19.334-3-34.334-9-44.667-6-10.333-16-15.667-30-15.667-13.667 0-23.667 5.334-29.667 15.667s-9 25.333-9 44.667c0 19.333 3 34.333 9 44.666 6 10.667 16 15.667 29.667 15.667Zm172.666-48.333c-14-4-25-10-32.666-17.667-8-8-11.667-19.667-11.667-35.333 0-19 6.667-33.667 20.333-44.667 13.667-10.667 32-16 55.667-16 9.667 0 19.333 1 28.667 2.667 9.333 1.666 19 4.333 28.666 8-.666 6.333-1.666 13.333-3.666 20.333-2 7-4.334 13-7 18.333-6-2.333-12.667-4.666-19.667-6.666-7.333-2-15-2.667-22.667-2.667-8.333 0-15 1.333-19.666 4-4.667 2.667-7 6.667-7 12.667 0 5.333 1.666 9.333 5 11.666 3.333 2.334 8 4.334 14.333 6.334l21.333 6.333c7 2 13.334 4.333 19 7.333 5.667 3 10.334 6.334 14.334 10.667s7 9.333 9.333 15.667c2.333 6.333 3.333 14 3.333 22.666 0 9.334-2 17.667-5.666 25.667-4 8-9.334 15-16.667 20.667-7.333 6-16.333 10.333-26.667 14-10.333 3.333-22.333 5-35.666 5-6 0-11.334-.334-16.334-.667s-9.666-1-14.333-2-9-2-13.667-3.333a259.34 259.34 0 0 1-14.666-5c.333-6.667 1.666-13.667 3.666-20.334 2-7 4.334-13.666 7.334-20 8.333 3.334 16 5.667 23.333 7.334 7.333 1.666 15 2.333 23 2.333 3.333 0 7.333-.333 11.333-1s8-1.667 11.334-3.333c3.333-1.667 6.333-3.667 8.666-6.334 2.334-2.666 3.667-6 3.667-10.333 0-6-1.667-10.333-5.333-13-3.667-2.667-8.667-5-15-7l-24.334-6.333Zm131-109c9-1.334 17.667-2.334 26.667-2.334 8.667 0 17.667.667 26.667 2.334v102.333c0 10.333.666 18.667 2.333 25.333 1.667 6.667 4 12 7.333 15.667 3.334 4 7.667 6.667 12.667 8.333 5 1.667 11 2.334 17.667 2.334 9.333 0 17-1 23.333-2.667V407.001c9-1.334 17.667-2.334 26.333-2.334 8.667 0 17.667.667 26.667 2.334v186c-8 2.666-18.667 5.333-31.667 8-13 2.666-26.666 4-41 4-12.666 0-25-1-36.666-3-11.667-2-22-6.334-31-12.667s-16-16-21-28.333c-5.334-12.334-8-29-8-49.667V407.001h-.334Zm219.667 193.333c-1.333-9.333-2.333-18.333-2.333-27.333s.666-18.334 2.333-27.667c9.333-1.333 18.333-2.333 27.333-2.333s18.334.666 27.667 2.333c1.333 9.333 2.333 18.667 2.333 27.333 0 9.334-.666 18.334-2.333 27.667-9.333 1.333-18.667 2.333-27.333 2.333-9.334-.333-18.334-1-27.667-2.333Zm-1.333-269c9.666-1.333 19.333-2.333 28.666-2.333 9.667 0 19.334.666 29.334 2.333l-3.667 183c-8.667 1.333-17 2.333-25 2.333-8.333 0-17-.666-25.333-2.333l-4-183Z"/>
    <path d="M500 0C224 0 0 224 0 500s224 500 500 500 500-224 500-500S776 0 500 0Zm0 950C251.333 950 50 748.667 50 500S251.333 50 500 50s450 201.333 450 450-201.333 450-450 450Z"/>
  </g>
</svg>
