<svg width="1000" height="1000" viewBox="0 0 1000 1000" fill="none" xmlns="http://www.w3.org/2000/svg">
<g clip-path="url(#clip0)">
<path d="M500.53 147.661C421.219 147.661 344.098 173.907 280.996 222.375L191.129 110.935C279.562 41.5697 388.401 3.93901 500.42 4.00007C612.438 4.06113 721.238 41.8098 809.596 111.271L720.063 222.375C656.961 173.907 579.84 147.661 500.53 147.661Z" fill="#fff"/>
<path d="M747.766 246.049L837.299 134.575C888.625 181.179 929.641 238.17 957.674 301.834C985.708 365.497 1000.13 434.406 999.999 504.068C1000.37 780.011 776.166 1004 500.166 1004C224.167 1004 0 780.011 0 504.068C0 434.359 14.5498 365.432 42.7022 301.77C70.8546 238.11 111.979 181.142 163.4 134.575L253.3 246.082C195.357 300.718 157.54 373.596 146.05 452.764C134.561 531.931 150.081 612.687 190.066 681.786L387.233 490.785L479.566 281.861V600.106L284.533 788.956C347.059 835.901 422.923 861.256 500.866 861.256C578.809 861.256 654.674 835.901 717.199 788.956L522.2 599.737V282.231L614.199 491.189L811.366 682.19C851.328 612.981 866.799 532.13 855.243 452.888C843.688 373.647 805.792 300.716 747.766 246.049Z" fill="#fff"/>
</g>
<defs>
<clipPath id="clip0">
<rect width="1000" height="1000" fill="white"/>
</clipPath>
</defs>
</svg>
