<svg width="1000" height="1000" viewBox="0 0 1000 1000" fill="none" xmlns="http://www.w3.org/2000/svg">
<g id="paladins">
<path fill-rule="evenodd" clip-rule="evenodd" d="M879.068 627.601C879.068 625.551 878.468 624.151 877.967 623.001V622.951C877.618 622.101 877.317 621.401 877.317 620.701C765.274 453.461 644.581 275.871 513.589 118.98C510.139 115.53 506.689 113.83 501.489 113.83C496.34 113.83 491.14 115.53 489.44 118.98C358.397 275.871 237.704 451.711 125.661 620.701C123.911 622.401 123.911 624.151 123.911 625.851V634.5C123.911 636.2 125.661 637.95 127.361 639.65C127.361 639.65 127.361 641.4 129.111 641.4C129.872 642.112 130.752 642.687 131.711 643.1C132.655 643.531 133.519 644.123 134.26 644.85C280.802 696.547 399.795 775.842 489.39 880.986L492.89 884.486C492.89 884.486 494.59 884.486 494.59 886.186C496.34 887.936 499.789 887.936 501.489 887.936C503.239 887.936 506.689 887.936 508.389 886.186C508.389 886.186 510.089 886.186 510.089 884.486C510.993 884.439 511.849 884.062 512.495 883.425C513.139 882.791 513.528 881.939 513.589 881.036C603.233 775.842 722.176 696.547 868.718 644.85C870.418 644.85 872.168 643.1 873.918 641.4C873.918 641.4 875.618 641.4 875.618 639.65C876.468 638.8 876.918 637.95 877.317 637.05C877.491 636.721 877.665 636.392 877.862 636.064C878.175 635.542 878.546 635.021 879.068 634.5V627.601ZM334.299 572.354L499.789 317.218L665.28 574.103C611.833 608.552 558.386 648.249 499.789 694.797C447.772 649.894 392.452 608.964 334.299 572.354ZM299.801 563.804L179.108 600.002H179.007C273.902 458.61 375.647 312.069 482.49 179.326V281.02L299.801 563.804ZM517.038 177.689V177.627H516.988L517.038 177.689ZM517.038 177.689V279.321L699.778 562.054L820.471 598.302C725.642 456.933 623.964 310.364 517.038 177.689ZM191.157 632.801L308.4 598.302C369.952 636.609 428.714 679.23 484.24 725.845V829.289C403.245 744.794 304.95 679.298 191.157 632.801ZM517.038 827.589V724.145H516.988C573.18 678.351 631.903 635.752 692.878 596.552L810.122 631.051C694.578 679.298 596.334 744.844 517.038 827.589Z" fill="currentColor"/>
<path fill-rule="evenodd" clip-rule="evenodd" d="M487.553 995.043C486.98 994.434 486.457 993.778 485.987 993.081C372.194 858.589 206.703 744.845 20.5125 675.849C18.0698 675.109 15.8452 673.778 14.0401 671.972C12.2351 670.167 10.9031 667.943 10.1631 665.499C9.16982 662.972 8.80363 660.24 9.09963 657.54C9.39716 654.84 10.3447 652.252 11.8644 650L23.9624 632.751C167.005 410.364 316.997 181.077 489.437 5.13753C496.337 -1.71251 508.386 -1.71251 513.586 5.13753C689.474 186.227 844.566 424.113 987.658 651.75C989.181 653.999 990.136 656.585 990.441 659.285C990.745 661.984 990.391 664.717 989.407 667.249C988.665 669.691 987.331 671.913 985.526 673.718C983.721 675.523 981.5 676.856 979.059 677.599C791.119 746.544 625.629 858.589 511.836 994.83C510.136 998.231 504.936 999.981 499.786 999.981C497.086 1000.11 494.397 999.55 491.98 998.342C490.316 997.51 488.817 996.392 487.553 995.043ZM51.512 651.7C229.102 720.696 385.993 827.59 499.786 956.883C611.83 827.59 770.469 720.696 948.01 651.75C811.818 436.212 665.277 213.825 499.786 41.4353C337.325 210.645 196.455 428.033 59.2341 639.786L59.1608 639.901L51.512 651.7Z" fill="currentColor"/>
</g>
</svg>
