<svg width="1000" height="1000" viewBox="0 0 1000 1000" fill="none" xmlns="http://www.w3.org/2000/svg">
<path d="M502.65 80.5661C608.273 80.5228 710.071 120.107 787.928 191.498C865.785 262.889 914.037 360.893 923.15 466.143H660.4C652.6 429.341 632.405 396.332 603.19 372.637C573.975 348.942 537.513 335.997 499.9 335.967C462.28 336 425.812 348.952 396.597 372.656C367.381 396.361 347.19 429.381 339.4 466.193H82.1C91.2678 360.959 139.535 262.983 217.378 191.596C295.222 120.208 396.988 80.5927 502.6 80.5661H502.65ZM590.4 466.143C594.35 476.745 596.5 488.098 596.5 500H596.7C596.713 512.688 594.225 525.254 589.378 536.979C584.531 548.704 577.421 559.358 568.454 568.332C559.486 577.306 548.838 584.423 537.117 589.277C525.397 594.131 512.835 596.626 500.15 596.619C474.534 596.593 449.973 586.406 431.855 568.294C413.737 550.182 403.54 525.622 403.5 500H403.3C403.287 487.308 405.777 474.738 410.626 463.01C415.476 451.281 422.591 440.625 431.564 431.65C440.537 422.676 451.191 415.56 462.917 410.709C474.643 405.858 487.211 403.368 499.9 403.381C541.35 403.381 576.75 429.586 590.4 466.193V466.143ZM497.15 919.684C391.527 919.727 289.729 880.143 211.872 808.752C134.015 737.361 85.7628 639.358 76.65 534.107H339.4C347.19 570.919 367.381 603.939 396.597 627.644C425.812 651.349 462.28 664.3 499.9 664.333C537.527 664.298 574 651.339 603.217 627.624C632.433 603.909 652.62 570.878 660.4 534.057H917.9C908.684 639.317 860.368 737.301 782.481 808.686C704.595 880.071 602.791 919.674 497.15 919.684V919.684ZM499.9 0C223.85 0 0 223.895 0 500C0 776.105 223.85 1000 499.9 1000C775.95 1000 1000 776.305 1000 500C1000 223.695 776.15 0 499.9 0Z" fill="#fff"/>
</svg>
