<svg width="1000" height="1000" viewBox="0 0 1000 1000" fill="none" xmlns="http://www.w3.org/2000/svg"><path fill-rule="evenodd" clip-rule="evenodd" d="M49 222c4-5 9-8 16-10 8-2 21-2 48-2l134 1c95 0 108 1 106 4-1 2 0 2 2 2s3-1 2-2c0-2 10-3 43-3s43 1 43 3l2 2c1 0 2-1 1-2l5-3a3766 3766 0 0 1 175 0h3l95-1h92l27-1c18 0 53 3 56 5l17 1c29-1 33 7 35 65 2 38 3 40 12 38 9-3 30-1 33 2s3 3 0 2-4 0-3 1c0 2 2 3 3 3 2-1 2 3 2 10l2 18c1 6 0 9-5 13-5 6-6 6-23 6h-19l1 126v125l19 2c19 1 20 1 25 10 2 4 0 37-2 37l-3 2c-1 2 0 3 3 3s3 0 0 2c-4 2-27 3-33 1-3-1-5-1-5 2-1 2-2 21-2 44 0 45-1 48-16 56-10 4-64 7-62 4 1-2 1-3-2-3l-2 2c1 1-40 1-90 1l-107-1c-14 0-16 0-15-3 1-2 0-3-1-3-2 0-3 1-3 3 0 4-74 6-121 4l-79-1c-46 0-47 0-49-4-2-5-7-8-7-4l2 1c1-1 2 0 2 3l-2 4-2-2c0-2-1-2-3 0s-6 2-19 2l-29 1c-29 2-205 1-265-2-40-2-42-5-41-61l1-40H28c-26 0-27-1-27-35 1-16 1-16 7-20 4-2 11-4 20-4s14-1 14-2c1-4 3-242 2-247-1-3-4-3-18-3-15 0-16-1-21-6s-6-7-5-13l1-18c0-7 1-11 3-11 1 1 3 0 3-2 1-2 0-2-3-1s-3 1 0-2c4-4 25-6 35-3l2 1c2-1 2-6 2-24v-45c0-20 0-21 6-28Zm820 45a24969 24969 0 0 1-768 1v25l-2 26v10c3 9 3 35 0 37-2 0-1 1 0 2h1c2 1 2 8 2 248-1 66-1 75-4 74-2-1-3 0-3 3s1 4 3 3c3-1 3 1 3 15 0 10 1 17 2 18l28 2c16 0 26 1 27 2 1 2 2 2 4 0 3-3 10-4 10-1h38a8081 8081 0 0 1 249 2c-1 2 0 3 3 3s4-1 3-3c-1-3 14-4 126-4a16493 16493 0 0 1 305 0c2-2 2-15 1-62a25289 25289 0 0 0-4-387v-11h-10c-6 0-11-2-12-3-1-2-2-2-2 0Zm-150 55 44-1h47c14 2 18 4 23 9l6 6-1 34c0 19-1 35-2 36-2 2-32 3-39 2-5-1-7-7-3-7 2 0 2 0 0-2l-2-16c0-6 0-10-2-12s-8-2-20-2l-15 1 1 34c2 68 1 214-2 217-3 4 0 6 18 6 16 1 16 1 18-4 2-4 1-7 0-10-2-2-3-13-2-27v-70l-7-4-6-3v-20c0-13 1-21 3-23 1-2 11-2 31-2h28l3 5c2 6 3 160 1 180-2 12-10 22-20 25-11 4-95 3-103-1-4-1-9-6-12-10l-5-9v-77l1-85c1-5 0-28-1-51-2-45-2-72 0-92 1-10 3-13 10-19l8-8Zm-554 46c0-29 0-41 2-43s18-2 62-2c64 1 70 2 75 11 1 3 2 34 2 95l-1 90-5 6c-7 7-19 10-51 10-30 0-31 0-29 9l1 54 1 8c0 48 1 64-6 70-5 3-12 2-23 2-20 0-21 0-23-5-1-3-3-5-4-5s-2-29-2-64a609 609 0 0 1 4-66c0-4-7-10-9-8l-1-22c0-20 1-24 4-27s3-8 3-34c0-22 1-30 3-31l2-6c0-5 0-5-2-3l-1 2-2-41Zm85 30v-23c0-3-2-3-14-3l-14 1-1 49c1 33 1 48-1 48-3 0-2 6 1 9l17 4c12 0 13 0 12-3 0-3 0-4 2-3 3 1 4 0 4-6 0-8-3-10-5-4a465 465 0 0 1-1-69Zm97-24c-4 1-5-45-1-50l6-2c6 2 20 2 24 0 2-1 7 0 13 4l9 4v43c1 63 0 236-1 243-2 7 5 13 11 10s15-3 18 1 3 4 7 0c3-3 3-8 4-32 0-19 2-29 3-30 2-1 1-2-1-4-4-2-5-10-1-10a4427 4427 0 0 1 0-136c-1-64-2-83 6-88 4-2 10-2 19-2 15 0 18 1 18 3 0 4 4 5 5 1 0-1 2-2 3-1a23046 23046 0 0 0 3 131c1 123-1 193-5 202-7 13-11 14-72 14l-55 1-7-5c-5-4-7-8-9-15a3287 3287 0 0 1 2-256c-2 1-3-1-2-10 0-8 1-11 3-11 1 1 3-1 3-2 0-2-2-3-3-3Zm184 39c-3-10-2-86 1-89 1-2 15-2 54-2 57 0 67 1 73 8 4 4 5 6 4 41l-1 67c-1 32-3 41-11 46-3 2-2 4 11 18 4 4 4 7 4 76 0 55 1 79-10 89-10 9-30 8-69 9h-55l-1-8c-1-5 0-9 1-10v-3c-1-2-2-31-2-71 0-49-1-67-3-68-1 0-2-2-2-5l-2-5c-4-2-3-31 1-35 2-2 3-4 2-5-1-2 0-3 2-3 4 0 6-7 4-11l-1-17v-22Zm79 38v-79l-14-2h-12l-1 25a1590 1590 0 0 0-1 41l1 9 1 18 9 2c15 2 16 1 17-14Zm0 103-1-35c-2-4-19-5-22-3s-4 9-4 48l-2 52c-1 6-1 8 2 10 3 4 25 5 27 2l1-21v-20l-1-33Z" fill="#fff"/></svg>
