<svg width="1000" height="1000" viewBox="0 0 1000 1000" fill="none" xmlns="http://www.w3.org/2000/svg">
<g id="rainbowsix">
<path d="M490.303 699.629H525.604C528.318 700.079 531.101 699.473 533.382 697.935C535.663 696.398 537.269 694.046 537.871 691.362V646.028C538.29 643.192 538.102 640.299 537.321 637.541C536.539 634.783 535.182 632.222 533.337 630.028C530.909 629.063 528.567 627.892 526.337 626.528C522.071 623.794 518.837 626.528 514.337 628.294C519.186 630.145 523.54 633.095 527.057 636.912C530.573 640.729 533.157 645.31 534.604 650.295C526.534 645.22 517.089 642.775 507.57 643.294C498.437 644.628 490.103 649.128 484.037 656.061V688.128C483.912 689.819 484.188 691.516 484.842 693.08C485.497 694.644 486.511 696.031 487.803 697.129L490.303 699.629Z" fill="currentColor"/>
<path d="M747.608 175.221C747.608 50.0522 644.973 0.0180863 500.304 0.0180863C338.101 -1.2486 253 64.0857 253 175.221V824.764C253 949.933 355.635 1000 500.337 1000C641.239 1000 747.608 934.666 747.608 824.797V429.991C747.608 334.39 547.371 293.823 463.77 351.923V196.488C463.77 164.487 537.371 166.487 537.371 196.488V287.656L747.608 287.889V175.221ZM480.27 524.393C481.537 527.159 482.803 529.393 483.537 531.66C485.123 535.977 488.035 539.682 491.855 542.245C495.675 544.807 500.207 546.096 504.804 545.926C516.337 545.926 614.205 515.659 615.206 515.659C624.706 512.893 631.472 519.159 638.973 526.393C646.506 533.66 644.973 591.994 644.973 602.727C637.239 602.727 558.638 618.261 555.871 618.761C552.847 619.331 550.018 620.665 547.655 622.637C545.292 624.609 543.473 627.154 542.371 630.028V701.862L537.604 708.396C523.837 708.396 482.037 715.396 482.037 733.396V887.365C473.37 892.698 463.403 895.498 453.236 895.365L450.503 898.132H422.969L418.202 892.132H414.702V886.865H412.436C411.309 887.098 410.136 886.954 409.1 886.454C408.064 885.954 407.221 885.126 406.702 884.098L414.202 868.831V561.193L408.436 555.693V546.193L415.702 544.193V534.193C415.702 524.393 469.037 525.659 480.27 524.393Z" fill="currentColor"/>
</g>
</svg>
