<svg width="1000" height="1000" viewBox="0 0 1000 1000" fill="none" xmlns="http://www.w3.org/2000/svg">
<g id="rocketleague">
<path d="m215 330 1-21s-3-2-3-6l2-29c2-10 7-19 13-27h6c-6 9-11 18-14 28l10 6-2 24-2 2v4l2 2-2 10-2 3h2v2h2v2h-13ZM439 469l-9-30 2-2 31-2c-3 14-12 26-24 34ZM431 417l15-27a37 37 0 0 1 18 31l-31-2-2-2ZM252 336l1-6v12h-2l1-4h-2v-8l-2 14h-11l2-21-1-1s-4-2-4-5l2-31c3-10 7-19 13-26l18 5v1l2-4 37 8-8 1-8 1-23-6v1l27 6-33 6-1 2a7 7 0 0 0-1 1v1h-2v8l-2 2v2a180 180 0 0 1 20 11h4l2 2s-7-2-9 2c-2 6-4 11-4 17 0 0 0 6 11 6v1l-2 2h-3l-4-4-2-4-18-9v7h2v10ZM416 417l-16-12a48 48 0 0 1 37-18l-18 28-3 2Z" fill="currentColor"/>
<path d="m255 330 2 2v12h-2v-14ZM261 349l2-13v13h-2ZM265 352l2-14v14h-2ZM257 348l2-14v14h-2ZM205 228A120 120 0 1 1 35 58a120 120 0 0 1 170 170Z" fill="currentColor"/>
<path fill-rule="evenodd" clip-rule="evenodd" d="M995 149C937 108 794 35 510 35c-83-1-166 7-247 23a167 167 0 0 1-17 195l24 5 4-9 5 1c0-9 6-9 6-9a2 2 0 0 1 1-1c17 6 33 13 48 22 12 5 12 7 12 7a265 265 0 0 0 54-7l-18 6 15 8 25 8h1l15 6c6 2 12 2 17 0l35-20-56-19 16-4 69 6c23 3 45 9 66 19l10 2 1-6-16-6 2-12a4 4 0 0 1 1-3l2-1 26 6 16 9a67 67 0 0 0 13 8l-4 12a27 27 0 0 1 10 6l2 2 10 8a9 9 0 0 1 4 10l13 13v6l33 33v2l-15 10c12-1 25 1 37 6 15 7 17 11 17 15l-10 4c-14 7-27 15-40 24v2l15 3a93 93 0 0 1 72-17c79 16 133 68 145 112v3l1 1 1 4c79-186 71-319 66-379h-2ZM427 253l7-2a144 144 0 0 0-7 2Z" fill="currentColor"/>
<path d="M317 271s-6-6-37-9l2-14c18 6 36 13 52 21l-17 2ZM319 331c1-4 4-7 8-10 2-2 5-2 7-1-2 0-4 1-7 5-8 10-10 25 0 29-6 0-8 0-10-9 0-5 0-9 2-14ZM338 323l-4-3 4 3ZM153 643c-18-27 11-36 37-36 210 7 432 121 473 222a59 59 0 0 1-21 75c-41 28-85 53-131 74l-14-7c-70-32-210-98-344-328ZM466 354c18 3 35 13 46 28l-11 2-6-2c-9-10-19-20-29-28ZM427 473l-11-29h-4l-20 24a42 42 0 0 0 35 5ZM605 303l-10 4 12 21 38 14a66 66 0 0 0-40-39ZM495 344l24 33c19-20 60-27 112-25-45-10-91-12-136-8ZM423 315c17 0 34 2 51 6-16-10-33-17-51-22v16ZM601 421l-33 29 25 8 25-27-13-6-4-4ZM580 286c-2-4-5-4-20-7l-9-1c-23-4-41-4-45-4l-5 2-22 13c-10 6-11 8-13 12s4 10 4 10l15 19 8 4 50-4h50c2 0 0-8-3-17-4-9-8-18-10-27ZM723 460a24 24 0 0 1 6 23h-22v-2l16-21Z" fill="currentColor"/>
<path d="M336 359h-4l-9-2c-10-2-6-19-6-19l-12 4c-6-10-13-20-21-29l-4 15 14 21-6 6-2 6a7 7 0 0 1-2 4l-8 4h-2l-27-22v16h2c3 7 9 12 16 15 6 4 14 5 21 3l6 2a8 8 0 0 1 2 2c8 4 10 2 10 2l12-4h1l2-2 4-8 27 2c13-15 31-26 51-31 25 0 50 9 69 27a68 68 0 0 1 15 54l43 14-19-14c-13-27-31-52-52-73l-16-2c-3-1-7-3-9-6l-6-7-4-8-10-8c-12-4-25-6-38-8-12-2-12 0-12 0 15 3 30 7 44 12l4 6c-19-4-39-4-58 0a18 18 0 0 1 0 19c-5 4-10 7-16 9ZM703 498l6 24 12-13 8-16-24 2-2 3ZM692 476l4 6 2-2 15-19v-2c-8-1-21 17-21 17ZM644 440l-11-3-27 30 19 6c4-12 11-23 19-33ZM686 485c-6 10-8 21-8 33l10-21v-4c2 0 0-4-2-8ZM676 359l-5 10-24 6c-9 3-17 8-25 13-2 2-2 8-2 10l3 1a8 8 0 0 0 2 1l-17 15 4 4 42 14c8-5 16-9 24-10l-50-21-1-1-2-1-2-1a4 4 0 0 1-1 0 1 1 0 0 1 0-1v-6c19-12 41-19 64-19l6-12-16-2ZM702 529l-8-24h-2l-11 22 1 2c7 2 13 2 20 0ZM392 415a46 46 0 0 0-3 43l17-24v-5l-14-14Z" fill="currentColor"/>
<path d="m719 433-1-1a8 8 0 0 1-2-1c59-26 167 45 172 120-14-14-38-15-65-16-30-1-65-2-93-21 8-15 12-33 11-50a32 32 0 0 0-19-29l-3-2ZM269 338l4-2v16l-4 2v-16Z" fill="currentColor"/>
<path d="M831 576a139 139 0 0 1-110-48v2a51 51 0 0 1-45 24c-16-4-31-12-42-24-6-10-10-21-10-33l-39-13-47-27-8-2a51 51 0 0 1-53-13 90 90 0 0 1-76 61 91 91 0 0 1-67-47c-7-18-7-38 0-56l-19-4-8-10a58 58 0 0 1-48 12 83 83 0 0 1-52-48c-3-13-2-26 4-38-2-7-4-14-4-22h-2v-5c-25 17-55 25-86 24-34 0-67-10-95-28 6 50 17 99 32 148 21 77 91 102 195 119 230 37 451 213 435 321 73-64 135-140 182-225 25-41 2-68-37-68Z" fill="currentColor"/>
</g>
</svg>
