<svg width="1000" height="1000" viewBox="0 0 1000 1000" fill="none" xmlns="http://www.w3.org/2000/svg">
<g id="runeterra">
<path fill-rule="evenodd" clip-rule="evenodd" d="M355.691 754.991V222.297C355.691 201.197 335.092 169.248 324.842 155.899C324.042 155.398 322.692 153.498 323.342 149.898C323.893 146.299 329.592 145.398 332.343 145.398H522.241C599.089 145.398 673.688 170.998 673.688 281.747C673.688 370.395 618.438 455.844 590.788 487.494C619.189 563.843 678.537 724.241 688.788 754.991C699.037 785.74 715.687 803.94 722.687 809.239C724.187 810.34 725.688 811.49 725.688 814.49C725.688 817.54 723.437 818.24 721.937 818.24H568.99C568.189 818.24 566.539 817.69 565.99 815.24C565.624 813.89 565.891 812.477 566.336 811.321C566.684 810.422 567.139 809.677 567.49 809.239L577.989 791.14C588.289 773.04 586.789 759.49 584.789 754.991L512.44 554.543L455.94 602.743V754.991C455.94 773.04 473.99 798.19 483.09 808.489C484.091 808.74 486.09 810.14 486.09 813.74C486.09 817.39 482.541 818.24 480.841 818.24H329.343C325.592 818.24 324.842 815.99 325.592 813.74C326.57 811.582 327.831 809.564 329.343 807.739C354.543 771.04 354.993 765.041 355.643 756.24L355.691 754.991ZM456.691 483.044V223.047H501.89C561.589 223.047 572.489 274.797 570.49 300.646C570.49 392.295 494.59 459.394 456.691 483.044Z" fill="currentColor"/>
<path fill-rule="evenodd" clip-rule="evenodd" d="M109.3 77.5991L252.598 6.30027C260.948 2.14994 270.147 0 279.447 0H721.142C730.577 0.0076293 739.877 2.23386 748.292 6.50016L749.961 7.3432C801.155 33.1653 883.591 74.7465 892.989 79.099C896.65 80.8209 899.694 83.6217 901.714 87.1258C903.734 90.6299 904.633 94.6689 904.29 98.6987L874.889 440.044C874.889 444.344 873.24 454.244 866.59 459.644L865.389 460.644C854.44 469.494 810.091 505.343 810.091 550.843C810.091 598.292 840.991 645.042 847.79 651.041C849.141 652.334 850.247 653.848 851.065 655.512C851.452 656.301 851.776 657.123 852.029 657.972C852.818 660.61 852.908 663.408 852.29 666.092C845.241 724.64 830.89 844.539 829.69 855.989C829.202 860.217 827.715 864.268 825.349 867.807C822.984 871.346 819.811 874.271 816.091 876.339L788.796 887.205C686.197 928.053 521.058 993.8 511.694 997.637C508.859 998.877 505.844 999.639 502.772 999.899C501.983 999.966 501.19 1000 500.395 1000C496.505 1000 492.659 999.195 489.094 997.637C387.846 957.487 184.049 876.489 178.649 874.088C173.199 871.689 170.849 862.989 170.348 858.988C163.549 801.989 149.549 684.791 147.749 672.141C145.95 659.492 150.499 651.791 152.999 649.541C165.35 633.192 189.899 591.093 189.899 553.093C189.899 505.593 147 470.944 136.4 463.394C128 457.394 124.899 447.345 124.4 443.044C114.6 331.796 95 106.548 95 95.6988C95 84.8492 104.55 79.099 109.3 77.5991ZM184.699 129.748L284.797 81.3992V81.3489C286.848 80.3487 289.097 79.849 291.348 79.849H711.642C713.953 79.8665 716.226 80.4143 718.292 81.4488L816.141 129.648C817.439 130.29 818.631 131.112 819.682 132.083C820.795 133.11 821.751 134.305 822.516 135.631C824.002 138.212 824.69 141.176 824.49 144.148L807.491 412.794C807.189 416.745 805.445 420.446 802.591 423.195C781.042 444.444 745.292 493.544 745.292 550.843C745.753 595.035 759.844 638.007 785.64 673.891C788.204 677.15 789.435 681.259 789.09 685.391L774.091 831.989C773.817 834.7 772.811 837.285 771.181 839.468C769.552 841.652 767.361 843.353 764.841 844.389L504.644 952.288C500.944 953.837 496.795 953.837 493.095 952.288L233.698 844.439C228.548 842.239 224.999 837.439 224.498 831.94L210.198 685.941C209.862 681.49 211.299 677.086 214.199 673.691C229.799 654.642 253.998 610.692 253.998 550.843C253.998 489.644 218.898 442.994 197.298 423.344C194.073 420.494 192.098 416.489 191.799 412.195L176.199 144.198C176.023 141.218 176.737 138.254 178.251 135.68C179.765 133.107 182.009 131.042 184.699 129.748Z" fill="currentColor"/>
</g>
</svg>
