<svg width="1000" height="1000" viewBox="0 0 1000 1000" fill="none" xmlns="http://www.w3.org/2000/svg">
<path d="M499.297 398.748L448.993 415.288C448.993 415.288 579.263 413.288 686.73 413.908C805.943 414.598 773.587 499.352 777.69 513.138L761.153 507.625C761.153 507.625 753.573 536.568 663.99 606.165C451.06 752.255 159.573 778.442 159.573 778.442L237.44 682.655C325.643 663.362 579.233 563.442 619.89 512.448C634.81 493.735 610.373 493.648 593.703 495.912C593.703 495.912 514.417 502.285 431.767 505.558C362.167 508.315 358.39 453.775 358.39 453.775L359.41 427.692L284.3 458.012C488.96 236.122 788.027 170.658 887.257 203.045L811.457 307.098C706.747 308.645 621.267 309.165 499.297 398.748ZM810.947 378.555H849.75L1000 166.615C753.233 72.0883 321.393 190.495 198.01 508.905L296.517 505.775C305.633 530.028 327.217 548.988 357.73 564.155L196.933 616.852L0 864.128C432.453 843.488 650.54 733.808 790.05 591.492L887.257 590.495L849.75 508.905C861.177 463.232 845.387 420.042 810.947 378.555" fill="#fff"/>
</svg>
