<svg width="1000" height="1000" viewBox="0 0 1000 1000" fill="none" xmlns="http://www.w3.org/2000/svg">
<path id="simracing" d="M500 0C223.85 0 0 223.85 0 500C0 776.15 223.85 1000 500 1000C776.15 1000 1000 776.15 1000 500C1000 223.85 776.15 0 500 0ZM500 129C682.5 129 834.3 261.65 865 435.5H675.65C664.419 415.946 648.24 399.692 628.739 388.37C609.237 377.048 587.1 371.058 564.55 371H435.5C387.8 371 346.65 397.1 324.3 435.5H135.05C165.7 261.65 317.5 129 500 129ZM135 564.5H338.7L435.5 693.55V865C360.69 851.657 291.772 815.695 238.039 761.962C184.305 708.228 148.342 639.31 135 564.5V564.5ZM564.5 865V693.5L661.3 564.5H865C851.648 639.301 815.681 708.208 761.949 761.932C708.216 815.655 639.303 851.611 564.5 864.95V865Z" fill="currentColor"/>
</svg>
