<svg width="1000" height="1000" viewBox="0 0 1000 1000" fill="none" xmlns="http://www.w3.org/2000/svg">
<path id="smash" d="M231.74 589.963V78.3308C160.764 123.445 102.317 185.735 61.8089 259.436C21.3012 333.136 0.0422853 415.865 0 499.964C0.0666684 530.164 2.83341 560.264 8.23355 589.963H231.74ZM31.2675 673.163C69.0196 775.591 139.265 862.845 231.273 921.596V673.163H31.2675V673.163ZM991.793 589.963C1015.38 461.426 987.671 328.765 914.612 220.41C841.553 112.056 728.955 36.6298 600.949 10.2975C526.198 -5.11004 448.912 -3.20587 375.01 15.8642V590.697L991.793 589.963ZM375.01 673.163V984.096C494.987 1015.1 622.201 1000.45 731.997 943.007C841.794 885.56 926.355 789.401 969.292 673.163H375.01Z" fill="currentColor"/>
</svg>
