<svg width="1000" height="1000" viewBox="0 0 1000 1000" fill="none" xmlns="http://www.w3.org/2000/svg"><path id="splitgate" fill-rule="evenodd" clip-rule="evenodd" d="M207 532c9 12 21 22 34 29-35-4-108-46-127-66-33-33-51-77-51-123v-31a186 186 0 0 1 186-186h726a120 120 0 0 1-120 119H250a68 68 0 0 0-68 68s-6 115 4 151c4 14 11 28 21 39Zm615-93a111 111 0 0 1 55 68c10 36 4 150 4 150a68 68 0 0 1-68 68H120A120 120 0 0 0 0 845h814a186 186 0 0 0 186-186v-31c-1-46-19-90-52-123-36-32-80-54-126-66Zm-289 9a58 58 0 0 0-45 21l-2 2c-33 35-206 37-206 37s170-2 209 37h1a58 58 0 0 0 87 0c39-39 209-37 209-37s-173-2-206-37a58 58 0 0 0-47-23Z" fill="currentColor"/></svg>
