<svg width="1000" height="1000" viewBox="0 0 1000 1000" fill="none" xmlns="http://www.w3.org/2000/svg">
<path fill-rule="evenodd" clip-rule="evenodd" d="M923.892 567.47C906.193 466.426 799.899 426.728 689.155 399.98C562.713 368.232 454.169 355.382 445.319 306.785C444.363 301.191 444.533 295.463 445.819 289.936C447.469 283.936 451.069 277.987 454.419 273.087C475.668 246.289 523.365 236.389 569.362 236.389C577.612 235.389 585.361 236.389 591.061 237.389C599.06 237.389 606.81 238.389 613.26 240.339C614.51 239.339 615.26 240.339 616.259 240.339C623.009 241.339 629.459 243.339 634.908 245.289C650.307 251.238 662.207 259.188 670.506 269.087C673.706 272.087 676.656 276.037 678.256 280.987C680.256 284.986 681.906 289.936 682.556 294.836C684.206 299.836 683.856 304.785 684.256 310.735C684.006 311.735 684.755 312.735 684.455 313.735C684.105 318.684 682.256 325.584 687.705 327.584C695.205 329.584 709.204 329.584 711.204 329.584H954.94C959.84 329.584 964.689 329.534 969.789 328.284C974.667 327.139 979.247 324.974 983.228 321.932C987.209 318.89 990.501 315.04 992.888 310.635C995.787 305.235 996.887 299.386 997.737 293.886L998.237 290.386L998.737 286.936C999.137 277.987 1000.59 269.087 999.737 261.138C999.91 252.459 998.901 243.796 996.737 235.389C974.289 114.396 833.647 50 623.659 50C416.721 50 242.831 112.446 158.486 228.44C139.017 255.306 124.74 285.574 116.388 317.685C106.739 353.382 103.889 386.081 109.139 414.829C125.238 492.174 177.435 535.772 310.327 569.47C432.32 599.218 574.562 613.067 584.561 668.614C586.346 675.483 586.12 682.719 583.911 689.463C582.061 696.413 579.412 702.362 573.012 711.262C554.063 737.01 506.266 754.859 439.27 754.859C436.27 754.859 433.27 754.859 430.52 753.859C421.521 753.859 413.521 753.859 405.772 752.859C399.022 751.909 392.272 750.859 386.573 749.91C380.208 748.856 373.962 747.181 367.924 744.91C352.275 740.01 340.425 732.061 332.326 721.161C329.426 717.161 326.476 713.212 324.576 709.262C322.443 704.879 321.009 700.189 320.327 695.363C319.927 689.463 318.977 685.513 318.577 679.564C317.877 678.564 318.127 677.564 318.427 676.564C318.177 673.564 319.527 668.564 317.627 664.664C317.877 663.664 316.877 663.664 315.127 662.665C310.677 660.665 302.678 660.665 296.678 660.665H33.6432C33.6432 660.665 22.6438 660.665 14.1943 669.664C10.4946 672.849 7.67179 676.929 5.9948 681.513C3.09497 688.463 2.24502 695.363 1.09508 703.312C-0.0548502 711.262 0.0951411 718.161 0.195135 725.161C-0.554821 739.01 0.995089 751.909 2.495 764.809C26.1936 891.651 164.636 949.198 383.673 949.198C601.66 949.198 780.25 891.701 867.945 770.708C890.794 738.01 907.643 705.312 918.342 665.664C928.491 627.967 929.641 594.269 923.842 567.47H923.892Z" fill="#fff"/>
</svg>
