<svg width="1000" height="1000" viewBox="0 0 1000 1000" fill="none" xmlns="http://www.w3.org/2000/svg">
<g id="starcraft">
<path d="M53.5995 313.35C53.5995 313.35 25 236 164.2 236H522.301L410.15 349.95L374.6 313.35H53.5995Z" fill="currentColor"/>
<path d="M275.349 360.25H92.0502L357.3 669.6C367.101 681.2 364.751 687.9 339.25 687.9H220.151C201.28 688.747 182.433 685.809 164.717 679.256C147.002 672.704 130.777 662.672 117 649.75L0 764.25H412.5C501.199 764.25 564.6 680.95 478.2 594.6C430.499 546.9 318.851 413.1 275.349 360.25Z" fill="currentColor"/>
<path d="M559.7 309.75C559.7 309.75 607.401 236 642.2 236H1000L890.45 343.25L850.7 309.75H559.7Z" fill="currentColor"/>
<path d="M692.751 354.05H544.749L544.701 354.1C430.499 707.05 781.85 853 928 705.5C613.499 713 660.5 450.25 692.751 354.05Z" fill="currentColor"/>
</g>
</svg>
