<svg width="1000" height="1000" viewBox="0 0 1000 1000" fill="none" xmlns="http://www.w3.org/2000/svg">
<path d="M176.493 51.7665C202.406 59.1893 226.198 72.6323 245.927 90.9999C265.653 109.382 280.753 132.169 289.993 157.5H491.76V40.7333L364.993 0C299.949 11.6058 235.595 26.7954 172.227 45.5002C172.227 45.5002 172.994 50 176.493 51.7665Z" fill="#fff"/>
<path d="M359.727 320.5H338.493C381.226 372 448.227 451.766 490.227 497.267V293.733L412.227 375L359.727 320.5Z" fill="#fff"/>
<path d="M299.994 755.733H414.993V755.767C440.66 755.933 465.993 750.1 488.993 738.766C487.726 887 487.726 1000 487.726 1000C412.764 961.487 348.325 905.274 299.994 836.233V755.733Z" fill="#fff"/>
<path d="M775.761 585.267V314.5H733.227C717.993 352 683.227 471 733.227 545C743.925 561.677 758.522 575.497 775.761 585.267Z" fill="#fff"/>
<path d="M784.759 156H637.76C617.614 156.75 598.278 164.132 582.759 177V40.7333L710.26 0C772.286 11.4517 833.689 26.0595 894.226 43.7668H902.227V46.0002L901.894 46.7C901.226 48.1669 900.427 50 898.494 50C872.491 57.3873 848.616 70.8516 828.841 89.2822C809.067 107.712 793.957 130.581 784.759 156Z" fill="#fff"/>
<path d="M774.259 754C705.297 753.366 638.716 728.693 585.994 684.234C585.852 788.736 586.442 893.272 587.76 997.767V1000L589.76 996.734C663.944 958.34 727.754 902.591 775.761 834.234V754H774.259Z" fill="#fff"/>
<path d="M66.9999 275C66.9999 275 39.2666 200 174.234 200H521.5L412.734 310.5L378.267 275H66.9999Z" fill="#fff"/>
<path d="M282 320.5H104.267L361.5 620.5C371 631.767 368.767 638.233 344 638.233H228.5C210.206 639.05 191.934 636.197 174.76 629.842C157.585 623.488 141.856 613.76 128.5 601.233L15 712.233H415C501 712.233 562.5 631.5 478.733 547.767C432.5 501.5 324.267 371.733 282 320.5Z" fill="#fff"/>
<path d="M557.767 271.5C557.767 271.5 603.999 200 637.766 200H984.767L878.501 304L840 271.5H557.767Z" fill="#fff"/>
<path d="M686.733 314.5H543.266C432.5 656.767 773.234 798.234 915 655.233C609.999 662.5 655.501 407.733 686.733 314.5Z" fill="#fff"/>
</svg>
