<svg width="1000" height="1000" viewBox="0 0 1000 1000" fill="none" xmlns="http://www.w3.org/2000/svg"><path id="stormgate" fill-rule="evenodd" clip-rule="evenodd" d="M339.352 103.406c0-17.135 46.409-45.695 99.957-60.688 53.549-14.994 147.794-9.996 199.915 9.996 87.105 33.557 144.937 98.529 169.927 189.918 7.853 27.845 23.561 66.4 35.699 85.678 43.552 71.398 63.544 168.499 52.12 249.892-4.284 27.132-5.712 50.693-4.284 52.835 2.142 1.428 12.138-16.422 22.848-39.269 17.135-37.127 19.991-50.692 19.991-109.953 0-52.834-2.856-72.826-12.138-87.819-29.273-44.267-4.997-55.691 29.274-14.28 72.109 87.82 60.689 246.323-26.418 361.274-41.411 53.548-114.236 104.241-182.778 127.802-27.846 8.568-67.828 26.417-88.534 39.269-111.381 66.4-272.74 77.824-372.697 27.131-77.824-39.983-89.962-81.393-14.28-49.978 21.42 8.567 52.121 17.849 67.828 20.705 12.409 1.861 19.426 2.914 19.881 1.635.591-1.664-9.935-7.278-34.16-20.198-66.4-36.413-142.082-112.095-171.355-172.783-35.699-72.826-48.551-131.373-44.981-202.057 1.428-32.843 2.142-59.26.714-59.26s-11.424 18.564-21.42 40.697c-27.845 59.974-31.414 142.082-9.281 194.202 19.991 46.409 11.423 62.116-17.85 31.415C7.352 666.736-11.212 586.056 6.638 499.665 30.199 380.43 95.17 294.753 195.842 247.63c29.988-14.28 64.259-32.843 75.682-41.411 88.534-64.972 217.764-89.247 324.861-61.402l52.834 13.566-22.133-19.278c-53.549-47.836-164.215-64.258-239.183-35.699-46.409 17.85-48.551 17.85-48.551 0ZM547.12 354.013c-14.279-10.71-41.41-28.559-61.402-39.269-19.277-9.996-37.127-18.563-39.269-18.563-2.142 0-22.847 9.281-46.408 20.705-154.22 72.826-184.921 279.88-57.833 391.975 25.704 22.847 67.828 47.122 72.112 42.839 1.428-1.428-6.426-16.422-17.849-33.557-37.841-55.691-58.547-129.231-37.127-129.231 2.856 0 19.277 18.564 34.985 42.125 33.557 46.409 99.957 100.671 147.079 118.521 30.702 11.423 32.844 11.423 62.831-3.57 48.55-24.99 69.256-43.553 94.959-82.108 38.555-59.26 48.551-105.669 14.28-66.4-19.278 21.419-74.254 55.69-89.962 55.69-17.135 0-16.421-8.567 3.57-29.273 33.557-34.985 67.828-82.821 87.106-119.948 18.563-37.841 18.563-38.555 7.139-69.256-17.135-44.981-62.116-91.39-112.094-116.379-59.975-29.987-69.256-28.559-38.555 7.854 42.124 49.264 27.131 67.114-23.562 27.845Z" fill="currentColor"/></svg>