<svg width="1000" height="1000" viewBox="0 0 1000 1000" fill="none" xmlns="http://www.w3.org/2000/svg">
<path id="teamfortress" d="M624.1 15.4992C840.15 70.7465 1000 266.737 1000 499.975C1000 505.275 999.85 510.574 999.7 515.874L663.4 468.027C658.556 443.361 648.196 420.111 633.095 400.015C617.994 379.919 598.544 363.499 576.2 351.982L624.1 15.4992ZM351.95 423.779C363.478 401.439 379.91 381.996 400.015 366.905C420.121 351.814 443.379 341.465 468.05 336.633L515.9 0.349983C510.602 0.15056 505.301 0.0338853 500 0C266.7 0 70.7 159.792 15.5 375.881L352 423.729L351.95 423.779ZM423.75 648.018C401.415 636.495 381.975 620.072 366.883 599.977C351.791 579.881 341.439 556.634 336.6 531.973L0.3 484.076C0.117288 489.374 0.0172754 494.674 0 499.975C0 733.263 159.8 929.204 375.9 984.451L423.75 647.968V648.018ZM648 576.271C636.472 598.611 620.04 618.054 599.935 633.145C579.829 648.236 556.571 658.585 531.9 663.417L484.1 999.7C489.35 999.9 494.65 1000 500 1000C733.3 1000 929.25 840.208 984.45 624.119L648 576.271Z" fill="currentColor"/>
</svg>
