<svg width="1000" height="1000" viewBox="0 0 1000 1000" fill="none" xmlns="http://www.w3.org/2000/svg"><g id="tetris"><path fill-rule="evenodd" clip-rule="evenodd" d="M0 202.077C0 175.525 21.525 154 48.077 154h903.846c26.552 0 48.077 21.525 48.077 48.077v288.461c0 26.552-21.525 48.077-48.077 48.077H692.308v259.616c0 26.552-21.525 48.077-48.077 48.077H353.365c-26.552 0-48.076-21.525-48.076-48.077l-.001-259.616H48.077C21.525 538.615 0 517.091 0 490.539V202.077Zm307.692 28.846H76.923v230.769h230.769V230.923Zm307.693 0h-230.77v230.769h230.77V230.923Zm-230.77 307.692h230.77v230.77h-230.77v-230.77Zm307.693-307.692h230.769v230.769H692.308V230.923Z" fill="currentColor"/></g><defs></defs></svg>