<svg width="1000" height="1000" viewBox="0 0 1000 1000" fill="none" xmlns="http://www.w3.org/2000/svg">
<g id="tft">
<path d="M0 0L128.2 228.021H361.8V638.539C411.25 682.412 545.55 764.655 638.2 742.743V228.021H876.7L1000 0H0Z" fill="currentColor"/>
<path d="M236.89 349.685C191.84 361.042 149.99 384.604 155.19 428.727C165.49 514.974 290.64 686.314 517.89 772.26C699.69 841.046 766.99 797.322 777.94 766.857C784.44 747.746 783.54 689.915 727.79 611.524C658.09 513.522 830.49 664.052 841.34 717.08C851.19 765.306 839.79 634.887 718.34 516.174C709.59 507.619 716.84 494.712 727.84 500.115C801.59 536.534 905.34 622.48 952.59 784.465C1026.54 1038 672.34 1009.14 561.24 984.222C460.84 961.66 304.94 882.118 235.14 795.322C226.54 786.567 234.94 772.36 245.34 778.863C327.34 829.639 510.64 905.58 589.14 895.675C446.44 857.454 143.09 720.182 71.3398 477.253C53.5896 409.317 67.1398 295.406 238.09 323.422C250.89 325.523 249.49 346.484 236.89 349.685Z" fill="currentColor"/>
</g>
</svg>
