<svg width="1000" height="1000" viewBox="0 0 1000 1000" fill="none" xmlns="http://www.w3.org/2000/svg">
<path d="M971.5 317.45L994.6 294.35C997.3 293 998.6 288.95 998.6 286.25V193.95C998.6 191.25 998.6 187.2 997.3 184.45C953.85 217.05 985.05 160.05 995.95 150.55C997.3 146.5 998.65 142.4 998.65 138.35C998.65 127.5 997.3 116.65 998.65 105.75C1000 89.5 998.65 73.25 998.65 56.95C998.65 52.85 997.3 42 995.95 42C993.2 42 986.45 47.45 983.7 50.15C972.85 61 962 73.2 949.8 84.05C928.1 105.75 905 126.15 883.3 147.85C860.25 169.55 838.55 192.6 816.8 215.7C803.3 229.2 791.05 240.1 778.8 253.7C762.55 271.3 747.65 290.3 730 307.95C712.35 324.2 693.35 339.15 675.7 356.8L593 439.5C580.8 453.1 567.2 465.3 555 478.85C538.7 495.15 523.8 512.8 507.5 529.05C495.3 541.25 480.4 552.1 468.15 564.35C414.763 617.73 361.38 671.113 308 724.5C299.85 732.65 299.85 736.7 308 744.85C310.7 747.55 314.8 750.25 317.5 753C314.8 755.7 314.8 758.4 313.45 759.75L316.15 762.5C329.7 776.05 343.3 788.25 355.5 801.85C360.9 805.9 369.05 810 365 819.5L367.7 822.2C390.75 843.9 400.25 854.75 422 877.8C426.05 883.25 427.4 881.9 431.5 877.8C436.9 872.4 488.5 822.2 495.25 816.8C495.25 818.1 455.9 866.95 455.9 866.95C451.85 872.4 442.35 884.6 438.25 890.05C438.25 891.4 447.75 891.4 447.75 891.4C450.45 888.65 453.2 887.3 457.25 884.6C454.55 894.1 442.35 896.8 457.25 907.65C465.4 915.8 474.9 923.95 481.7 932.1C489.8 941.6 493.9 940.25 502.05 932.1C663.5 770.6 833.1 605.1 994.55 443.6C997.3 440.9 998.65 435.5 998.65 431.4V333.7L970.15 358.15L945.75 377.15C952.5 369 983.75 340.5 991.85 333.7C1000 326.95 1000 320.2 998.65 312C995.95 313.35 994.6 314.75 993.2 314.75C994.55 309.3 997.3 303.85 1000 298.45C998.65 298.45 998.65 297.1 997.3 297.1L981 309.3C979.65 309.3 971.5 316.1 971.5 317.45ZM493.9 75.95C481.7 86.8 468.1 98.95 455.9 111.2C447.75 118 441 127.5 432.85 135.6C417.9 150.55 401.65 162.75 386.7 177.7C373.15 189.9 362.3 204.8 350.05 217.05C339.2 227.9 325.65 238.75 314.8 249.6C212.813 352.944 110.144 455.613 6.8 557.6C4.05 560.3 4.05 563.05 4.05 565.75C6.8 577.95 5.45 590.15 5.45 602.4C5.45 605.1 4.05 630.9 5.45 633.6C142.45 516.9 90.95 565.75 10.85 656.65C10.85 658 9.5 658 9.5 658C4.05 664.8 4.05 679.7 4.05 690.6C2.7 780.1 4.05 857.45 4.05 945.65C4.05 949.75 2.7 952.45 8.15 955.15C12.2 957.85 14.95 953.8 17.65 951.1C81.4 887.3 145.15 822.2 208.95 758.4C222.5 746.2 234.75 732.65 246.95 719.05C257.8 706.85 267.3 696.05 278.15 685.15C282.25 681.05 287.65 678.35 293.1 674.3C322.95 649.85 346 620 371.8 591.55C386.7 575.25 404.3 558.95 420.6 542.7C430.1 533.2 443.7 525.05 453.2 515.55C529.2 440.9 605.2 366.3 679.8 290.3C687.9 282.15 696.05 274 704.2 264.5C711 259.1 705.55 260.5 704.2 257.75C702.85 255.05 700.15 252.3 698.8 249.6C693.35 241.45 690.65 240.1 681.15 244.15C679.8 242.8 678.45 242.8 677.05 241.45C673.074 225.873 663.428 212.34 650 203.5C643.2 196.75 644.55 189.95 635.05 191.3C633.7 189.95 633.7 187.25 632.35 185.9C631 184.5 628.25 185.9 626.9 187.25C622.85 191.3 599.8 214.35 594.35 218.45C587.55 223.85 602.5 203.5 603.85 200.8V199.45C605.2 195.35 617.4 185.9 618.75 183.15L617.4 177.75C613.35 180.45 609.3 185.9 605.2 189.95L591.65 198.1C594.35 194 602.5 183.15 605.2 179.1C607.9 175 612 172.3 613.35 169.6C612 166.9 607.9 165.5 607.9 162.8C605.2 156.05 598.4 149.25 591.65 147.9C582.15 146.55 571.3 146.55 572.65 132.95C572.65 131.6 571.3 131.6 571.3 130.25C565.85 122.1 561.8 112.6 556.35 104.45C554.86 103.031 552.979 102.09 550.95 101.75C542.8 101.75 534.65 103.1 527.85 103.1C529.556 99.7305 530.495 96.0252 530.6 92.25C530.6 88.2 530.6 80.05 525.15 77.35L506.15 88.2L504.8 69.2C497.95 65 492.55 74.5 493.9 75.9V75.95ZM227.95 261.75C154.7 189.9 82.75 118 10.85 46.05C9.5 43.35 5.5 42 4.05 43.35C1.35 44.7 0 48.8 0 51.5V180.4C0 184.45 1.35 188.55 4.05 192.6C8.15 198.05 13.55 203.45 17.65 208.9C17.65 210.25 16.3 210.25 16.3 210.25L4 198.05C4 199.4 2.65 199.4 2.65 199.4C6.75 204.8 9.45 210.25 13.5 215.7L12.2 217C8.15 212.95 5.5 207.5 1.35 203.45C-1.35 215.7 1.35 223.8 9.5 231.95C14.95 237.4 19 244.15 24.4 250.95L23.05 252.3C16.3 244.15 8.15 237.4 1.35 229.25C0 230.6 0 231.95 0 231.95V434.15C0 436.85 0 438.2 1.35 439.55L28.5 466.7C29.85 464 32.55 461.25 33.9 459.9L179.1 314.75C189.95 305.25 189.95 305.25 180.45 294.35C175.05 288.95 170.95 282.15 165.55 275.35H166.9C176.4 284.85 184.55 293 194.05 301.15L230.65 264.5L227.95 261.75ZM963.35 538.55L765.25 736.65V739.35C810.05 782.8 854.8 827.55 899.6 872.35C925.35 898.1 952.5 923.9 978.3 951.05C982.35 955.1 990.5 959.2 993.2 957.85C995.95 957.85 994.55 956.45 995.95 944.25V915.75C995.95 914.4 995.95 911.7 994.6 910.35C990.5 904.9 983.7 899.5 978.3 894.05C972.85 887.25 966.1 881.85 960.65 875.05C962 875.05 938.95 850.65 938.95 850.65C949.8 860.15 989.15 892.65 998.65 900.85V691.85C998.65 690.55 995.95 686.45 994.6 685.1C990.5 681 968.8 653.9 964.7 649.8C964.7 649.8 982.35 666.1 982.35 664.75C986.45 667.45 993.2 676.95 997.3 679.65C998.65 678.3 998.65 676.95 998.65 676.95V560.25C989.15 552.15 981 542.65 971.5 533.15C968.8 534.5 968.8 534.5 963.35 538.55Z" fill="#fff"/>
</svg>
