<svg width="1000" height="1000" viewBox="0 0 1000 1000" fill="none" xmlns="http://www.w3.org/2000/svg">
<path d="M1000 484.299V95.3652C1000 89.3985 992.4 86.6652 988.667 91.4319L563.767 622.465C563.007 623.398 562.529 624.527 562.387 625.721C562.246 626.915 562.448 628.125 562.969 629.209C563.49 630.293 564.308 631.206 565.329 631.842C566.35 632.477 567.531 632.809 568.733 632.799H875.733C884.033 632.799 891.833 629.032 897 622.565L994 501.332C997.846 496.499 999.948 490.509 999.967 484.332L1000 484.299ZM6 501.332L325.1 900.299C330.267 906.765 338.067 910.532 346.367 910.532H653.367C654.569 910.543 655.75 910.211 656.771 909.575C657.792 908.939 658.61 908.026 659.131 906.942C659.652 905.859 659.854 904.649 659.713 903.454C659.571 902.26 659.093 901.131 658.333 900.199L11.3333 91.3652C7.6 86.7319 0 89.3652 0 95.2985V484.299C0 490.465 2.13333 496.432 6 501.299V501.332Z" fill="#fff"/>
</svg>
