<svg width="1000" height="1000" viewBox="0 0 1000 1000" fill="none" xmlns="http://www.w3.org/2000/svg">
<g id="warcraft">
<path id="warcraft" fill-rule="evenodd" clip-rule="evenodd" d="M970 262c2 14 4 28-2 38-6 9-2 16 2 23 3 6 7 12 7 20 0 9-9 21-18 32s-18 21-16 28c5 14 6 46 0 73l-5 22c-6 27-13 58-10 74 1 9 5 22 8 34 5 18 9 35 7 40-2 10-4 20-4 32l-4 24c-4 15-8 32-7 42 3 9 1 22 0 33-1 9-2 16-1 20l3 13c5 14 11 33 1 30a903 903 0 0 0-156-5c-27 2-74 6-123 5-28 0-33-1-46-3l-23-3a303 303 0 0 1-78 4l-4-1-4 1-3 1c-5 1-63 1-75-5l-21 3c-14 2-19 3-47 3a1614 1614 0 0 1-147-7c-29 0-119 3-133 7-13 4-2-25 3-38l2-5c1-4 0-12-1-22s-2-22-1-31c2-10-2-27-6-42-3-10-5-19-5-24 0-14-1-22-4-32-2-6 4-28 9-48l6-26c4-17-4-50-11-77l-4-19c-6-27-4-59 0-73 2-8-7-18-16-30-9-10-18-21-18-30 0-7 3-13 6-18 4-8 7-14 1-23-6-10-4-23-2-36 1-9 2-17 1-24-1-9-8-22-15-37-8-17-17-35-16-44 15 1 39 2 67 0 28-3 98 9 123 21 13 4 12 2 9-3-2-5-5-12 5-16 19-8 99 26 99 26l76-6 122 11 120-12 76 5s80-32 99-25c10 4 7 12 5 17s-3 7 9 1c25-11 95-23 123-21 24 4 47 2 63 1l4-1c1 11-8 30-17 48-7 13-13 26-14 33l1 22Zm-595-19H207c21 16 35 39 39 65 7 25 94 348 98 411 1 22-31 45-31 45h171c-8-14-12-28-12-44 0-25 34-161 34-161s26 132 26 160c1 15-1 30-5 44h163a97 97 0 0 1-21-54c0-20 54-325 70-385 9-31 26-57 50-79H613c11 8 18 20 20 34 0 19-49 293-49 293l-80-312-79 319s-49-205-56-279c0-19 2-39 6-57Z" fill="currentColor"/>
<path d="M272 844V515l-40-160-11-42v-1c-3-18-14-34-28-45-11-7-15-21-11-33a30 30 0 0 1 29-21h63v-56c0-12 30-42 43-50v-9H84v8c11 9 43 38 43 51v687c0 13-30 42-43 51v8h232v-8c-13-9-44-38-44-51Zm300 0v-50h-43c-8 0-15-11-21-17-6 6-14 17-21 17h-57v50c0 13-31 42-43 51v8h231v-8c-14-9-46-38-46-51ZM427 157v288l47-194c3-14 16-22 30-22s25 10 29 22l47 194c0-113-9-281-9-288 0-13 30-42 43-51v-8H383v8c14 10 44 39 44 51Zm445 442V157c0-13 31-42 43-51v-8H685v8c12 9 44 38 44 51v55h63c12 0 23 7 28 20 4 11 1 25-7 33-20 18-34 41-41 66-8 34-26 130-42 218v295c0 13-30 42-43 51v8h230v-8c-11-9-43-38-43-51-2-5-2-153-2-245Z" fill="currentColor"/>
</g>
</svg>
