<svg width="1000" height="1000" viewBox="0 0 1000 1000" fill="none" xmlns="http://www.w3.org/2000/svg"><path id="wildrift" fill-rule="evenodd" clip-rule="evenodd" d="M485 374c-44 102-124 286-144 339a1403 1403 0 0 1-25-181c0-7 0-11-4-1l-11 21-12 3c-18 19-41 48-71 86l-95 119s75-217 85-242c11-27 10-31 8-34-2-5-4-9 11-47 5-11 41-118 51-148 3-10 2-9-5 1l-3 4c-15 22-50 71-59 81-8 8-50 118-53 126-3 10-5 10-4 0l24-103c2-7-8 3-15 23l-3 9-34 111L0 981c7-6 16-17 25-29 14-17 29-36 38-39 7-2 10-7 15-15 3-6 7-14 14-22l23-29c32-41 67-86 161-193 17 93 40 249 40 249s17-21 26-45c5-15 10-18 14-20 2-1 4-3 5-6 17-56 64-158 109-256l40-86c32-8 93-21 82 8l-9 23-38 98c-11 0-15 3-19 7l-8 4h-12c-10 0-21 0-12 7l33 30-71 194c-2 5 1 8 6 12 4 3 9 7 13 14 4 5 7 12 10 18 6 13 11 24 16 10l17-48c19-53 46-132 58-161l95 75 31 24c34 25 63 48 92 67 26 17 33 17-4-13-63-51-55-51 33 8 12 8 24 15 35 15 8 0 13 1 38 17l67 44c43 30 51 29 10-4L741 754l-4-11-86-69 3-1c96-44 356-162 340-280-8-66-112-86-181-86-70 0-152 10-230 24C647 196 726 35 730 28c5-9 5-13-2-3l-63 90-83 120c-26 37-45 53-56 60-5 3-9 8-12 13l-17 40a1694 1694 0 0 0-184 50c41-8 104-16 172-24Zm81-7a4632 4632 0 0 0-54 117 807 807 0 0 1 148-43c3-1 4-1 1 4l-19 26c-2 3-2 5 1 6l15 10c2 2 4 3 2 6l-5 14c-11 25-33 78-52 132l5 5c64-32 294-162 289-231-4-56-170-59-331-46Z" fill="currentColor"/></svg>
