<svg width="1000" height="1000" fill="none" xmlns="http://www.w3.org/2000/svg">
  <g id="worldoftanks">
    <path d="m783.996 212.151-66.431-67.446-71.326-70.524H354.644l-135.91 137.97h212.582v609.196l70.055 69.276 70.042-69.276V212.151h212.583Z" fill="currentColor"/>
    <path d="M648.26 278.072v271.814l-69.869 69.037 98.891 96.032 106.929-105.737.025-331.146H648.26ZM354.497 549.886V278.072H218.505v331.146l106.97 105.737 98.862-96.032-69.84-69.037Z" fill="currentColor"/>
    <path d="M344.164 37.044 172.078 209.052v416.944l328.373 322.253 328.36-322.253V209.065L656.733 37.043H344.164Zm-203.669 151.26L323.522 5.452 328.936 0h343.001l5.413 5.452 183.04 182.852 5.494 5.502v447.587l-5.562 5.445L500.452 1000l-12.969-12.702L140.577 646.84 135 641.394V193.81l5.495-5.506Z" fill="currentColor"/>
  </g>
</svg>
