<svg width="1000" height="1000" viewBox="0 0 1000 1000" fill="none" xmlns="http://www.w3.org/2000/svg">
<path fill-rule="evenodd" clip-rule="evenodd" d="M499.286 901.15C720.199 901.15 899.286 722.108 899.286 501.247C899.286 280.387 720.199 101.344 499.286 101.344C278.372 101.344 99.2856 280.387 99.2856 501.247C99.2856 722.108 278.372 901.15 499.286 901.15ZM211.666 266.542H375.238C371.904 284.633 370.238 302.962 370.238 322.719C376.904 395.321 424.761 596.939 424.761 596.939L502.38 283.205L581.904 590.512C581.904 590.512 629.761 319.387 629.761 301.296C628.095 287.966 621.428 274.874 610 266.542H783.571C760.476 287.966 743.809 314.388 734.047 345.809C719.285 405.318 666.19 705.96 666.19 724.289C667.857 744.046 674.523 762.375 685.952 778.799H524.047C527.38 764.041 529.047 749.045 529.047 734.286C529.047 706.198 504.285 575.753 504.285 575.753C504.285 575.753 471.19 711.197 471.19 735.952C471.19 750.711 474.523 765.707 481.19 778.799H317.619C317.619 778.799 349.047 755.71 349.047 734.286C345.727 673.352 260.44 356.658 253.177 329.692L253.095 329.384C247.857 304.628 233.095 281.539 211.666 266.542Z" fill="#fff"/>
<path fill-rule="evenodd" clip-rule="evenodd" d="M912.381 217.031C968.571 301.296 1000 400.558 1000 501.247C1000 602.175 970.238 701.199 914.286 782.132V902.817C914.286 907.816 910.952 911.148 907.619 911.148H786.905C615 1028.5 390.238 1030.17 218.333 912.814H95.9524C92.6191 912.814 89.2857 909.482 89.2857 906.149V785.464C-29.7619 613.601 -29.7619 387.227 89.2857 215.364V94.6794C89.2857 93.0131 89.2857 91.3469 90.9524 89.6806C92.619 88.0144 94.2857 88.0144 95.9524 88.0144H218.095C388.333 -29.3381 613.095 -29.3381 783.333 88.0144H905.714C909.048 88.0144 912.381 91.3469 912.381 94.6794V217.031ZM499.286 68.2572C259.524 68.2572 66.1905 261.544 66.1905 501.247C66.1905 740.951 259.524 934.238 499.286 934.238C739.048 934.238 932.381 740.951 932.381 501.247C932.381 261.544 739.048 68.2572 499.286 68.2572Z" fill="#fff"/>
</svg>
