<svg xmlns="http://www.w3.org/2000/svg" viewBox="0 0 1536 981.45">
  <title>bg</title>
  <g id="Layer_2" data-name="Layer 2">
    <g id="header_block" data-name="header block">
      <g opacity="0.8">
        <polygon points="13.15 0 0 22.61 0 24.6 14.31 0 13.15 0" fill="#e6e6e6"/>
        <path d="M1536,682.61l-13.29,22.84h-63.42l-15.86-27.25L1427.58,651l15.85-27.25,15.86-27.25h63.42L1536,619.28v-2L1523.58,596,1536,574.6v-2l-13.29,22.84h-63.42l-15.86-27.25L1427.58,541l15.85-27.25,15.86-27.25h63.42L1536,509.28v-2L1523.58,486,1536,464.6v-2l-13.29,22.84h-63.42l-15.86-27.25L1427.58,431l15.85-27.25,15.86-27.25h63.42L1536,399.28v-2L1523.58,376,1536,354.6v-2l-13.29,22.84h-63.42l-15.86-27.25L1427.58,321l15.85-27.25,15.86-27.25h63.42L1536,289.28v-2L1523.58,266,1536,244.6v-2l-13.29,22.84h-63.42l-15.86-27.25L1427.58,211l15.85-27.25,15.86-27.25h63.42L1536,179.28v-2L1523.58,156,1536,134.6v-2l-13.29,22.84h-63.42l-15.86-27.25L1427.58,101l15.85-27.25,15.86-27.25h63.42L1536,69.28v-2L1523.58,46,1536,24.6v-2l-13.29,22.84h-63.42L1443.43,18.2,1432.85,0h-1.16l10.88,18.7L1458.42,46,1442.57,73.2l-15.86,27.25h-63.42L1347.43,73.2,1331.58,46l15.85-27.25L1358.31,0h-1.16l-10.58,18.2-15.86,27.25h-63.42L1251.43,18.2,1240.85,0h-1.16l10.88,18.7L1266.42,46,1250.57,73.2l-15.86,27.25h-63.42L1155.43,73.2,1139.58,46l15.85-27.25L1166.31,0h-1.16l-10.58,18.2-15.86,27.25h-63.42L1059.43,18.2,1048.85,0h-1.16l10.88,18.7L1074.42,46,1058.57,73.2l-15.86,27.25H979.29L963.43,73.2,947.58,46,963.43,18.7,974.31,0h-1.16L962.57,18.2,946.71,45.45H883.29L867.43,18.2,856.85,0h-1.16l10.88,18.7L882.42,46,866.57,73.2l-15.86,27.25H787.29L771.43,73.2,755.58,46,771.43,18.7,782.31,0h-1.16L770.57,18.2,754.71,45.45H691.29L675.43,18.2,664.85,0h-1.16l10.88,18.7L690.42,46,674.57,73.2l-15.86,27.25H595.29L579.43,73.2,563.58,46,579.43,18.7,590.31,0h-1.16L578.57,18.2,562.71,45.45H499.29L483.43,18.2,472.85,0h-1.16l10.88,18.7L498.42,46,482.57,73.2l-15.86,27.25H403.29L387.43,73.2,371.58,46,387.43,18.7,398.31,0h-1.16L386.57,18.2,370.71,45.45H307.29L291.43,18.2,280.85,0h-1.16l10.88,18.7L306.42,46,290.57,73.2l-15.86,27.25H211.29L195.43,73.2,179.58,46,195.43,18.7,206.31,0h-1.16L194.57,18.2,178.71,45.45H115.29L99.43,18.2,88.85,0H87.69L98.57,18.7,114.42,46,98.57,73.2,82.71,100.45H19.29L0,67.3v2L18.42,101,0,132.61v2l19.29-33.15H82.71L98.57,128.7,114.42,156,98.57,183.2,82.71,210.45H19.29L0,177.3v2L18.42,211,0,242.61v2l19.29-33.15H82.71L98.57,238.7,114.42,266,98.57,293.2,82.71,320.45H19.29L0,287.3v2L18.42,321,0,352.61v2l19.29-33.15H82.71L98.57,348.7,114.42,376,98.57,403.2,82.71,430.45H19.29L0,397.3v2L18.42,431,0,462.61v2l19.29-33.15H82.71L98.57,458.7,114.42,486,98.57,513.2,82.71,540.45H19.29L0,507.3v2L18.42,541,0,572.61v2l19.29-33.15H82.71L98.57,568.7,114.42,596,98.57,623.2,82.71,650.45H19.29L0,617.3v2L18.42,651,0,682.61v2l19.29-33.15H82.71L98.57,678.7,114.42,706,98.57,733.2,82.71,760.45H19.29L0,727.3v2L18.42,761,0,792.61v2l19.29-33.15H82.71L98.57,788.7,114.42,816l-31.71,54.5H19.29L0,837.3v2l18.71,32.17H83.29l32-55h63.42l32,55h64.58l32-55h63.42l32,55h64.58l32-55h64L595.58,761l-32-55,31.71-54.5h63.42l32,55h64l32,55h64l32,55h64l32,55h64.58l32.29-55.5-32-55,31.71-54.5h63.42l32,55h64.58l32-55h63.42l32,55h64.58l32-55h64L1536,684.6ZM1442.57,568.7,1458.42,596l-15.85,27.25-15.86,27.25h-63.42l-15.86-27.25L1331.58,596l15.85-27.25,15.86-27.25h63.42Zm-960-220L498.42,376,482.57,403.2l-15.86,27.25H403.29L387.43,403.2,371.58,376l15.85-27.25,15.86-27.25h63.42Zm-15-27.75,15.85-27.25,15.86-27.25h63.42l15.86,27.25L594.42,321,578.57,348.2l-15.86,27.25H499.29L483.43,348.2Zm-81,27.25-15.86,27.25H307.29L291.43,348.2,275.58,321l15.85-27.25,15.86-27.25h63.42l15.86,27.25L402.42,321Zm-15.86,28.25,15.86,27.25L402.42,431,386.57,458.2l-15.86,27.25H307.29L291.43,458.2,275.58,431l15.85-27.25,15.86-27.25Zm0,110,15.86,27.25L402.42,541,386.57,568.2l-15.86,27.25H307.29L291.43,568.2,275.58,541l15.85-27.25,15.86-27.25Zm16.72,26.75L371.58,486l15.85-27.25,15.86-27.25h63.42l15.86,27.25L498.42,486,482.57,513.2l-15.86,27.25H403.29Zm96-55L467.58,431l15.85-27.25,15.86-27.25h63.42l15.86,27.25L594.42,431,578.57,458.2l-15.86,27.25H499.29Zm96-55L563.58,376l15.85-27.25,15.86-27.25h63.42l15.86,27.25L690.42,376,674.57,403.2l-15.86,27.25H595.29Zm575.14-55-15.86,27.25h-63.42l-15.86-27.25L1043.58,321l15.85-27.25,15.86-27.25h63.42l15.86,27.25L1170.42,321Zm16.72-26.75h63.42l15.86,27.25L1266.42,376l-15.85,27.25-15.86,27.25h-63.42l-15.86-27.25L1139.58,376l15.85-27.25ZM1058.57,348.7,1074.42,376l-15.85,27.25-15.86,27.25H979.29L963.43,403.2,947.58,376l15.85-27.25,15.86-27.25h63.42ZM978.42,431,962.57,458.2l-15.86,27.25H883.29L867.43,458.2,851.58,431l15.85-27.25,15.86-27.25h63.42l15.86,27.25ZM962.57,348.2l-15.86,27.25H883.29L867.43,348.2,851.58,321l15.85-27.25,15.86-27.25h63.42l15.86,27.25L978.42,321Zm-96,.5L882.42,376,866.57,403.2l-15.86,27.25H787.29L771.43,403.2,755.58,376l15.85-27.25,15.86-27.25h63.42Zm-96-.5-15.86,27.25H691.29L675.43,348.2,659.58,321l15.85-27.25,15.86-27.25h63.42l15.86,27.25L786.42,321Zm-95.14,55.5,15.86-27.25h63.42l15.86,27.25L786.42,431,770.57,458.2l-15.86,27.25H691.29L675.43,458.2,659.58,431Zm96,55,15.86-27.25h63.42l15.86,27.25L882.42,486,866.57,513.2l-15.86,27.25H787.29L771.43,513.2,755.58,486Zm96,55,15.86-27.25h63.42l15.86,27.25L978.42,541,962.57,568.2l-15.86,27.25H883.29L867.43,568.2,851.58,541Zm96-.5L947.58,486l15.85-27.25,15.86-27.25h63.42l15.86,27.25L1074.42,486l-15.85,27.25-15.86,27.25H979.29Zm96-55L1043.58,431l15.85-27.25,15.86-27.25h63.42l15.86,27.25L1170.42,431l-15.85,27.25-15.86,27.25h-63.42Zm96,.5,15.86-27.25h63.42l15.86,27.25L1266.42,486l-15.85,27.25-15.86,27.25h-63.42l-15.86-27.25L1139.58,486Zm96-.5L1235.58,431l15.85-27.25,15.86-27.25h63.42l15.86,27.25L1362.42,431l-15.85,27.25-15.86,27.25h-63.42Zm15.86-82.75-15.86-27.25L1235.58,321l15.85-27.25,15.86-27.25h63.42l15.86,27.25L1362.42,321l-15.85,27.25-15.86,27.25Zm0-110-15.86-27.25L1235.58,211l15.85-27.25,15.86-27.25h63.42l15.86,27.25L1362.42,211l-15.85,27.25-15.86,27.25Zm-16.72-26.75L1266.42,266l-15.85,27.25-15.86,27.25h-63.42l-15.86-27.25L1139.58,266l15.85-27.25,15.86-27.25h63.42Zm-96-.5-15.86,27.25h-63.42l-15.86-27.25L1043.58,211l15.85-27.25,15.86-27.25h63.42l15.86,27.25L1170.42,211Zm-96,.5L1074.42,266l-15.85,27.25-15.86,27.25H979.29L963.43,293.2,947.58,266l15.85-27.25,15.86-27.25h63.42Zm-96-.5-15.86,27.25H883.29L867.43,238.2,851.58,211l15.85-27.25,15.86-27.25h63.42l15.86,27.25L978.42,211Zm-96,.5L882.42,266,866.57,293.2l-15.86,27.25H787.29L771.43,293.2,755.58,266l15.85-27.25,15.86-27.25h63.42Zm-96-.5-15.86,27.25H691.29L675.43,238.2,659.58,211l15.85-27.25,15.86-27.25h63.42l15.86,27.25L786.42,211Zm-96,.5L690.42,266,674.57,293.2l-15.86,27.25H595.29L579.43,293.2,563.58,266l15.85-27.25,15.86-27.25h63.42Zm-96-.5-15.86,27.25H499.29L483.43,238.2,467.58,211l15.85-27.25,15.86-27.25h63.42l15.86,27.25L594.42,211Zm-96,.5L498.42,266,482.57,293.2l-15.86,27.25H403.29L387.43,293.2,371.58,266l15.85-27.25,15.86-27.25h63.42Zm-96-.5-15.86,27.25H307.29L291.43,238.2,275.58,211l15.85-27.25,15.86-27.25h63.42l15.86,27.25L402.42,211Zm-96,.5L306.42,266,290.57,293.2l-15.86,27.25H211.29L195.43,293.2,179.58,266l15.85-27.25,15.86-27.25h63.42Zm-15.86,82.75,15.86,27.25L306.42,376,290.57,403.2l-15.86,27.25H211.29L195.43,403.2,179.58,376l15.85-27.25,15.86-27.25Zm0,110,15.86,27.25L306.42,486,290.57,513.2l-15.86,27.25H211.29L195.43,513.2,179.58,486l15.85-27.25,15.86-27.25Zm0,110,15.86,27.25L306.42,596,290.57,623.2l-15.86,27.25H211.29L195.43,623.2,179.58,596l15.85-27.25,15.86-27.25Zm0,110,15.86,27.25L306.42,706,290.57,733.2l-15.86,27.25H211.29L195.43,733.2,179.58,706l15.85-27.25,15.86-27.25Zm16.72,26.75L275.58,651l15.85-27.25,15.86-27.25h63.42l15.86,27.25L402.42,651,386.57,678.2l-15.86,27.25H307.29Zm96,.5,15.86-27.25h63.42l15.86,27.25L498.42,706,482.57,733.2l-15.86,27.25H403.29L387.43,733.2,371.58,706Zm15.86-28.25L387.43,623.2,371.58,596l15.85-27.25,15.86-27.25h63.42l15.86,27.25L498.42,596,482.57,623.2l-15.86,27.25Zm80.14-82.25L467.58,541l15.85-27.25,15.86-27.25h63.42l15.86,27.25L594.42,541,578.57,568.2l-15.86,27.25H499.29Zm96-55L563.58,486l15.85-27.25,15.86-27.25h63.42l15.86,27.25L690.42,486,674.57,513.2l-15.86,27.25H595.29Zm96,.5,15.86-27.25h63.42l15.86,27.25L786.42,541,770.57,568.2l-15.86,27.25H691.29L675.43,568.2,659.58,541Zm96,55,15.86-27.25h63.42l15.86,27.25L882.42,596,866.57,623.2l-15.86,27.25H787.29L771.43,623.2,755.58,596Zm96,55,15.86-27.25h63.42l15.86,27.25L978.42,651,962.57,678.2l-15.86,27.25H883.29L867.43,678.2,851.58,651Zm96-.5L947.58,596l15.85-27.25,15.86-27.25h63.42l15.86,27.25L1074.42,596l-15.85,27.25-15.86,27.25H979.29Zm96-55L1043.58,541l15.85-27.25,15.86-27.25h63.42l15.86,27.25L1170.42,541l-15.85,27.25-15.86,27.25h-63.42Zm96,.5,15.86-27.25h63.42l15.86,27.25L1266.42,596l-15.85,27.25-15.86,27.25h-63.42l-15.86-27.25L1139.58,596Zm96-.5L1235.58,541l15.85-27.25,15.86-27.25h63.42l15.86,27.25L1362.42,541l-15.85,27.25-15.86,27.25h-63.42Zm191.14-109.5L1458.42,486l-15.85,27.25-15.86,27.25h-63.42l-15.86-27.25L1331.58,486l15.85-27.25,15.86-27.25h63.42Zm0-110L1458.42,376l-15.85,27.25-15.86,27.25h-63.42l-15.86-27.25L1331.58,376l15.85-27.25,15.86-27.25h63.42Zm0-110L1458.42,266l-15.85,27.25-15.86,27.25h-63.42l-15.86-27.25L1331.58,266l15.85-27.25,15.86-27.25h63.42Zm-15.86-137.25,15.86,27.25L1458.42,156l-15.85,27.25-15.86,27.25h-63.42l-15.86-27.25L1331.58,156l15.85-27.25,15.86-27.25ZM1251.43,73.7l15.86-27.25h63.42l15.86,27.25L1362.42,101l-15.85,27.25-15.86,27.25h-63.42l-15.86-27.25L1235.58,101Zm-16.72,27.75,15.86,27.25L1266.42,156l-15.85,27.25-15.86,27.25h-63.42l-15.86-27.25L1139.58,156l15.85-27.25,15.86-27.25ZM1059.43,73.7l15.86-27.25h63.42l15.86,27.25L1170.42,101l-15.85,27.25-15.86,27.25h-63.42l-15.86-27.25L1043.58,101Zm-16.72,27.75,15.86,27.25L1074.42,156l-15.85,27.25-15.86,27.25H979.29L963.43,183.2,947.58,156l15.85-27.25,15.86-27.25ZM867.43,73.7l15.86-27.25h63.42L962.57,73.7,978.42,101,962.57,128.2l-15.86,27.25H883.29L867.43,128.2,851.58,101Zm-16.72,27.75,15.86,27.25L882.42,156,866.57,183.2l-15.86,27.25H787.29L771.43,183.2,755.58,156l15.85-27.25,15.86-27.25ZM675.43,73.7l15.86-27.25h63.42L770.57,73.7,786.42,101,770.57,128.2l-15.86,27.25H691.29L675.43,128.2,659.58,101Zm-16.72,27.75,15.86,27.25L690.42,156,674.57,183.2l-15.86,27.25H595.29L579.43,183.2,563.58,156l15.85-27.25,15.86-27.25ZM483.43,73.7l15.86-27.25h63.42L578.57,73.7,594.42,101,578.57,128.2l-15.86,27.25H499.29L483.43,128.2,467.58,101Zm-16.72,27.75,15.86,27.25L498.42,156,482.57,183.2l-15.86,27.25H403.29L387.43,183.2,371.58,156l15.85-27.25,15.86-27.25ZM291.43,73.7l15.86-27.25h63.42L386.57,73.7,402.42,101,386.57,128.2l-15.86,27.25H307.29L291.43,128.2,275.58,101Zm-16.72,27.75,15.86,27.25L306.42,156,290.57,183.2l-15.86,27.25H211.29L195.43,183.2,179.58,156l15.85-27.25,15.86-27.25ZM99.43,128.2,83.58,101,99.43,73.7l15.86-27.25h63.42L194.57,73.7,210.42,101,194.57,128.2l-15.86,27.25H115.29Zm0,110L83.58,211,99.43,183.7l15.86-27.25h63.42l15.86,27.25L210.42,211,194.57,238.2l-15.86,27.25H115.29Zm0,110L83.58,321,99.43,293.7l15.86-27.25h63.42l15.86,27.25L210.42,321,194.57,348.2l-15.86,27.25H115.29Zm0,110L83.58,431,99.43,403.7l15.86-27.25h63.42l15.86,27.25L210.42,431,194.57,458.2l-15.86,27.25H115.29Zm0,110L83.58,541,99.43,513.7l15.86-27.25h63.42l15.86,27.25L210.42,541,194.57,568.2l-15.86,27.25H115.29Zm0,110L83.58,651,99.43,623.7l15.86-27.25h63.42l15.86,27.25L210.42,651,194.57,678.2l-15.86,27.25H115.29Zm15.86,137.25L99.43,788.2,83.58,761,99.43,733.7l15.86-27.25h63.42l15.86,27.25L210.42,761,194.57,788.2l-15.86,27.25Zm159.42,55H211.29L179.58,816l15.85-27.25,15.86-27.25h63.42l15.86,27.25L306.42,816Zm32.58-55L291.43,788.2,275.58,761l15.85-27.25,15.86-27.25h63.42l15.86,27.25L402.42,761,386.57,788.2l-15.86,27.25Zm159.42,55H403.29L371.58,816l15.85-27.25,15.86-27.25h63.42l15.86,27.25L498.42,816ZM594.42,761l-31.71,54.5H499.29L483.43,788.2,467.58,761l15.85-27.25,15.86-27.25h63.42Zm-31.71-55.5H499.29L483.43,678.2,467.58,651l15.85-27.25,15.86-27.25h63.42l15.86,27.25L594.42,651Zm32.58-55L579.43,623.2,563.58,596l15.85-27.25,15.86-27.25h63.42l15.86,27.25L690.42,596,674.57,623.2l-15.86,27.25Zm96,55L659.58,651l15.85-27.25,15.86-27.25h63.42l15.86,27.25L786.42,651,770.57,678.2l-15.86,27.25Zm96,55L755.58,706l15.85-27.25,15.86-27.25h63.42l15.86,27.25L882.42,706,866.57,733.2l-15.86,27.25Zm96,55L851.58,761l15.85-27.25,15.86-27.25h63.42l15.86,27.25L978.42,761,962.57,788.2l-15.86,27.25Zm191.13.5-31.71,54.5H979.29L947.58,816l15.85-27.25,15.86-27.25h63.42Zm-31.71-55.5H979.29L963.43,733.2,947.58,706l15.85-27.25,15.86-27.25h63.42l15.86,27.25L1074.42,706Zm32.58-55-15.86-27.25L1043.58,651l15.85-27.25,15.86-27.25h63.42l15.86,27.25L1170.42,651l-15.85,27.25-15.86,27.25Zm159.42,55h-63.42L1139.58,706l15.85-27.25,15.86-27.25h63.42l15.86,27.25L1266.42,706Zm32.58-55-15.86-27.25L1235.58,651l15.85-27.25,15.86-27.25h63.42l15.86,27.25L1362.42,651l-15.85,27.25-15.86,27.25Zm159.42,55h-63.42L1331.58,706l15.85-27.25,15.86-27.25h63.42l15.86,27.25L1458.42,706Z" fill="#e6e6e6"/>
        <path d="M851.29,870.45h-64l-32-55H690.71L658.42,871l32.29,55.5h64l32,55h64.58L883.58,926Zm-191.71.5,31.71-54.5h63.42L786.42,871,770.57,898.2l-15.86,27.25H691.29Zm191.13,109.5H787.29L755.58,926l15.85-27.25,15.86-27.25h63.42L882.42,926Z" fill="#e6e6e6"/>
      </g>
      <g opacity="0.8">
        <polygon points="61.22 467.5 29.22 467.5 13.22 440 0 440 0 495 13.22 495 29.22 522.5 61.22 522.5 77.22 495 61.22 467.5" fill="#fff"/>
        <polygon points="348.8 752.08 316.8 752.08 300.8 724.58 268.8 724.58 252.8 697.08 220.8 697.08 204.8 669.58 220.8 642.08 252.8 642.08 268.8 614.58 252.8 587.08 220.8 587.08 204.8 559.58 172.8 559.58 156.8 587.08 124.8 587.08 108.8 614.58 76.8 614.58 60.8 587.08 28.98 587.08 13.22 560 0 560 0 724.58 12.8 724.58 28.8 697.08 60.8 697.08 76.8 724.58 108.8 724.58 124.8 752.08 156.8 752.08 172.8 779.58 204.8 779.58 220.8 807.08 204.8 834.58 220.8 862.08 252.8 862.08 268.8 889.58 300.8 889.58 316.8 862.08 300.8 834.58 316.8 807.08 348.8 807.08 364.8 779.58 348.8 752.08" fill="#fff"/>
        <path d="M349.51,808l16.29-28-16.29-28h-32l-16-27.5h-32l-16-27.5h-32L205.8,670l15.71-27h32l16.29-28-16.29-28h-32l-16-27.5H172.93l-16,27.5h-32l-16,27.5H77.51l-16-27.5h-32l-16-27.5H0v1H12.93l15.71,27L20.78,601l-7.85,13.5H0v1H12.93L20.78,629l7.86,13.5L20.78,656l-7.85,13.5H0v1H12.93L20.78,684l7.86,13.5-15.71,27H0v1H13.51l16-27.5H60.93l16,27.5h32l16,27.5h32l16,27.5h32l15.71,27-16,27.5,16.29,28h32l16,27.5h32.58l16.29-28-16-27.5,15.71-27Zm-.58-55,15.71,27-15.71,27H317.51l-7.86-13.5L301.8,780l7.85-13.5,7.86-13.5Zm-48-27.5,15.71,27L308.78,766l-7.85,13.5H269.51L261.65,766l-7.85-13.5,7.85-13.5,7.86-13.5Zm-48-27.5,15.71,27-7.86,13.5L252.93,752H221.51l-7.86-13.5L205.8,725l7.85-13.5,7.86-13.5Zm-32.29-.5L212.78,711l-7.85,13.5H173.51L165.65,711l-7.85-13.5,7.85-13.5,7.86-13.5h31.42Zm-63.71-.5H125.51l-7.86-13.5L109.8,670l7.85-13.5,7.86-13.5h31.42l7.85,13.5,7.86,13.5-7.86,13.5Zm48-27.5H173.51L165.65,656l-7.85-13.5,7.85-13.5,7.86-13.5h31.42l7.85,13.5,7.86,13.5Zm48-81.5,15.71,27-15.71,27H221.51l-7.86-13.5L205.8,615l7.85-13.5,7.86-13.5Zm-79.42-27.5h31.42l15.71,27L212.78,601l-7.85,13.5H173.51L165.65,601l-7.85-13.5Zm-48,27.5h31.42l7.85,13.5,7.86,13.5-7.86,13.5L156.93,642H125.51l-7.86-13.5L109.8,615Zm-16.58,27.5,7.85,13.5,7.86,13.5L116.78,656l-7.85,13.5H77.51L69.65,656,61.8,642.5,69.65,629l7.86-13.5Zm-87.28,13L13.8,615l7.85-13.5L29.51,588H60.93l15.71,27-7.86,13.5L60.93,642H29.51ZM29.51,697l-7.86-13.5L13.8,670l7.85-13.5L29.51,643H60.93l7.85,13.5L76.64,670l-7.86,13.5L60.93,697Zm48,27.5-15.71-27L69.65,684l7.86-13.5h31.42l7.85,13.5,7.86,13.5L116.78,711l-7.85,13.5Zm48,27.5L109.8,725l7.85-13.5,7.86-13.5h31.42l7.85,13.5,7.86,13.5-7.86,13.5L156.93,752Zm48,27.5-15.71-27,7.85-13.5,7.86-13.5h31.42l7.85,13.5,7.86,13.5L212.78,766l-7.85,13.5Zm32.29.5,7.85-13.5,7.86-13.5h31.42l7.85,13.5,7.86,13.5-7.86,13.5L252.93,807H221.51Zm15.71,82L205.8,835l15.71-27h31.42l7.85,13.5,7.86,13.5-7.86,13.5L252.93,862Zm95.13.5-15.71,27H269.51l-15.71-27,7.85-13.5,7.86-13.5h31.42Zm-15.71-28H269.51L261.65,821l-7.85-13.5,7.85-13.5,7.86-13.5h31.42l7.85,13.5,7.86,13.5Z" fill="#e6e6e6"/>
        <path d="M61.51,467h-32l-16-27.5H0v1H12.93l15.71,27L20.78,481l-7.85,13.5H0v1H12.93l16,27.5H61.51L77.8,495Zm-.58,55H29.51L13.8,495l7.85-13.5L29.51,468H60.93l15.71,27Z" fill="#e6e6e6"/>
      </g>
      <g opacity="0.8">
        <polygon points="1363.21 25.5 1348.37 0 868.37 0 883.21 25.5 915.21 25.5 931.21 53 963.21 53 979.21 80.5 1011.21 80.5 1027.21 108 1059.21 108 1075.21 80.5 1107.21 80.5 1123.21 108 1155.21 108 1171.21 135.5 1203.21 135.5 1219.21 108 1203.21 80.5 1219.21 53 1251.21 53 1267.21 25.5 1299.21 25.5 1315.21 53 1347.21 53 1363.21 80.5 1395.21 80.5 1411.21 53 1395.21 25.5 1363.21 25.5" fill="#fff"/>
        <path d="M1363.5,25,1349,0h-1.16l14.84,25.5L1354.78,39l-7.86,13.5H1315.5l-15.71-27,7.85-13.5,7-12h-1.15l-6.69,11.5L1298.92,25H1267.5l-7.86-13.5L1253,0h-1.16l7,12,7.85,13.5-15.71,27H1219.5L1211.64,39l-7.85-13.5,7.85-13.5,7-12h-1.15l-6.69,11.5L1202.92,25H1171.5l-7.86-13.5L1157,0h-1.16l7,12,7.85,13.5L1162.78,39l-7.86,13.5H1123.5L1115.64,39l-7.85-13.5,7.85-13.5,7-12h-1.15l-6.69,11.5L1106.92,25H1075.5l-7.86-13.5L1061,0h-1.16l7,12,7.85,13.5L1066.78,39l-7.86,13.5H1027.5L1019.64,39l-7.85-13.5,7.85-13.5,7-12h-1.15l-6.69,11.5L1010.92,25H979.5l-7.86-13.5L965,0h-1.16l7,12,7.85,13.5L970.78,39l-7.86,13.5H931.5l-15.71-27L923.64,12l7-12h-1.15l-6.69,11.5L914.92,25H883.5L869,0h-1.16l15.13,26h32l16,27.5h32l16,27.5h32l16,27.5h32.58l16-27.5h31.42l16,27.5h32l16,27.5h32.58l16.29-28-16-27.5,15.71-27h32l16-27.5h31.42l16,27.5h32l16,27.5h32.58l16.29-28L1395.5,25Zm-384,55L963.79,53l7.85-13.5L979.5,26h31.42l7.86,13.5,7.85,13.5-7.85,13.5L1010.92,80Zm79.42,27.5H1027.5l-15.71-27,7.85-13.5,7.86-13.5h31.42l7.86,13.5,7.85,13.5ZM1075.5,80l-7.86-13.5L1059.79,53l7.85-13.5L1075.5,26h31.42l7.86,13.5,7.85,13.5-7.85,13.5L1106.92,80Zm48,27.5-15.71-27,7.85-13.5,7.86-13.5h31.42l7.86,13.5,7.85,13.5L1162.78,94l-7.86,13.5Zm95.13.5-15.71,27H1171.5l-15.71-27,7.85-13.5L1171.5,81h31.42Zm-15.71-28H1171.5l-7.86-13.5L1155.79,53l7.85-13.5L1171.5,26h31.42l7.86,13.5,7.85,13.5Zm192,0H1363.5l-15.71-27,7.85-13.5L1363.5,26h31.42l15.71,27Z" fill="#e6e6e6"/>
      </g>
      <g opacity="1">
        <polygon points="1429.21 697.5 1445.21 670 1429.21 642.5 1445.21 615 1429.21 587.5 1397.21 587.5 1381.21 615 1349.21 615 1333.21 642.5 1349.21 670 1333.21 697.5 1301.21 697.5 1285.21 670 1253.21 670 1237.21 697.5 1205.21 697.5 1189.21 725 1157.21 725 1141.21 752.5 1157.21 780 1189.21 780 1205.21 807.5 1237.21 807.5 1253.21 780 1285.21 780 1301.21 807.5 1333.21 807.5 1349.21 835 1381.21 835 1397.21 807.5 1429.21 807.5 1445.21 780 1429.21 752.5 1397.21 752.5 1381.21 725 1397.21 697.5 1429.21 697.5" fill="#fff"/>
        <path d="M1397.5,698h32l16.29-28-16-27.5,16-27.5-16.29-28h-32.58l-16,27.5h-32l-16.29,28,16,27.5-15.71,27H1301.5l-16-27.5h-32.58l-16,27.5h-32l-16,27.5h-32l-16.29,28,16.29,28h32l16,27.5h32.58l16-27.5h31.42l16,27.5h32l16,27.5h32.58l16-27.5h32l16.29-28-16.29-28h-32l-15.71-27Zm31.42-1H1397.5l-7.86-13.5-7.85-13.5,7.85-13.5,7.86-13.5h31.42l15.71,27ZM1397.5,588h31.42l15.71,27-15.71,27H1397.5l-7.86-13.5-7.85-13.5Zm-48,27.5h31.42l7.86,13.5,7.85,13.5-7.85,13.5-7.86,13.5H1349.5l-15.71-27Zm0,55h31.42l7.86,13.5,7.85,13.5-15.71,27H1349.5l-7.86-13.5-7.85-13.5ZM1332.92,752H1301.5l-7.86-13.5-7.85-13.5,7.85-13.5,7.86-13.5h31.42l7.86,13.5,7.85,13.5-7.85,13.5Zm-48,27.5H1253.5l-7.86-13.5-7.85-13.5,7.85-13.5,7.86-13.5h31.42l7.86,13.5,7.85,13.5-7.85,13.5Zm-31.42-109h31.42l15.71,27-7.85,13.5-7.86,13.5H1253.5l-7.86-13.5-7.85-13.5Zm-48,27.5h31.42l7.86,13.5,7.85,13.5-7.85,13.5-7.86,13.5H1205.5l-7.86-13.5-7.85-13.5Zm-63.71,54.5,15.71-27h31.42l7.86,13.5,7.85,13.5-7.85,13.5-7.86,13.5H1157.5Zm95.13,54.5H1205.5l-15.71-27,7.85-13.5,7.86-13.5h31.42l7.86,13.5,7.85,13.5Zm48.87-27,7.85-13.5,7.86-13.5h31.42l7.86,13.5,7.85,13.5-7.85,13.5-7.86,13.5H1301.5Zm95.13,54.5H1349.5l-15.71-27,7.85-13.5,7.86-13.5h31.42l7.86,13.5,7.85,13.5Zm63.71-54.5-15.71,27H1397.5l-7.86-13.5-7.85-13.5,7.85-13.5,7.86-13.5h31.42Zm-55.85-14-7.86,13.5H1349.5l-7.86-13.5-7.85-13.5,7.85-13.5,7.86-13.5h31.42l15.71,27Z" fill="#e6e6e6"/>
      </g>
    </g>
  </g>
</svg>
