<svg class="footer-logo" xmlns="http://www.w3.org/2000/svg" viewBox="0 0 128 116.18">
    <symbol id="brand">
        <g>
            <path d="M10.15,93.33h3.19v17.86H10.15Z" fill="#616161"/>
            <path d="M16.76,93.64H20v3H16.76Zm0,5.28H20v12.27H16.76Z" fill="#616161"/>
            <path d="M31.38,109.78h-.05a4.16,4.16,0,0,1-3.59,1.69c-3.83,0-5.21-3.09-5.21-6.45s1.38-6.38,5.21-6.38a4,4,0,0,1,3.74,2h0V98.92h3.05v17.26H31.38ZM25.86,105c0,1.69.59,4,2.69,4s2.81-2.24,2.81-4-.81-3.91-2.86-3.91S25.86,103.38,25.86,105Z" fill="#616161"/>
            <path d="M49.12,111.19h-3v-1.67h-.05a5.13,5.13,0,0,1-4,2c-2.9,0-4.16-2-4.16-4.81V98.92h3.19v6.55c0,1.5,0,3.53,2.07,3.53,2.31,0,2.81-2.5,2.81-4.08v-6h3.19Z" fill="#616161"/>
            <path d="M52.48,93.64h3.19v3H52.48Zm0,5.28h3.19v12.27H52.48Z" fill="#616161"/>
            <path d="M59,98.92h3v1.74h0a4.15,4.15,0,0,1,3.81-2c3.76,0,5.14,3,5.14,6.38s-1.38,6.45-5.21,6.45a4.19,4.19,0,0,1-3.6-1.69h0v6.4H59Zm3.22,6.1c0,1.74.69,4,2.81,4s2.69-2.29,2.69-4-.57-3.91-2.65-3.91S62.24,103.31,62.24,105Z" fill="#616161"/>
            <path d="M83.4,110.49a8.33,8.33,0,0,1-4.21,1c-4,0-6.4-2.33-6.4-6.36,0-3.54,1.88-6.47,5.69-6.47,4.54,0,5.83,3.12,5.83,7.4H75.83a3.21,3.21,0,0,0,3.5,3.1,8.22,8.22,0,0,0,4.07-1.24Zm-2.14-6.64c-.09-1.54-.81-2.88-2.59-2.88s-2.69,1.24-2.84,2.88Z" fill="#616161"/>
            <path d="M95,109.8h0a4.58,4.58,0,0,1-3.76,1.67c-3.77,0-5.15-3.09-5.15-6.45s1.38-6.38,5.15-6.38a4.36,4.36,0,0,1,3.66,1.71h0v-7h3.19v17.86H95Zm-2.92-.8c2.11,0,2.81-2.24,2.81-4s-.81-3.91-2.86-3.91-2.64,2.27-2.64,3.91S90,109,92.05,109Z" fill="#616161"/>
            <path d="M101.43,93.64h3.19v3h-3.19Zm0,5.28h3.19v12.27h-3.19Z" fill="#616161"/>
            <path d="M108.52,99.57a11,11,0,0,1,4.26-.93c3.74,0,5.29,1.55,5.29,5.17v1.57c0,1.23,0,2.16.05,3.07s.07,1.78.14,2.74h-2.81a14.16,14.16,0,0,1-.14-1.84h0a4.37,4.37,0,0,1-3.79,2.12c-2.16,0-4.28-1.31-4.28-3.64a3.6,3.6,0,0,1,2.09-3.5,9.67,9.67,0,0,1,4.12-.72h1.76c0-2-.88-2.64-2.76-2.64a6.42,6.42,0,0,0-3.78,1.34Zm3.74,9.57a2.7,2.7,0,0,0,2.24-1.1,4.08,4.08,0,0,0,.66-2.52h-1.38c-1.43,0-3.54.24-3.54,2.12C110.24,108.69,111.12,109.14,112.26,109.14Z" fill="#616161"/>
        </g>
        <g>
            <path d="M95.07,0h-.2C93.75.11,71,2.25,67.56,3.34c-1.53.48-3.94,1.8-2.89,5.39a41.56,41.56,0,0,0,3.21,6.14l.48.82c2.67,4.7,1.81,8.06.77,10.46a11,11,0,0,1-10.28,6.54A11.16,11.16,0,0,1,53,31.08c-5.14-3.22-7-7.7-5.61-13.67h0a25.35,25.35,0,0,0,.82-7.12h0a3.44,3.44,0,0,0-1.66-2.7,5.41,5.41,0,0,0-2.79-.65,16.27,16.27,0,0,0-5,1L21.05,13.79a2.31,2.31,0,0,0-1.36,1.13,2.25,2.25,0,0,0-.09,1.77l4.74,14.18c1.06,3.19.77,4.57.34,5.17a2.47,2.47,0,0,1-2.11.75,7.46,7.46,0,0,1-.79,0l-2.92-.3-5.68-.58c-.34,0-.69,0-1,0a11.7,11.7,0,0,0-8.52,4A14.69,14.69,0,0,0,6,61.27a15.47,15.47,0,0,0,8,2.8h.21a19.52,19.52,0,0,0,8.9-2.53c3.46-1.78,4.85-2,5.37-2h.1c1.91.19,1.87,4.27,1.87,4.31v0L30.72,88v.11a2.22,2.22,0,0,0,2.21,2.14h.2C34.24,90.17,57,88,60.44,86.94c1.53-.47,3.94-1.8,2.89-5.39a41.07,41.07,0,0,0-3.21-6.13l-.48-.83c-2.67-4.7-1.81-8.06-.77-10.46a11,11,0,0,1,10.28-6.54A11.16,11.16,0,0,1,75,59.2c5.14,3.22,7,7.7,5.61,13.67h0A25.35,25.35,0,0,0,79.8,80h0a3.44,3.44,0,0,0,1.66,2.7,5.41,5.41,0,0,0,2.79.65,16.27,16.27,0,0,0,5-1L107,76.49a2.31,2.31,0,0,0,1.36-1.13,2.25,2.25,0,0,0,.09-1.77l-4.74-14.18c-1.06-3.19-.77-4.57-.34-5.17a2.47,2.47,0,0,1,2.11-.75,7.46,7.46,0,0,1,.79,0l2.92.3,5.68.58c.34,0,.69.05,1,.05a11.7,11.7,0,0,0,8.52-4,14.2,14.2,0,0,0,3.56-10.87A14.12,14.12,0,0,0,122,29a15.35,15.35,0,0,0-8-2.79h-.21a19.52,19.52,0,0,0-8.9,2.53c-3.46,1.78-4.85,2-5.37,2h-.1c-1.91-.19-1.87-4.27-1.87-4.31v0L97.28,2.25V2.14A2.22,2.22,0,0,0,95.07,0Z" fill="#616161"/>
            <path d="M81.65,73.1c-.11.52-.22,1-.32,1.54a29.28,29.28,0,0,0,5.49-.77L82,67.78A16,16,0,0,1,81.65,73.1Z" fill="#fff"/>
            <path d="M62.33,81.84c-.42-1.42-3-5.63-3.6-6.73-2.88-5.07-1.93-8.84-.82-11.4a11.86,11.86,0,0,1,1.44-2.46,37,37,0,0,1-1.14-13.66,20.79,20.79,0,0,0,4.12,10.9,12.76,12.76,0,0,1,13.25-.18c4,2.52,5.86,5.62,6.38,8.93l9.58,4.09L97.2,63,81.59,39.41a15.65,15.65,0,0,1-.69-6.6c-.61-.21-6.12-3.17-11-5.82C66.5,34,57.77,35.32,52.42,32c-3.91-2.46-5.78-5.48-6.34-8.69a44.24,44.24,0,0,0-5.72,3.95h0A117.17,117.17,0,0,1,30.06,11.9l-8.68,2.89a1.15,1.15,0,0,0-.78,1.56l.59,1.79A116.15,116.15,0,0,0,35.29,32,50.76,50.76,0,0,0,31,37.21c-1.48-.77-3.13-1.68-4.89-2.71,0,2.12-1.09,3.64-4.45,3.29l-8.59-.87a9.06,9.06,0,0,0-2.21,0,118.35,118.35,0,0,0,16.62,6,48.79,48.79,0,0,0-2.73,6.3A113.1,113.1,0,0,1,1.61,45.43a14.25,14.25,0,0,0,1.93,12,115.81,115.81,0,0,0,19.35-1.24q-.43,2.25-.69,4.65l.39-.19c2.39-1.23,4.81-2.27,6-2.15,3,.29,2.83,5.39,2.83,5.39L31.77,88c.17,1.36,1.25,1.22,1.25,1.22S56.76,87,60.13,85.94C63.11,85,62.61,82.81,62.33,81.84ZM89.9,63l3.26.87-4.2.79-1.9-3.48ZM74.67,37.81,77,40s-2.71,1.13-3.89.36-3.07-5-3.07-5Z" fill="#fff"/>
            <path d="M46,22.41a16,16,0,0,1,.39-5.23,25.28,25.28,0,0,0,.8-6.8c-.34-3.29-4.78-2.44-6.9-1.85A119.48,119.48,0,0,0,46,22.41Z" fill="#fff"/>
        </g>
</symbol>
</svg>