<svg xmlns="http://www.w3.org/2000/svg" viewBox="0 0 700 133.89">
<symbol id="brand">
    <g>
        <path d="M141,0l-.29,0C139,.17,105.3,3.34,100.19,5c-2.27.7-5.85,2.67-4.29,8,.52,1.78,2.73,5.63,4.76,9.1.3.5.55.94.71,1.22,4,7,2.69,12,1.14,15.51a16.33,16.33,0,0,1-15.23,9.7,16.58,16.58,0,0,1-8.71-2.39C71,41.31,68.23,34.68,70.26,25.82h0c1-4.77,1.44-8.22,1.22-10.55h0a5.06,5.06,0,0,0-2.45-4,8,8,0,0,0-4.13-1,24.11,24.11,0,0,0-7.36,1.44L31.22,20.45a3.43,3.43,0,0,0-2,1.68,3.37,3.37,0,0,0-.12,2.62l7,21c1.58,4.73,1.15,6.78.51,7.67-.53.74-1.59,1.11-3.13,1.11-.36,0-.76,0-1.17-.06L28,54.06l-8.42-.86c-.51-.05-1-.08-1.54-.08A17.36,17.36,0,0,0,5.37,59,21.79,21.79,0,0,0,8.89,90.86,22.69,22.69,0,0,0,20.7,95H21c4,0,8.2-1.19,13.2-3.75s7.19-3,8-3h.14c2.84.28,2.78,6.33,2.78,6.39v.07l.45,35.84v.18a3.3,3.3,0,0,0,3.27,3.17l.3,0c1.65-.15,35.39-3.32,40.5-4.94,2.28-.7,5.85-2.67,4.29-8-.52-1.78-2.73-5.63-4.76-9.1-.29-.51-.55-1-.71-1.22-4-7-2.69-12-1.14-15.51a16.32,16.32,0,0,1,15.23-9.7,16.62,16.62,0,0,1,8.71,2.38c7.63,4.79,10.35,11.42,8.32,20.28h0c-1,4.77-1.43,8.22-1.21,10.55h0a5.06,5.06,0,0,0,2.45,4,8,8,0,0,0,4.14,1,24.52,24.52,0,0,0,7.36-1.44l26.31-8.75a3.41,3.41,0,0,0,2-1.68,3.3,3.3,0,0,0,.12-2.61l-7-21c-1.58-4.73-1.15-6.78-.51-7.67.54-.74,1.59-1.12,3.13-1.12a9.76,9.76,0,0,1,1.17.07l4.33.44,8.42.85a13.24,13.24,0,0,0,1.54.08,17.31,17.31,0,0,0,12.64-5.88,21.07,21.07,0,0,0,5.28-16.12A20.87,20.87,0,0,0,180.94,43a22.66,22.66,0,0,0-11.81-4.15h-.32c-4,0-8.2,1.19-13.2,3.75s-7.19,3-8,3h-.15c-2.84-.28-2.78-6.33-2.78-6.39v-.07l-.45-35.84V3.17A3.28,3.28,0,0,0,141,0Z" fill="#042b4c"/>
        <path d="M68.12,32.88a24.29,24.29,0,0,1,.62-7.41c.82-3.78,1.42-7.57,1.19-10.07-.51-4.8-6.89-3.67-10.08-2.79A178.28,178.28,0,0,0,68.12,32.88Z" fill="#fff"/>
        <path d="M92.43,121.37c-.62-2.11-4.4-8.35-5.33-10-4.27-7.52-2.87-13.11-1.22-16.9a18.16,18.16,0,0,1,2.26-3.82c-2.84-9.58-1.56-19.82-1.56-19.82a30.87,30.87,0,0,0,5.9,15.87,18.88,18.88,0,0,1,19.6-.23c6,3.77,8.76,8.43,9.48,13.39L136,106.05l8.4-12.42L121.26,58.7a23.19,23.19,0,0,1-1-9.79c-.91-.3-9.3-4.81-16.63-8.79-5,10.37-17.95,12.25-25.85,7.29-5.66-3.55-8.43-7.89-9.34-12.52a64.63,64.63,0,0,0-8.29,5.76h0a173.46,173.46,0,0,1-15.44-23l-13,4.31a1.71,1.71,0,0,0-1.17,2.32l.87,2.58A170.87,170.87,0,0,0,52.6,47.66a73.61,73.61,0,0,0-6.35,7.78c-2.27-1.18-4.81-2.58-7.52-4.17,0,3.09-1.67,5.28-6.59,4.78l-12.75-1.3a13.65,13.65,0,0,0-3.5.1A174.75,174.75,0,0,0,41,64,72.75,72.75,0,0,0,37,73.34,166.74,166.74,0,0,1,2.34,67.55,21,21,0,0,0,5.45,85.37a173.64,173.64,0,0,0,28.76-1.83q-.62,3.13-1,6.47l.28-.13c3.54-1.82,7.12-3.36,9-3.19,4.45.44,4.19,8,4.19,8l.46,35.84c.25,2,1.85,1.8,1.85,1.8s35.21-3.29,40.21-4.88C93.6,126.08,92.85,122.81,92.43,121.37Zm41.15-27.72,4.83,1.28-6.22,1.17L129.37,91ZM111,56.33l3.4,3.25s-4,1.67-5.77.54-4.54-7.38-4.54-7.38Z" fill="#fff"/>
        <path d="M121.08,108.41c-.18.85-.35,1.7-.51,2.54a42.69,42.69,0,0,0,8.45-1.14l-7.38-9.38A23.5,23.5,0,0,1,121.08,108.41Z" fill="#fff"/>
    </g>
    <g>
        <path d="M223.06,24.93h14.07V103.7H223.06Z" fill="#042b4c"/>
        <path d="M252.26,26.29h14.07V39.74H252.26Zm0,23.32h14.07V103.7H252.26Z" fill="#042b4c"/>
        <path d="M316.75,97.5h-.21c-4.94,6-9.88,7.46-15.86,7.46-16.91,0-23-13.66-23-28.46s6.09-28.15,23-28.15c8,0,13.13,3.36,16.49,8.93h.21V49.61h13.44v76.14H316.75Zm-24.37-21C292.38,84,295,94,304.25,94s12.39-9.88,12.39-17.54S313.07,59.27,304,59.27,292.38,69.25,292.38,76.5Z" fill="#042b4c"/>
        <path d="M395,103.7H381.65V96.35h-.21A22.54,22.54,0,0,1,363.7,105c-12.82,0-18.38-9-18.38-21.22V49.61h14.07V78.49c0,6.62.1,15.55,9.14,15.55,10.18,0,12.39-11,12.39-18V49.61H395Z" fill="#042b4c"/>
        <path d="M409.8,26.29h14.08V39.74H409.8Zm0,23.32h14.08V103.7H409.8Z" fill="#042b4c"/>
        <path d="M438.69,49.61h13.44v7.67h.21c3.15-5.26,8.51-8.93,16.8-8.93,16.6,0,22.69,13.23,22.69,28.15s-6.09,28.46-23,28.46c-6,0-10.92-1.47-15.86-7.46h-.21v28.25H438.69ZM452.87,76.5c0,7.66,3,17.54,12.39,17.54S477.13,84,477.13,76.5c0-7.25-2.52-17.23-11.66-17.23S452.87,68.93,452.87,76.5Z" fill="#042b4c"/>
        <path d="M546.24,100.65c-5.15,2.84-11,4.31-18.59,4.31-17.86,0-28.26-10.29-28.26-28,0-15.65,8.3-28.57,25.11-28.57,20.06,0,25.73,13.76,25.73,32.66H512.84c.63,8.72,6.72,13.66,15.44,13.66,6.82,0,12.71-2.53,18-5.47Zm-9.46-29.3c-.42-6.83-3.57-12.71-11.44-12.71s-11.87,5.46-12.5,12.71Z" fill="#042b4c"/>
        <path d="M597.28,97.61h-.21c-4.2,5.25-10,7.35-16.59,7.35-16.6,0-22.69-13.66-22.69-28.46s6.09-28.15,22.69-28.15c7,0,12,2.41,16.17,7.56h.21v-31h14.07V103.7H597.28ZM584.36,94c9.35,0,12.4-9.88,12.4-17.54s-3.57-17.23-12.61-17.23-11.66,10-11.66,17.23C572.49,84,575.12,94,584.36,94Z" fill="#042b4c"/>
        <path d="M625.74,26.29h14.08V39.74H625.74Zm0,23.32h14.08V103.7H625.74Z" fill="#042b4c"/>
        <path d="M657,52.45a48.31,48.31,0,0,1,18.8-4.1c16.49,0,23.32,6.83,23.32,22.79v6.93c0,5.46.11,9.56.21,13.55s.31,7.88.63,12.08H687.61a64.09,64.09,0,0,1-.63-8.09h-.21c-3.26,6-10.3,9.35-16.7,9.35-9.56,0-18.91-5.78-18.91-16.07,0-8.09,3.89-12.81,9.24-15.44s12.29-3.15,18.17-3.15h7.78c0-8.72-3.89-11.66-12.19-11.66a28.33,28.33,0,0,0-16.7,5.88Zm16.49,42.22a12,12,0,0,0,9.88-4.84c2.31-3,2.94-6.93,2.94-11.13h-6.09c-6.31,0-15.65,1-15.65,9.35C664.61,92.67,668.49,94.67,673.53,94.67Z" fill="#042b4c"/>
    </g>
</symbol>
</svg>