<?xml version="1.0" encoding="utf-8"?>
<!-- Generator: Adobe Illustrator 23.0.3, SVG Export Plug-In . SVG Version: 6.00 Build 0)  -->
<svg version="1.1" id="Layer_1" xmlns="http://www.w3.org/2000/svg" xmlns:xlink="http://www.w3.org/1999/xlink" x="0px" y="0px"
	 viewBox="0 0 1889 362" style="enable-background:new 0 0 1889 362;" xml:space="preserve">
<style type="text/css">
	.st0{fill:#042B4C;stroke:#0c3c6a;stroke-width:7px;}
	.st1{fill:#FFFFFF;}
</style>
<g>
	<path class="st1" d="M0,67.2h38v212.5H0V67.2z"/>
	<path class="st1" d="M78.8,70.9h38v36.3h-38V70.9z M78.8,133.8h38v145.9h-38V133.8z"/>
	<path class="st1" d="M252.7,263h-0.6c-13.3,16.1-26.6,20.1-42.8,20.1c-45.6,0-62-36.8-62-76.8c0-40.2,16.4-75.9,62-75.9
		c21.5,0,35.4,9.1,44.5,24.1h0.6v-20.7h36.3v205.4h-38V263z M187,206.3c0,20.1,7.1,47.3,32,47.3c25.2,0,33.4-26.6,33.4-47.3
		c0-20.4-9.6-46.5-34-46.5C193.8,159.9,187,186.8,187,206.3z"/>
	<path class="st1" d="M463.8,279.7h-36v-19.8h-0.6c-11.6,14.2-28,23.2-47.9,23.2c-34.6,0-49.6-24.4-49.6-57.2v-92.1h38v77.9
		c0,17.8,0.3,41.9,24.6,41.9c27.5,0,33.4-29.7,33.4-48.4v-71.4h38L463.8,279.7L463.8,279.7z"/>
	<path class="st1" d="M503.7,70.9h38v36.3h-38V70.9z M503.7,133.8h38v145.9h-38V133.8z"/>
	<path class="st1" d="M581.6,133.8h36.3v20.7h0.6c8.5-14.2,22.9-24.1,45.3-24.1c44.8,0,61.2,35.7,61.2,75.9
		c0,39.9-16.4,76.8-62,76.8c-16.1,0-29.5-4-42.8-20.1h-0.6v76.2h-38V133.8z M619.9,206.3c0,20.7,8.2,47.3,33.4,47.3
		c24.9,0,32-27.2,32-47.3c0-19.5-6.8-46.5-31.4-46.5C629.5,159.9,619.9,185.9,619.9,206.3z"/>
	<path class="st1" d="M871.7,271.5c-13.9,7.6-29.7,11.6-50.1,11.6c-48.2,0-76.2-27.8-76.2-75.6c0-42.2,22.4-77.1,67.7-77.1
		c54.1,0,69.4,37.1,69.4,88.1H781.7c1.7,23.5,18.1,36.8,41.6,36.8c18.4,0,34.3-6.8,48.4-14.7V271.5z M846.2,192.4
		c-1.1-18.4-9.6-34.3-30.9-34.3c-21.2,0-32,14.7-33.7,34.3H846.2z"/>
	<path class="st1" d="M1009.4,263.3h-0.6c-11.3,14.2-26.9,19.8-44.8,19.8c-44.8,0-61.2-36.8-61.2-76.8c0-40.2,16.4-75.9,61.2-75.9
		c19,0,32.3,6.5,43.6,20.4h0.6V67.2h38v212.5h-36.8V263.3z M974.6,253.6c25.2,0,33.4-26.6,33.4-47.3c0-20.4-9.6-46.5-34-46.5
		c-24.6,0-31.4,26.9-31.4,46.5C942.6,226.4,949.6,253.6,974.6,253.6z"/>
	<path class="st1" d="M1086.2,70.9h38v36.3h-38V70.9z M1086.2,133.8h38v145.9h-38V133.8z"/>
	<path class="st1" d="M1170.6,141.5c14.7-6.8,34.6-11,50.7-11c44.5,0,62.9,18.4,62.9,61.5v18.7c0,14.7,0.3,25.8,0.6,36.5
		c0.3,11,0.8,21.2,1.7,32.6h-33.4c-1.4-7.6-1.4-17.3-1.7-21.8h-0.6c-8.8,16.1-27.8,25.2-45,25.2c-25.8,0-51-15.6-51-43.3
		c0-21.8,10.5-34.6,24.9-41.6c14.4-7.1,33.1-8.5,49-8.5h21c0-23.5-10.5-31.4-32.9-31.4c-16.1,0-32.3,6.2-45,15.9L1170.6,141.5z
		 M1215.1,255.3c11.6,0,20.7-5.1,26.6-13c6.2-8.2,7.9-18.7,7.9-30h-16.4c-17,0-42.2,2.8-42.2,25.2
		C1191,250,1201.5,255.3,1215.1,255.3z"/>
</g>
<g>
	<path class="st0" d="M1756.3,0c-0.3,0-0.6,0-0.8,0c-4.5,0.5-95.5,9-109.3,13.4c-6.1,1.9-15.8,7.2-11.6,21.6
		c1.4,4.8,7.4,15.2,12.8,24.5c0.8,1.4,1.5,2.6,1.9,3.3c10.7,18.8,7.3,32.2,3.1,41.8c-8.4,19.3-26.7,26.2-41.1,26.2
		c-8.5,0-16.9-2.3-23.5-6.4c-20.6-12.9-27.9-30.8-22.4-54.7l0,0l0,0c2.8-12.9,3.9-22.2,3.3-28.5l0,0l0,0c-0.5-4.8-2.8-8.5-6.6-10.8
		c-2.9-1.7-6.6-2.6-11.2-2.6c-9.1,0-18.8,3.5-19.9,3.9l-71,23.6c-2.5,0.8-4.4,2.4-5.5,4.5c-0.7,1.5-1.4,3.9-0.3,7.1l18.9,56.7
		c4.3,12.8,3.1,18.3,1.4,20.7c-1.4,2-4.3,3-8.4,3c-1,0-2-0.1-3.2-0.2l-11.7-1.2l-22.7-2.3c-1.4-0.1-2.8-0.2-4.2-0.2
		c-12.5,0-24.9,5.8-34.1,15.9c-10.2,11.4-15.4,27.2-14,43.3c2.1,22.7,14.1,35.6,23.7,42.4c11.4,8.1,24.3,11.1,31.8,11.2
		c0.3,0,0.6,0,0.9,0c10.8,0,22.1-3.2,35.6-10.1c13.8-7.1,19.4-8.2,21.5-8.2c0.1,0,0.3,0,0.4,0c7.7,0.8,7.5,17.1,7.5,17.2v0.1v0.1
		l1.2,96.7v0.2v0.2c0.8,6.3,5.2,8.5,8.8,8.5c0.3,0,0.6,0,0.8,0c4.5-0.4,95.5-9,109.2-13.3c6.1-1.9,15.8-7.2,11.6-21.6
		c-1.4-4.8-7.4-15.2-12.8-24.5c-0.8-1.4-1.5-2.6-1.9-3.3c-10.7-18.8-7.3-32.2-3.1-41.8c8.4-19.3,26.7-26.2,41.1-26.2
		c8.5,0,16.9,2.3,23.5,6.4c20.6,12.9,27.9,30.8,22.4,54.7l0,0l0,0c-2.8,12.9-3.9,22.2-3.3,28.5l0,0l0,0c0.5,4.8,2.8,8.5,6.6,10.8
		c2.9,1.7,6.6,2.6,11.2,2.6c9.1,0,18.8-3.5,19.9-3.9l71-23.6c2.5-0.8,4.4-2.4,5.5-4.5c0.7-1.5,1.4-3.9,0.3-7.1l-18.9-56.7
		c-4.3-12.8-3.1-18.3-1.4-20.7c1.4-2,4.3-3,8.4-3c1,0,2,0.1,3.2,0.2l11.7,1.2l22.7,2.3c1.4,0.1,2.8,0.2,4.2,0.2
		c12.5,0,24.9-5.8,34.1-15.9c10.5-11.5,15.7-27.4,14.2-43.5c-2.1-22.7-14.1-35.6-23.7-42.4c-11.4-8.1-24.3-11.1-31.8-11.2
		c-0.3,0-0.6,0-0.9,0c-10.8,0-22.1,3.2-35.6,10.1c-13.8,7.1-19.4,8.2-21.5,8.2c-0.1,0-0.3,0-0.4,0c-7.7-0.8-7.5-17.1-7.5-17.2v-0.1
		v-0.1L1765.1,9V8.8V8.6C1764.3,2.2,1759.9,0,1756.3,0L1756.3,0z"/>
	<g>
		<path class="st1" d="M1702.6,292.4c-0.4,2.1-0.9,4.1-1.3,6.2c8.7,0.1,22-3.1,22-3.1l-19.2-24.4
			C1704.9,278.1,1704.2,285.3,1702.6,292.4z"/>
		<path class="st1" d="M1625.3,327.4c-1.7-5.7-11.9-22.5-14.4-26.9c-11.5-20.3-7.7-35.4-3.3-45.6c1.6-3.7,3.5-6.9,5.7-9.9
			c-8.1-26.2-4.6-54.6-4.6-54.6c1.4,20.5,10.7,35.8,16.5,43.6c16.3-10.4,38-10.1,53-0.7c16,10.1,23.5,22.5,25.5,35.7l38.3,16.4
			l22.6-33.5l-62.4-94.2c-4.6-11.8-2.8-26.4-2.8-26.4c-2.4-0.8-24.5-12.7-44-23.3c-13.5,28.2-48.5,33.3-69.9,19.9
			c-15.7-9.8-23.1-21.9-25.4-34.8c-7.2,4.1-14.9,9.4-22.9,15.8l0,0c-12.1-15.2-27.6-36.9-41.2-61.3l-34.5,11.5
			c-2.7,0.9-4.2,3.1-3.1,6.3c0,0,0.9,2.8,2.4,7.2c19.3,22.7,40.5,42.2,56.4,55.3c-5.9,6.3-11.7,13.3-17.1,21
			c-5.9-3.1-12.5-6.7-19.6-10.8c0,8.5-4.3,14.5-17.8,13.2c-9.6-1-31-3.2-34.4-3.5c-3-0.3-5.9-0.2-8.8,0.2
			c24.4,11,48.5,19.1,66.5,24.1c-4.1,7.9-7.8,16.3-10.9,25.2c-23.9-1.5-59-5.7-92.6-15.4c-1.9,6.3-2.7,13.3-2,20.5
			c1,11.4,4.7,20.3,9.7,27.3c29.2,0.7,57.4-2,77.4-5c-1.2,6-2.1,12.2-2.8,18.6c0.5-0.3,1-0.5,1.6-0.8c9.6-4.9,19.2-9,24.2-8.6
			c12,1.2,11.3,21.6,11.3,21.6l1.2,96.7c0.7,5.4,5,4.8,5,4.8s95-8.9,108.4-13.2C1628.5,340.1,1626.4,331.2,1625.3,327.4z
			 M1735.6,251.9l13,3.5l-16.8,3.1l-7.6-13.9L1735.6,251.9z M1674.7,151.2l9.2,8.8c0,0-10.9,4.5-15.6,1.5
			c-4.7-3.1-12.3-19.9-12.3-19.9L1674.7,151.2z"/>
		<path class="st1" d="M1559.8,89.6c-0.7-6.9,0-13.9,1.6-20.9c2.2-10.2,3.8-20.4,3.2-27.2c-1.4-13.2-19.1-9.8-27.6-7.4
			C1544.2,55.4,1552.6,74.8,1559.8,89.6z"/>
	</g>
</g>
</svg>
