<svg width="24" height="20" viewBox="0 0 24 20" fill="none" xmlns="http://www.w3.org/2000/svg"><path d="M7.53 19.515c9.063 0 14.018-7.51 14.018-14.018 0-.215 0-.43-.01-.634A10.093 10.093 0 0024 2.31a10 10 0 01-2.83.777A4.924 4.924 0 0023.336.358c-.95.562-2.003.97-3.127 1.195A4.903 4.903 0 0016.613 0a4.927 4.927 0 00-4.925 4.925c0 .388.041.766.133 1.124A13.976 13.976 0 011.665.899a4.942 4.942 0 00-.664 2.473c0 1.706.869 3.218 2.197 4.097a4.84 4.84 0 01-2.227-.613v.061a4.932 4.932 0 003.954 4.833 4.91 4.91 0 01-1.298.173c-.317 0-.623-.03-.93-.092a4.92 4.92 0 004.598 3.423A9.904 9.904 0 010 17.287a13.726 13.726 0 007.53 2.228z" fill="currentColor"/></svg>